<svg width="176" height="176" viewBox="0 0 176 176" fill="none" xmlns="http://www.w3.org/2000/svg">
<path d="M80.8533 9.62138C58.0053 16.7254 50.1333 29.3974 50.9013 57.8134C51.4773 76.0534 52.8213 82.7734 56.0853 82.7734C57.0453 82.7734 57.8133 83.9254 57.8133 85.2694C57.8133 86.6134 59.5413 91.0294 61.6533 95.2534C66.2613 104.469 66.6453 115.797 62.4213 119.445C60.6933 120.981 51.4773 125.973 41.8773 130.773C21.3333 140.757 13.2693 149.397 12.8853 160.917L12.6933 168.213L87.3813 168.789C132.117 168.981 163.029 168.405 163.989 167.445C167.253 164.181 163.413 152.085 157.077 144.789C153.237 140.373 144.981 134.997 134.613 130.197C114.069 120.789 111.573 118.485 111.573 109.653C111.573 102.741 118.101 84.8854 121.365 82.7734C124.629 80.4694 126.165 71.2534 126.165 53.9734C125.973 32.2774 122.517 24.4054 110.613 18.6454C106.389 16.5334 101.781 13.2694 100.437 11.3494C97.7493 7.70139 89.6853 6.93338 80.8533 9.62138ZM95.2533 18.6454C96.4053 20.5654 100.437 22.8694 103.893 24.0214C107.349 25.1734 111.957 28.4374 113.877 31.1254C118.677 37.6534 120.405 50.5174 117.333 57.8134C115.605 62.2294 115.413 64.1494 117.141 66.2614C119.253 68.7574 118.293 73.3654 113.685 80.8534C106.773 91.9894 103.893 101.205 103.893 111.381V122.517L96.0213 125.013C89.4933 127.317 87.1893 127.125 80.2773 124.821L72.4053 121.941L72.9813 111.189C73.3653 103.125 72.4053 98.9014 69.5253 94.1014C67.2213 90.4534 65.4933 86.4214 65.4933 85.0774C65.4933 83.7334 63.5733 80.0854 61.2693 77.0134C57.8133 72.2134 57.4293 70.6774 59.5413 66.8374C61.2693 63.5734 61.2693 61.0774 59.9253 57.0454C53.5893 40.5334 63.3813 23.2534 82.3893 17.4934C90.2613 14.9974 92.7573 15.3814 95.2533 18.6454ZM82.9653 138.069C84.3093 141.525 83.9253 145.557 81.8133 152.085L78.5493 161.493H49.9413C31.3173 161.493 21.3333 160.725 21.3333 159.573C21.3333 158.421 22.6773 154.965 24.2133 151.893C26.5173 147.477 31.8933 143.829 46.6773 136.725C66.0693 127.509 66.0693 127.509 73.7493 130.389C78.3573 132.309 82.0053 135.189 82.9653 138.069ZM145.365 144.405C150.741 147.669 155.733 154.965 155.733 159.573C155.733 160.725 144.021 161.493 127.125 161.493H98.5173L95.4453 152.661C91.2213 140.373 92.9493 134.997 102.741 130.965L110.613 127.509L125.013 134.037C132.885 137.685 142.101 142.293 145.365 144.405Z" fill="#2D2D2D"/>
</svg>
