<svg width="176" height="176" viewBox="0 0 176 176" fill="none" xmlns="http://www.w3.org/2000/svg">
<path d="M24.64 88V168.96H88H151.36V110.352V51.92L128.832 29.392L106.48 7.03996H65.472H24.64V88ZM102.08 35.2V56.32H123.2H144.32V109.12V161.92H88H31.68V88V14.08H66.88H102.08V35.2ZM124.96 34.32L139.92 49.28H124.432H109.12V34.32C109.12 26.048 109.296 19.36 109.648 19.36C109.824 19.36 116.688 26.048 124.96 34.32Z" fill="#2D2D2D"/>
<path d="M49.28 38.72C49.28 42.064 50.512 42.24 72.16 42.24C93.808 42.24 95.04 42.064 95.04 38.72C95.04 35.376 93.808 35.2 72.16 35.2C50.512 35.2 49.28 35.376 49.28 38.72Z" fill="#2D2D2D"/>
<path d="M49.28 52.7999C49.28 56.1439 50.512 56.3199 72.16 56.3199C93.808 56.3199 95.04 56.1439 95.04 52.7999C95.04 49.4559 93.808 49.2799 72.16 49.2799C50.512 49.2799 49.28 49.4559 49.28 52.7999Z" fill="#2D2D2D"/>
<path d="M49.28 66.8799C49.28 70.2239 50.512 70.3999 89.76 70.3999C129.008 70.3999 130.24 70.2239 130.24 66.8799C130.24 63.5359 129.008 63.3599 89.76 63.3599C50.512 63.3599 49.28 63.5359 49.28 66.8799Z" fill="#2D2D2D"/>
<path d="M49.28 80.96C49.28 84.304 50.512 84.48 89.76 84.48C129.008 84.48 130.24 84.304 130.24 80.96C130.24 77.616 129.008 77.44 89.76 77.44C50.512 77.44 49.28 77.616 49.28 80.96Z" fill="#2D2D2D"/>
<path d="M49.28 95.0399C49.28 98.3839 50.512 98.5599 89.76 98.5599C129.008 98.5599 130.24 98.3839 130.24 95.0399C130.24 91.6959 129.008 91.5199 89.76 91.5199C50.512 91.5199 49.28 91.6959 49.28 95.0399Z" fill="#2D2D2D"/>
<path d="M63.536 111.584C58.608 116.864 57.024 126.896 59.84 133.76C61.6 137.808 61.6 139.744 60.016 141.328C57.376 143.968 57.552 147.84 60.544 147.84C61.776 147.84 63.888 146.608 65.12 145.2C66.528 143.616 68.816 142.912 71.28 143.616C76.032 144.848 87.472 139.92 90.288 135.344C92.048 132.528 92.4 132.528 94.336 135.168C96.096 137.456 97.152 137.632 100.496 135.872C111.584 130.24 117.04 126.544 117.04 124.608C117.04 120.736 110.528 120.912 105.248 124.96C100.848 128.128 99.616 128.48 98.384 126.544C97.504 125.136 96.8 123.552 96.8 122.672C96.8 119.152 91.168 122.144 86.24 128.48C83.248 132.352 79.552 135.52 78.144 135.52C75.152 135.52 75.152 134.112 78.32 128.48C81.84 122.144 81.488 114.928 77.44 110.88C72.864 106.304 68.288 106.48 63.536 111.584ZM73.392 117.216C74.624 120.736 69.168 132.528 66.88 131.12C63.008 128.832 66.176 114.4 70.576 114.4C71.456 114.4 72.688 115.632 73.392 117.216Z" fill="#2D2D2D"/>
</svg>
