<svg width="176" height="176" viewBox="0 0 176 176" fill="none" xmlns="http://www.w3.org/2000/svg">
<path d="M67.936 9.85596C37.84 17.072 13.2 44.352 8.27201 75.504C1.93601 116.688 28.688 156.816 68.816 166.32C96.272 172.656 121.088 166.496 141.68 147.664L151.184 138.864L151.712 153.472C152.064 165.088 152.768 168.08 154.88 168.08C156.992 168.08 157.696 164.384 158.048 147.312L158.576 126.544L137.808 127.072C120.736 127.424 117.04 128.128 117.04 130.24C117.04 132.352 120.208 133.056 131.824 133.76L146.784 134.64L138.336 142.032C93.456 181.456 25.344 157.872 15.312 99.616C7.04001 50.864 50.864 7.03996 99.616 15.312C132 20.944 155.232 44.704 160.864 77.792C162.448 86.768 163.856 90.64 165.616 90.64C169.312 90.64 169.664 83.952 166.496 69.872C156.64 25.872 112.464 -0.880035 67.936 9.85596Z" fill="#2D2D2D"/>
<path d="M85.712 32.736C85.008 33.44 84.48 43.824 84.48 55.792C84.48 75.152 84.128 77.792 80.96 80.96C79.024 82.896 77.44 86.064 77.44 88C77.44 89.936 79.024 93.104 80.96 95.04C85.36 99.44 90.64 99.44 95.04 95.04C97.856 92.224 101.376 91.52 113.872 91.168C126.192 90.816 129.36 90.112 129.36 88C129.36 85.888 126.192 85.184 113.872 84.832C92.048 84.128 91.696 83.776 91.168 55.264C90.64 34.496 89.408 29.04 85.712 32.736Z" fill="#2D2D2D"/>
</svg>
