<svg width="176" height="176" viewBox="0 0 176 176" fill="none" xmlns="http://www.w3.org/2000/svg">
<path d="M64.592 9.50398C60.544 13.728 57.2 15.84 53.856 15.84C47.696 15.84 40.48 23.056 40.48 29.216C40.48 32.56 38.368 35.904 34.144 39.952C28.336 45.232 27.808 46.288 28.864 52.272C30.448 60.72 30.448 66 28.864 74.448C27.808 80.432 28.336 81.488 34.144 86.768C38.368 90.816 40.48 94.16 40.48 97.504C40.48 100.32 42.416 104.192 45.056 106.832L49.632 111.408L40.48 131.296C35.376 142.208 31.856 151.888 32.56 152.944C33.088 154 39.072 154.88 45.76 154.88H57.728L65.12 163.68C69.168 168.432 73.216 172.48 74.272 172.48C75.152 172.48 78.496 166.848 81.488 160.16C84.48 153.296 87.472 147.84 88 147.84C88.704 147.84 91.696 153.296 94.688 160.16C97.68 166.848 100.848 172.48 101.728 172.48C102.784 172.48 106.832 168.432 110.88 163.68L118.272 154.88H130.24C137.104 154.88 142.912 154 143.616 152.944C144.144 151.888 140.624 142.208 135.52 131.12L126.368 111.408L130.944 106.832C133.584 104.192 135.52 100.32 135.52 97.504C135.52 94.16 137.632 90.816 141.856 86.768C147.664 81.488 148.192 80.432 147.136 74.448C145.552 66 145.552 60.72 147.136 52.272C148.192 46.288 147.664 45.232 141.856 39.952C137.632 35.904 135.52 32.56 135.52 29.216C135.52 23.056 128.304 15.84 122.144 15.84C118.8 15.84 115.456 13.728 111.408 9.50398C106.128 3.69598 105.072 3.16798 99.088 4.22398C95.392 4.92798 90.464 5.45598 88 5.45598C85.536 5.45598 80.608 4.92798 76.912 4.22398C70.928 3.16798 69.872 3.69598 64.592 9.50398ZM82.016 12.672C86.592 14.256 89.232 14.256 95.04 12.32C102.256 9.85599 102.432 10.032 107.536 15.488C110.528 18.656 114.928 21.472 117.568 22.176C127.6 24.288 127.072 23.76 129.184 33.792C129.888 36.432 132.704 40.832 135.872 43.824C141.328 48.928 141.328 49.104 139.04 56.144C137.104 62.128 137.104 64.592 139.04 70.576C141.328 77.616 141.328 77.792 135.872 82.896C132.704 85.888 129.888 90.288 129.184 92.928C127.072 102.96 127.6 102.432 117.568 104.544C114.928 105.248 110.528 108.064 107.536 111.232C102.432 116.688 102.256 116.688 95.216 114.4C89.232 112.464 86.768 112.464 80.784 114.4C73.744 116.688 73.568 116.688 68.464 111.232C65.472 108.064 61.072 105.248 58.432 104.544C48.4 102.432 48.928 102.96 46.816 92.928C46.112 90.288 43.296 85.888 40.128 82.896C34.672 77.792 34.672 77.616 36.96 70.576C38.896 64.592 38.896 62.128 36.96 56.144C34.672 49.104 34.672 48.928 40.128 43.824C43.296 40.832 46.112 36.432 46.816 33.792C48.928 23.76 48.4 24.288 58.608 22.176C61.248 21.472 65.472 18.656 68.112 15.84C73.392 9.85599 74.096 9.67998 82.016 12.672ZM76.032 122.672C79.2 122.144 84.128 121.088 86.768 120.384L91.696 119.152L89.232 125.136C87.824 128.48 83.6 138.16 79.904 146.608L73.392 162.096L67.056 155.056C61.248 148.544 59.84 147.84 50.864 147.488L41.008 146.96L49.632 128.656L58.256 110.352L64.24 116.864C69.52 122.672 71.104 123.376 76.032 122.672ZM126.72 128.832L135.168 146.96L125.312 147.488C115.984 147.84 114.752 148.544 109.12 155.056L102.96 162.272L97.504 149.248C92.4 137.104 92.4 136.048 94.688 129.712C96.8 124.608 98.208 123.2 101.728 123.2C104.544 123.2 108.064 120.912 111.584 117.04C114.576 113.696 117.216 110.88 117.568 110.88C117.92 110.88 121.968 118.976 126.72 128.832Z" fill="#2D2D2D"/>
<path d="M99.616 60.8959C92.048 72.8639 85.008 82.7199 84.128 82.7199C83.072 82.7199 77.616 78.3199 71.808 73.0399C61.952 63.8879 58.08 62.3039 58.08 67.5839C58.08 68.8159 64.416 75.5039 72.16 82.5439L86.064 95.2159L90.288 88.3519C92.752 84.6559 99.792 73.7439 105.952 64.2399C112.112 54.5599 117.744 45.7599 118.448 44.5279C119.152 43.2959 118.448 41.7119 116.688 40.6559C113.872 39.2479 111.584 42.0639 99.616 60.8959Z" fill="#2D2D2D"/>
</svg>
