<svg width="128" height="128" viewBox="0 0 128 128" fill="none" xmlns="http://www.w3.org/2000/svg">
<path d="M17.025 12.4C12.8 13.525 9.49999 16.9 8.37499 21.175C7.79999 23.35 7.82499 80.675 8.37499 82.875C9.49999 87.175 12.85 90.5 17.175 91.625C18.35 91.925 20.85 92 31.3 92H44V93.95V95.9L42.275 96.15C37.35 96.925 33.25 100.825 32.25 105.625C32.075 106.425 32 108.425 32.05 110.25C32.125 113.75 32.3 114.2 33.85 115.35C34.525 115.875 34.625 115.875 64 115.875C93.375 115.875 93.475 115.875 94.15 115.35C95.7 114.2 95.875 113.75 95.95 110.25C96 108.425 95.925 106.425 95.75 105.625C94.75 100.825 90.65 96.925 85.725 96.15L84 95.9V93.95V92H96.7C110.45 92 110.85 91.975 113.55 90.6C115.325 89.7 117.525 87.525 118.475 85.775C120.075 82.775 120 84.325 120 52C120 26.4 119.95 22.425 119.625 21.125C118.5 16.825 115.15 13.5 110.825 12.375C108.7 11.825 19.1 11.85 17.025 12.4ZM110.15 20.65C110.525 20.925 111.075 21.475 111.35 21.85C111.875 22.525 111.875 22.625 111.875 52C111.875 81.375 111.875 81.475 111.35 82.15C111.075 82.525 110.525 83.075 110.15 83.35C109.475 83.875 109.175 83.875 92.725 83.95L76 84V79.375V74.75L77.95 73.775C91.2 67.1 95.875 51.7 88.325 39.525C84.1 32.675 73.1 26.2 69.85 28.65C69.475 28.925 68.925 29.475 68.65 29.85C68.15 30.5 68.125 30.9 68.05 39.275L67.975 48H64H60.025L59.95 39.275C59.875 30.9 59.85 30.5 59.35 29.85C58.075 28.125 56.425 27.65 54.225 28.375C47.1 30.7 40.45 36.65 37.85 43.025C35.225 49.425 35.45 56.175 38.525 62.35C40.9 67.125 44.875 71.075 49.975 73.725L52 74.775V79.4V84L35.275 83.95C18.825 83.875 18.525 83.875 17.85 83.35C17.475 83.075 16.925 82.525 16.65 82.15C16.125 81.475 16.125 81.3 16.05 52.675C16.025 36.825 16.05 23.525 16.125 23.075C16.3 22.075 17.35 20.8 18.375 20.35C19 20.075 27.125 20.025 64.3 20.075L109.475 20.125L110.15 20.65ZM52.8 54.3C54.075 55.975 54.2 56 64 56C73.8 56 73.925 55.975 75.2 54.3L75.875 53.425L76 45.825L76.125 38.225L77.625 39.425C85.375 45.675 86.1 56.025 79.25 62.975C77.175 65.1 75.225 66.375 72.25 67.575C68 69.3 68 69.275 68 77.625V84H64H60V77.625C60 69.275 60 69.3 55.75 67.575C52.75 66.35 50.8 65.1 48.75 62.975C45.9 60.05 44.35 56.725 44.075 52.9C43.725 47.925 46.2 42.725 50.475 39.35L51.875 38.25L52 45.825L52.125 53.425L52.8 54.3ZM76 94V96H64H52V94V92H64H76V94ZM86.15 104.65C87.125 105.35 87.725 106.225 87.9 107.175L88.075 108H64.025C37.775 108 39.675 108.125 40.275 106.575C40.625 105.65 41.45 104.775 42.375 104.35C42.975 104.075 47.025 104.025 64.3 104.075C85.25 104.125 85.475 104.125 86.15 104.65Z" fill="#304B73"/>
</svg>
