<svg width="128" height="128" viewBox="0 0 128 128" fill="none" xmlns="http://www.w3.org/2000/svg">
<g clip-path="url(#clip0_38_10)">
<mask id="path-1-outside-1_38_10" maskUnits="userSpaceOnUse" x="0" y="0" width="129" height="128" fill="black">
<rect fill="white" width="129" height="128"/>
<path d="M88.9901 1.45471C87.883 1.79914 87.0219 2.56181 79.7643 9.79488L71.7439 17.766H43.4021C18.3571 17.766 14.8389 17.8152 13.3136 18.1596C10.1645 18.8731 7.16303 21.4563 5.93292 24.5808L5.34246 26.0078L5.26866 63.9198L5.21945 101.832L4.35837 101.98C3.12826 102.176 2.04576 103.037 1.50451 104.218C0.815648 105.719 0.84025 113.075 1.52911 115.781C2.24258 118.561 3.32508 120.456 5.46547 122.572C7.58127 124.712 9.47564 125.794 12.2557 126.508C14.1255 127 15.1588 127 64.0188 127C112.485 127 113.937 126.975 115.733 126.533C118.636 125.794 120.481 124.737 122.572 122.596C124.713 120.456 125.82 118.537 126.509 115.781C127.197 113.075 127.222 105.719 126.533 104.218C125.992 103.037 124.909 102.176 123.679 101.98L122.818 101.832V64.5349C122.818 23.8182 122.892 25.6879 121.44 23.2277C119.472 19.8818 115.831 17.766 112.018 17.766C111.058 17.766 111.009 17.7414 110.173 16.0931C106.851 9.81948 99.8151 3.64431 93.5907 1.55312C91.8194 0.962669 90.6877 0.938065 88.9901 1.45471ZM94.378 6.42437C98.1914 8.26954 102.62 12.1321 105.08 15.7732C106.458 17.766 107.811 20.6937 107.983 21.9238L108.131 22.9079L97.5271 33.6837C83.9221 47.5347 85.3736 46.1816 84.4141 45.8372C83.9959 45.6896 83.0118 45.5666 82.2491 45.5666C78.8294 45.5911 76.0739 48.3466 76.0739 51.7417C76.0739 52.529 76.1969 53.4639 76.32 53.8329C76.566 54.448 76.4922 54.5956 75.5327 55.5797C74.3518 56.7606 73.8597 57.0066 72.9248 56.7606C72.1868 56.5884 57.327 41.95 56.7366 40.8183C56.2445 39.8834 56.6136 38.8009 57.8191 37.5954C58.6801 36.7835 58.8278 36.7097 59.4428 36.9558C60.5253 37.3494 63.0347 37.251 64.1418 36.7343C65.4212 36.1439 66.6759 34.8892 67.2909 33.536C67.8322 32.2813 67.9552 29.7473 67.4631 28.837C67.1679 28.2958 67.6846 27.7545 78.1897 17.2248C84.2665 11.1234 89.5806 5.93232 89.9742 5.6863C90.9583 5.04664 91.844 5.19425 94.378 6.42437ZM65.5688 23.9658C63.4284 26.18 62.8871 27.2625 63.1331 28.7878C63.6252 31.7401 63.6006 31.8877 62.9609 32.5028C62.4443 32.9702 62.1491 33.044 61.3864 32.9456C58.0897 32.4536 57.9667 32.4536 56.9826 32.9702C55.7771 33.5853 53.6613 35.7995 52.9232 37.2264C52.505 38.0383 52.3574 38.7271 52.3574 39.908C52.3574 42.0238 52.9724 43.2047 55.3096 45.5666L57.1302 47.4117L45.6163 58.901L34.1271 70.3902L29.6249 72.3584C24.5814 74.548 23.5727 75.1385 22.5148 76.6392C21.1371 78.5828 16.0198 88.1038 15.8722 88.9649C15.577 90.8347 15.9214 91.5236 18.5785 94.2298C21.5799 97.2805 22.0474 97.5757 23.8926 97.4281C25.0981 97.3297 25.9099 96.9607 30.6828 94.3036C33.6351 92.6553 36.4397 91.0315 36.9072 90.6871C38.2603 89.6538 38.9983 88.3745 40.9911 83.7738L42.8855 79.37L54.424 67.8316L65.9624 56.2931L68.029 58.2859C70.44 60.5985 71.8177 61.2136 73.9827 60.9922C75.8033 60.8199 76.935 60.1557 78.8294 58.1875C80.9452 55.9979 80.9452 55.9241 80.3547 52.0369C80.2317 51.1267 80.2809 50.9298 80.8714 50.364C81.4372 49.7735 81.634 49.7243 82.5443 49.8473C85.0538 50.241 85.718 50.2902 86.3577 50.118C87.2188 49.9212 110.837 26.4014 111.526 25.0729C111.796 24.5316 112.116 23.6459 112.215 23.1047C112.387 22.096 112.411 22.0714 113.223 22.1452C114.527 22.2682 116.077 23.1047 117.037 24.2364C118.734 26.2046 118.636 23.7444 118.636 64.8055V101.906H64.0188H9.40183V64.8055C9.40183 24.9991 9.35263 26.4506 10.6319 24.6792C11.4192 23.5721 12.7231 22.6373 14.0271 22.2928C14.9127 22.0468 21.1371 21.973 41.3602 21.973L67.5616 21.9484L65.5688 23.9658ZM61.6078 51.8893L63.0347 53.3163L51.1273 65.2483L39.2198 77.1804L37.2024 81.8795C36.0953 84.4873 34.9636 86.8245 34.6683 87.0951C34.1271 87.5872 24.0402 93.2949 23.7203 93.2949C23.6219 93.2949 22.7363 92.483 21.7522 91.499L19.9562 89.6784L22.8101 84.5365C24.3846 81.7073 25.9591 79.0994 26.3036 78.7304C26.6726 78.3367 28.4932 77.4019 30.7812 76.4178C32.897 75.5321 35.1112 74.5234 35.7262 74.2036C36.4889 73.8345 40.4991 69.972 48.3964 62.0747C54.7438 55.7027 60.0087 50.487 60.0825 50.487C60.1317 50.487 60.8205 51.1267 61.6078 51.8893ZM40.9419 108.155C41.1633 111.648 42.6887 114.059 45.6163 115.609L46.9203 116.298H64.0188H81.1174L82.4213 115.609C85.349 114.059 86.8743 111.648 87.0957 108.155L87.2188 106.088H105.006H122.818V109.729C122.818 114.969 122.203 117.011 119.841 119.496C119.177 120.185 118.095 121.071 117.455 121.415C114.724 122.891 117.972 122.818 64.0188 122.818C10.7058 122.818 13.412 122.891 10.8288 121.563C9.40183 120.849 7.38445 118.857 6.62178 117.454C5.53928 115.437 5.21945 113.739 5.21945 109.729V106.088H23.0315H40.8189L40.9419 108.155ZM82.9134 107.81C82.7657 109.803 82.1261 110.935 80.7238 111.722C79.8381 112.239 79.4936 112.239 64.0188 112.239C48.544 112.239 48.1996 112.239 47.3139 111.722C45.9116 110.935 45.2719 109.803 45.1243 107.81L45.0013 106.088H64.0188H83.0364L82.9134 107.81Z"/>
</mask>
<path d="M88.9901 1.45471C87.883 1.79914 87.0219 2.56181 79.7643 9.79488L71.7439 17.766H43.4021C18.3571 17.766 14.8389 17.8152 13.3136 18.1596C10.1645 18.8731 7.16303 21.4563 5.93292 24.5808L5.34246 26.0078L5.26866 63.9198L5.21945 101.832L4.35837 101.98C3.12826 102.176 2.04576 103.037 1.50451 104.218C0.815648 105.719 0.84025 113.075 1.52911 115.781C2.24258 118.561 3.32508 120.456 5.46547 122.572C7.58127 124.712 9.47564 125.794 12.2557 126.508C14.1255 127 15.1588 127 64.0188 127C112.485 127 113.937 126.975 115.733 126.533C118.636 125.794 120.481 124.737 122.572 122.596C124.713 120.456 125.82 118.537 126.509 115.781C127.197 113.075 127.222 105.719 126.533 104.218C125.992 103.037 124.909 102.176 123.679 101.98L122.818 101.832V64.5349C122.818 23.8182 122.892 25.6879 121.44 23.2277C119.472 19.8818 115.831 17.766 112.018 17.766C111.058 17.766 111.009 17.7414 110.173 16.0931C106.851 9.81948 99.8151 3.64431 93.5907 1.55312C91.8194 0.962669 90.6877 0.938065 88.9901 1.45471ZM94.378 6.42437C98.1914 8.26954 102.62 12.1321 105.08 15.7732C106.458 17.766 107.811 20.6937 107.983 21.9238L108.131 22.9079L97.5271 33.6837C83.9221 47.5347 85.3736 46.1816 84.4141 45.8372C83.9959 45.6896 83.0118 45.5666 82.2491 45.5666C78.8294 45.5911 76.0739 48.3466 76.0739 51.7417C76.0739 52.529 76.1969 53.4639 76.32 53.8329C76.566 54.448 76.4922 54.5956 75.5327 55.5797C74.3518 56.7606 73.8597 57.0066 72.9248 56.7606C72.1868 56.5884 57.327 41.95 56.7366 40.8183C56.2445 39.8834 56.6136 38.8009 57.8191 37.5954C58.6801 36.7835 58.8278 36.7097 59.4428 36.9558C60.5253 37.3494 63.0347 37.251 64.1418 36.7343C65.4212 36.1439 66.6759 34.8892 67.2909 33.536C67.8322 32.2813 67.9552 29.7473 67.4631 28.837C67.1679 28.2958 67.6846 27.7545 78.1897 17.2248C84.2665 11.1234 89.5806 5.93232 89.9742 5.6863C90.9583 5.04664 91.844 5.19425 94.378 6.42437ZM65.5688 23.9658C63.4284 26.18 62.8871 27.2625 63.1331 28.7878C63.6252 31.7401 63.6006 31.8877 62.9609 32.5028C62.4443 32.9702 62.1491 33.044 61.3864 32.9456C58.0897 32.4536 57.9667 32.4536 56.9826 32.9702C55.7771 33.5853 53.6613 35.7995 52.9232 37.2264C52.505 38.0383 52.3574 38.7271 52.3574 39.908C52.3574 42.0238 52.9724 43.2047 55.3096 45.5666L57.1302 47.4117L45.6163 58.901L34.1271 70.3902L29.6249 72.3584C24.5814 74.548 23.5727 75.1385 22.5148 76.6392C21.1371 78.5828 16.0198 88.1038 15.8722 88.9649C15.577 90.8347 15.9214 91.5236 18.5785 94.2298C21.5799 97.2805 22.0474 97.5757 23.8926 97.4281C25.0981 97.3297 25.9099 96.9607 30.6828 94.3036C33.6351 92.6553 36.4397 91.0315 36.9072 90.6871C38.2603 89.6538 38.9983 88.3745 40.9911 83.7738L42.8855 79.37L54.424 67.8316L65.9624 56.2931L68.029 58.2859C70.44 60.5985 71.8177 61.2136 73.9827 60.9922C75.8033 60.8199 76.935 60.1557 78.8294 58.1875C80.9452 55.9979 80.9452 55.9241 80.3547 52.0369C80.2317 51.1267 80.2809 50.9298 80.8714 50.364C81.4372 49.7735 81.634 49.7243 82.5443 49.8473C85.0538 50.241 85.718 50.2902 86.3577 50.118C87.2188 49.9212 110.837 26.4014 111.526 25.0729C111.796 24.5316 112.116 23.6459 112.215 23.1047C112.387 22.096 112.411 22.0714 113.223 22.1452C114.527 22.2682 116.077 23.1047 117.037 24.2364C118.734 26.2046 118.636 23.7444 118.636 64.8055V101.906H64.0188H9.40183V64.8055C9.40183 24.9991 9.35263 26.4506 10.6319 24.6792C11.4192 23.5721 12.7231 22.6373 14.0271 22.2928C14.9127 22.0468 21.1371 21.973 41.3602 21.973L67.5616 21.9484L65.5688 23.9658ZM61.6078 51.8893L63.0347 53.3163L51.1273 65.2483L39.2198 77.1804L37.2024 81.8795C36.0953 84.4873 34.9636 86.8245 34.6683 87.0951C34.1271 87.5872 24.0402 93.2949 23.7203 93.2949C23.6219 93.2949 22.7363 92.483 21.7522 91.499L19.9562 89.6784L22.8101 84.5365C24.3846 81.7073 25.9591 79.0994 26.3036 78.7304C26.6726 78.3367 28.4932 77.4019 30.7812 76.4178C32.897 75.5321 35.1112 74.5234 35.7262 74.2036C36.4889 73.8345 40.4991 69.972 48.3964 62.0747C54.7438 55.7027 60.0087 50.487 60.0825 50.487C60.1317 50.487 60.8205 51.1267 61.6078 51.8893ZM40.9419 108.155C41.1633 111.648 42.6887 114.059 45.6163 115.609L46.9203 116.298H64.0188H81.1174L82.4213 115.609C85.349 114.059 86.8743 111.648 87.0957 108.155L87.2188 106.088H105.006H122.818V109.729C122.818 114.969 122.203 117.011 119.841 119.496C119.177 120.185 118.095 121.071 117.455 121.415C114.724 122.891 117.972 122.818 64.0188 122.818C10.7058 122.818 13.412 122.891 10.8288 121.563C9.40183 120.849 7.38445 118.857 6.62178 117.454C5.53928 115.437 5.21945 113.739 5.21945 109.729V106.088H23.0315H40.8189L40.9419 108.155ZM82.9134 107.81C82.7657 109.803 82.1261 110.935 80.7238 111.722C79.8381 112.239 79.4936 112.239 64.0188 112.239C48.544 112.239 48.1996 112.239 47.3139 111.722C45.9116 110.935 45.2719 109.803 45.1243 107.81L45.0013 106.088H64.0188H83.0364L82.9134 107.81Z" fill="#304B73"/>
<path d="M88.9901 1.45471C87.883 1.79914 87.0219 2.56181 79.7643 9.79488L71.7439 17.766H43.4021C18.3571 17.766 14.8389 17.8152 13.3136 18.1596C10.1645 18.8731 7.16303 21.4563 5.93292 24.5808L5.34246 26.0078L5.26866 63.9198L5.21945 101.832L4.35837 101.98C3.12826 102.176 2.04576 103.037 1.50451 104.218C0.815648 105.719 0.84025 113.075 1.52911 115.781C2.24258 118.561 3.32508 120.456 5.46547 122.572C7.58127 124.712 9.47564 125.794 12.2557 126.508C14.1255 127 15.1588 127 64.0188 127C112.485 127 113.937 126.975 115.733 126.533C118.636 125.794 120.481 124.737 122.572 122.596C124.713 120.456 125.82 118.537 126.509 115.781C127.197 113.075 127.222 105.719 126.533 104.218C125.992 103.037 124.909 102.176 123.679 101.98L122.818 101.832V64.5349C122.818 23.8182 122.892 25.6879 121.44 23.2277C119.472 19.8818 115.831 17.766 112.018 17.766C111.058 17.766 111.009 17.7414 110.173 16.0931C106.851 9.81948 99.8151 3.64431 93.5907 1.55312C91.8194 0.962669 90.6877 0.938065 88.9901 1.45471ZM94.378 6.42437C98.1914 8.26954 102.62 12.1321 105.08 15.7732C106.458 17.766 107.811 20.6937 107.983 21.9238L108.131 22.9079L97.5271 33.6837C83.9221 47.5347 85.3736 46.1816 84.4141 45.8372C83.9959 45.6896 83.0118 45.5666 82.2491 45.5666C78.8294 45.5911 76.0739 48.3466 76.0739 51.7417C76.0739 52.529 76.1969 53.4639 76.32 53.8329C76.566 54.448 76.4922 54.5956 75.5327 55.5797C74.3518 56.7606 73.8597 57.0066 72.9248 56.7606C72.1868 56.5884 57.327 41.95 56.7366 40.8183C56.2445 39.8834 56.6136 38.8009 57.8191 37.5954C58.6801 36.7835 58.8278 36.7097 59.4428 36.9558C60.5253 37.3494 63.0347 37.251 64.1418 36.7343C65.4212 36.1439 66.6759 34.8892 67.2909 33.536C67.8322 32.2813 67.9552 29.7473 67.4631 28.837C67.1679 28.2958 67.6846 27.7545 78.1897 17.2248C84.2665 11.1234 89.5806 5.93232 89.9742 5.6863C90.9583 5.04664 91.844 5.19425 94.378 6.42437ZM65.5688 23.9658C63.4284 26.18 62.8871 27.2625 63.1331 28.7878C63.6252 31.7401 63.6006 31.8877 62.9609 32.5028C62.4443 32.9702 62.1491 33.044 61.3864 32.9456C58.0897 32.4536 57.9667 32.4536 56.9826 32.9702C55.7771 33.5853 53.6613 35.7995 52.9232 37.2264C52.505 38.0383 52.3574 38.7271 52.3574 39.908C52.3574 42.0238 52.9724 43.2047 55.3096 45.5666L57.1302 47.4117L45.6163 58.901L34.1271 70.3902L29.6249 72.3584C24.5814 74.548 23.5727 75.1385 22.5148 76.6392C21.1371 78.5828 16.0198 88.1038 15.8722 88.9649C15.577 90.8347 15.9214 91.5236 18.5785 94.2298C21.5799 97.2805 22.0474 97.5757 23.8926 97.4281C25.0981 97.3297 25.9099 96.9607 30.6828 94.3036C33.6351 92.6553 36.4397 91.0315 36.9072 90.6871C38.2603 89.6538 38.9983 88.3745 40.9911 83.7738L42.8855 79.37L54.424 67.8316L65.9624 56.2931L68.029 58.2859C70.44 60.5985 71.8177 61.2136 73.9827 60.9922C75.8033 60.8199 76.935 60.1557 78.8294 58.1875C80.9452 55.9979 80.9452 55.9241 80.3547 52.0369C80.2317 51.1267 80.2809 50.9298 80.8714 50.364C81.4372 49.7735 81.634 49.7243 82.5443 49.8473C85.0538 50.241 85.718 50.2902 86.3577 50.118C87.2188 49.9212 110.837 26.4014 111.526 25.0729C111.796 24.5316 112.116 23.6459 112.215 23.1047C112.387 22.096 112.411 22.0714 113.223 22.1452C114.527 22.2682 116.077 23.1047 117.037 24.2364C118.734 26.2046 118.636 23.7444 118.636 64.8055V101.906H64.0188H9.40183V64.8055C9.40183 24.9991 9.35263 26.4506 10.6319 24.6792C11.4192 23.5721 12.7231 22.6373 14.0271 22.2928C14.9127 22.0468 21.1371 21.973 41.3602 21.973L67.5616 21.9484L65.5688 23.9658ZM61.6078 51.8893L63.0347 53.3163L51.1273 65.2483L39.2198 77.1804L37.2024 81.8795C36.0953 84.4873 34.9636 86.8245 34.6683 87.0951C34.1271 87.5872 24.0402 93.2949 23.7203 93.2949C23.6219 93.2949 22.7363 92.483 21.7522 91.499L19.9562 89.6784L22.8101 84.5365C24.3846 81.7073 25.9591 79.0994 26.3036 78.7304C26.6726 78.3367 28.4932 77.4019 30.7812 76.4178C32.897 75.5321 35.1112 74.5234 35.7262 74.2036C36.4889 73.8345 40.4991 69.972 48.3964 62.0747C54.7438 55.7027 60.0087 50.487 60.0825 50.487C60.1317 50.487 60.8205 51.1267 61.6078 51.8893ZM40.9419 108.155C41.1633 111.648 42.6887 114.059 45.6163 115.609L46.9203 116.298H64.0188H81.1174L82.4213 115.609C85.349 114.059 86.8743 111.648 87.0957 108.155L87.2188 106.088H105.006H122.818V109.729C122.818 114.969 122.203 117.011 119.841 119.496C119.177 120.185 118.095 121.071 117.455 121.415C114.724 122.891 117.972 122.818 64.0188 122.818C10.7058 122.818 13.412 122.891 10.8288 121.563C9.40183 120.849 7.38445 118.857 6.62178 117.454C5.53928 115.437 5.21945 113.739 5.21945 109.729V106.088H23.0315H40.8189L40.9419 108.155ZM82.9134 107.81C82.7657 109.803 82.1261 110.935 80.7238 111.722C79.8381 112.239 79.4936 112.239 64.0188 112.239C48.544 112.239 48.1996 112.239 47.3139 111.722C45.9116 110.935 45.2719 109.803 45.1243 107.81L45.0013 106.088H64.0188H83.0364L82.9134 107.81Z" stroke="#304B73" stroke-width="2" mask="url(#path-1-outside-1_38_10)"/>
<path d="M74.9176 34.9955C75.1893 34.9955 75.4783 34.993 75.8678 34.8012C76.2175 34.6289 76.6342 34.3118 77.2467 33.7641C78.4813 32.6601 80.6658 30.4745 84.9635 26.1645H84.9645C89.0191 22.1099 91.2007 19.9159 92.3668 18.6381C92.9466 18.0028 93.3004 17.5678 93.5074 17.228C93.7318 16.8597 93.7955 16.5839 93.7955 16.2895V16.2768C93.7819 15.7466 93.6852 15.2775 93.441 14.8705C93.1948 14.4602 92.8288 14.1637 92.3678 13.9262L92.3668 13.9272C92.0628 13.7603 91.6831 13.5521 91.1715 13.6362C90.7002 13.7137 90.194 14.0249 89.5299 14.5639C88.1815 15.6583 85.8556 17.9794 81.3297 22.5053C77.4213 26.4137 75.2108 28.643 73.9781 29.9809C73.3644 30.647 72.9742 31.1114 72.7369 31.4633C72.4968 31.8196 72.3756 32.1146 72.3756 32.4291C72.3756 32.7136 72.4482 33.0368 72.5524 33.3286C72.6572 33.6222 72.8097 33.9285 73.0016 34.1684C73.2253 34.4602 73.4676 34.6911 73.8073 34.8315C74.1331 34.9661 74.4987 34.9955 74.9176 34.9955Z" fill="#304B73" stroke="#304B73"/>
<path d="M78.2802 38.333C78.2802 40.2436 80.0743 41.4944 81.8436 40.7158L81.8456 40.7148C81.8512 40.7124 81.8575 40.7115 81.8632 40.709L81.8622 40.707C81.9465 40.6699 82.0251 40.6148 82.0692 40.582C82.1319 40.5355 82.2053 40.4758 82.287 40.4072C82.4515 40.2692 82.6669 40.0788 82.9237 39.8447C83.4382 39.3757 84.1355 38.7178 84.9637 37.9219C86.6213 36.329 88.8132 34.174 91.1395 31.8477L91.1405 31.8467C95.3033 27.6593 97.4211 25.529 98.494 24.3223C99.0265 23.7235 99.337 23.3138 99.5067 22.9678C99.6953 22.5831 99.7001 22.2957 99.7001 22.0225C99.7001 21.6037 99.6706 21.2379 99.536 20.9121C99.3956 20.5725 99.1638 20.3311 98.8719 20.1074L98.8729 20.1064C98.6331 19.9146 98.3267 19.7621 98.0331 19.6572C97.7413 19.553 97.4182 19.4805 97.1337 19.4805C96.8211 19.4805 96.5261 19.6064 96.1737 19.8457C95.8224 20.0843 95.3563 20.4763 94.6884 21.0918C93.3472 22.3277 91.1175 24.5381 87.2333 28.4346V28.4355C83.3379 32.3186 81.1272 34.5467 79.8915 35.8877C79.276 36.5556 78.885 37.0227 78.6464 37.374C78.4072 37.7262 78.2803 38.0206 78.2802 38.333Z" fill="#304B73" stroke="#304B73"/>
<path d="M11.1821 114.846C11.9106 114.978 12.637 114.686 13.1616 114.231C13.688 113.774 14.0844 113.091 14.0845 112.337C14.0845 111.319 13.4521 110.497 12.6724 110.074C11.8934 109.651 10.8681 109.578 10.0591 110.193H10.0581C9.72423 110.447 9.44115 110.828 9.24268 111.214C9.04529 111.599 8.90186 112.047 8.90186 112.46C8.90192 113.014 9.25864 113.565 9.64795 113.961C10.0509 114.371 10.6046 114.734 11.1763 114.845L11.1821 114.846Z" fill="#304B73" stroke="#304B73"/>
<path d="M19.3788 114.818C21.8482 115.374 23.4789 112.308 21.6913 110.538C21.6901 110.536 21.6887 110.535 21.6874 110.534C21.6861 110.532 21.6858 110.53 21.6845 110.529L21.6835 110.53C21.1535 109.989 20.4913 109.712 19.8095 109.753C19.128 109.793 18.4907 110.145 17.999 110.737V110.736C17.7296 111.057 17.5253 111.349 17.4179 111.671C17.3055 112.009 17.3156 112.327 17.372 112.666L17.373 112.674L17.3749 112.683C17.4884 113.236 17.7147 113.713 18.0624 114.085C18.4116 114.457 18.8607 114.699 19.3769 114.817L19.3788 114.818Z" fill="#304B73" stroke="#304B73"/>
<path d="M35.4904 114.953L36.3507 114.092L36.3556 114.089C36.8726 113.558 37.1857 112.941 37.2101 112.295C37.2345 111.644 36.9625 111.038 36.4552 110.54C36.3111 110.39 36.1508 110.222 35.9279 110.095C35.6987 109.965 35.4399 109.894 35.1115 109.851C34.4824 109.769 33.4277 109.77 31.4698 109.77C29.5562 109.77 28.5081 109.776 27.8829 109.851C27.5617 109.89 27.3068 109.951 27.0861 110.064C26.8616 110.18 26.7105 110.331 26.5812 110.467L26.5714 110.477L26.5616 110.489C26.4124 110.665 26.2577 110.873 26.129 111.073C26.0077 111.261 25.8825 111.483 25.8243 111.676L25.8263 111.677C25.7328 111.958 25.7417 112.264 25.7921 112.537C25.8454 112.825 25.9508 113.121 26.0861 113.393C26.2215 113.666 26.3946 113.93 26.5919 114.15C26.7848 114.366 27.0262 114.568 27.3068 114.675V114.673C27.471 114.736 27.7205 114.776 27.9669 114.804C28.2401 114.836 28.5827 114.863 28.9689 114.884C29.7428 114.928 30.7124 114.953 31.6915 114.953H35.4904Z" fill="#304B73" stroke="#304B73"/>
</g>
<defs>
<clipPath id="clip0_38_10">
<rect width="128" height="128" fill="white"/>
</clipPath>
</defs>
</svg>
