<svg width="128" height="128" viewBox="0 0 128 128" fill="none" xmlns="http://www.w3.org/2000/svg">
<path d="M15.55 5.925C15.1 6.15 14.475 6.675 14.175 7.1C13.65 7.85 13.625 8.125 13.55 14.175L13.475 20.5H8.225C3.45 20.5 2.9 20.55 2 21C1.35 21.325 0.825 21.85 0.5 22.5C0.025 23.425 0 23.95 0 31.75C0 39.55 0.025 40.075 0.5 41C1.175 42.325 2.5 43 4.45 43H5.925L7.15 45.55L8.375 48.125L8.5 73.25C8.625 98.125 8.625 98.375 9.15 99.525C9.925 101.175 11.1 102.375 12.7 103.175L14.125 103.875L34.9 103.95L55.675 104L59.625 111.65C63.175 118.5 63.725 119.4 64.95 120.525C67.25 122.625 65.8 122.525 91.4 122.45L113.875 122.375L115.3 121.675C116.9 120.875 118.075 119.675 118.85 118.025C119.375 116.875 119.375 116.8 119.5 82.5L119.625 48.125L120.85 45.55L122.075 43H123.55C125.5 43 126.825 42.325 127.5 41C127.975 40.075 128 39.55 128 31.75C128 23.95 127.975 23.425 127.5 22.5C127.175 21.85 126.65 21.325 126 21C125.1 20.55 124.55 20.5 119.775 20.5H114.525L114.45 14.175C114.35 4.925 115.075 5.5 103 5.5C94.675 5.5 94.425 5.525 93.475 6.05C92.85 6.4 92.325 6.975 92 7.625C91.55 8.575 91.5 9.175 91.5 14.575V20.5H64H36.5V14.575C36.5 9.075 36.475 8.575 35.975 7.575C35.625 6.825 35.15 6.325 34.475 6C33.575 5.525 32.975 5.5 24.95 5.5C17.575 5.5 16.25 5.575 15.55 5.925ZM29 16.75V20.5H25H21V16.75V13H25H29V16.75ZM107 16.75V20.5H103H99V16.75V13H103H107V16.75ZM120.5 31.75V35.5H64H7.5V31.75V28H64H120.5V31.75ZM113.75 43.1C113.75 43.15 113.35 44.025 112.875 45.025L112 46.85V80.925V115H90.9H69.825L65.525 106.675C63.15 102.125 60.975 98.1 60.675 97.8C59.425 96.45 60.425 96.5 37.375 96.5H16V71.725V46.975L15.125 45.075C14.65 44.025 14.25 43.15 14.25 43.1C14.25 43.05 36.65 43 64 43C91.375 43 113.75 43.05 113.75 43.1Z" fill="#304B73"/>
<path d="M62.375 50.85C59.5 52.1 52.55 62.95 50.225 69.75C49.475 72 49.3 75.8 49.875 78C51.1 82.775 54.825 86.725 59.55 88.275C62.125 89.125 65.875 89.125 68.45 88.275C73.125 86.75 76.9 82.775 78.1 78.1C78.325 77.25 78.5 75.575 78.5 74.375C78.5 72.55 78.35 71.775 77.65 69.625C75.3 62.625 68.525 52.1 65.575 50.85C64.575 50.425 63.35 50.425 62.375 50.85ZM65.625 62.325C67.525 65.25 69.8 69.675 70.475 71.675C71.175 73.775 71.15 75.775 70.4 77.375C69.3 79.75 66.575 81.5 64 81.5C61.425 81.5 58.7 79.75 57.6 77.375C56.425 74.875 56.9 72.325 59.475 67.375C60.85 64.725 63.75 60 64 60C64.075 60 64.8 61.05 65.625 62.325Z" fill="#304B73"/>
</svg>
