<svg width="128" height="128" viewBox="0 0 128 128" fill="none" xmlns="http://www.w3.org/2000/svg">
<path d="M40.191 127.191C43.8269 127.377 50.568 127.346 64.5445 127.31L89.7281 127.237H89.814L89.8951 127.208L91.4498 126.649H91.4507C95.3516 125.24 98.3987 122.242 99.8589 118.365H99.8599C99.9907 118.016 100.099 117.706 100.182 117.279C100.264 116.859 100.318 116.339 100.358 115.562C100.418 114.399 100.446 112.618 100.472 109.662L100.499 106.293L100.568 96.2749H107.211C109.327 96.2749 111.251 96.2504 112.742 96.2046C113.487 96.1818 114.128 96.1532 114.631 96.1197C115.116 96.0873 115.506 96.0479 115.739 95.9966H115.74C120.657 94.9691 124.919 90.829 126.145 85.9566L126.253 85.4829L126.254 85.48C126.286 85.3244 126.308 85.0319 126.328 84.6665C126.348 84.2847 126.366 83.7804 126.383 83.1743C126.418 81.9616 126.447 80.3281 126.469 78.4156C126.515 74.5896 126.538 69.6391 126.538 64.69C126.538 59.741 126.515 54.7912 126.469 50.9654C126.447 49.0529 126.418 47.4193 126.383 46.2066C126.366 45.6005 126.348 45.0963 126.328 44.7144C126.308 44.349 126.286 44.0566 126.254 43.9009V43.8999C125.496 40.1835 122.559 36.3153 119.264 34.6421L119.263 34.6411C117.906 33.9564 116.909 33.5628 115.227 33.3501C113.581 33.142 111.269 33.106 107.284 33.106H100.568L100.499 23.0874C100.462 18.0186 100.438 15.3689 100.358 13.8189C100.318 13.0421 100.264 12.522 100.182 12.1021C100.099 11.6749 99.9907 11.3648 99.8599 11.0161L99.8589 11.0152C98.3986 7.13814 95.3514 4.14133 91.4507 2.73196H91.4498L89.8951 2.17337L89.814 2.14407H89.7271L64.3502 2.09525H64.3492C53.7138 2.0831 47.311 2.08873 43.4156 2.13431C41.4689 2.15709 40.1424 2.19023 39.2242 2.23587C38.3149 2.28107 37.7755 2.33962 37.4224 2.42435L37.4205 2.42532C33.1768 3.46102 29.4547 6.78436 27.8677 10.9654L27.8648 10.9732C27.735 11.3318 27.6272 11.6472 27.5445 12.0757C27.463 12.4981 27.4086 13.0177 27.3687 13.7945C27.2891 15.3445 27.2645 17.9944 27.2281 23.0874L27.1588 33.106H20.5152C18.3996 33.106 16.4759 33.1306 14.9849 33.1763C14.2397 33.1992 13.5988 33.2277 13.0953 33.2613C12.6113 33.2935 12.2217 33.3331 11.9888 33.3843C11.9872 33.3846 11.9856 33.385 11.9839 33.3853C11.9824 33.3856 11.9806 33.3849 11.9791 33.3853V33.3863C7.03175 34.4004 2.73394 38.5996 1.57281 43.4712L1.57184 43.4751C1.52857 43.6639 1.4952 43.9851 1.46637 44.3833C1.4366 44.7946 1.40948 45.325 1.38434 45.9546C1.33404 47.2143 1.29275 48.8853 1.25934 50.8286C1.19249 54.7163 1.15875 59.704 1.15875 64.69C1.15875 69.6759 1.1925 74.6636 1.25934 78.5513C1.29276 80.4948 1.33403 82.1665 1.38434 83.4263C1.40948 84.0559 1.4366 84.5863 1.46637 84.9976C1.49518 85.3955 1.52863 85.7159 1.57184 85.9048L1.57281 85.9087C2.42953 89.5313 5.12461 92.9767 8.44586 94.6617L8.7691 94.8189C9.78473 95.3134 11.2231 95.8375 11.981 95.9956C12.2129 96.0477 12.6059 96.087 13.0953 96.1197C13.5988 96.1532 14.2397 96.1818 14.9849 96.2046C16.4759 96.2504 18.3996 96.2749 20.5152 96.2749H27.1588L27.2281 106.293C27.2645 111.386 27.2891 114.035 27.3687 115.585C27.4086 116.363 27.463 116.883 27.5445 117.305C27.6272 117.734 27.735 118.049 27.8648 118.408L27.8687 118.418C29.0509 121.486 31.413 124.23 34.272 125.723L34.8189 126.012C35.3446 126.288 35.8268 126.524 36.4556 126.707C37.2911 126.95 38.3717 127.098 40.191 127.191ZM33.3277 23.5806C33.3642 18.6423 33.3824 16.1519 33.4605 14.7437C33.4994 14.0418 33.5522 13.6355 33.6216 13.3413C33.6552 13.1992 33.6938 13.0792 33.7408 12.9585L33.9117 12.5699L33.9146 12.564C34.4448 11.3979 35.5485 10.1122 36.6734 9.35892L36.899 9.21536L36.9088 9.2095C37.3446 8.93268 37.6314 8.75482 38.2144 8.61478C38.8279 8.46743 39.7733 8.36265 41.5084 8.29446C44.9709 8.15841 51.434 8.17056 64.3482 8.19485C75.922 8.21914 82.0296 8.23756 85.3843 8.30423C88.7673 8.37146 89.2786 8.49079 89.7379 8.67044L89.7437 8.67239L90.0181 8.7886C90.672 9.09254 91.4058 9.61944 92.0748 10.2525C92.8389 10.9757 93.4713 11.7926 93.7877 12.4908C93.9333 12.8124 94.0244 13.0191 94.0953 13.3101C94.1678 13.6076 94.2229 14.0105 94.2632 14.7085C94.3443 16.1099 94.3625 18.5933 94.399 23.5806L94.4673 33.106H33.2593L33.3277 23.5806ZM11.5816 89.3033L11.5797 89.3023C9.84064 88.4557 8.85311 87.4492 8.00153 85.6079L7.99957 85.604L7.41656 84.3697V45.0113L7.99957 43.7779L8.20856 43.3609C9.28127 41.3301 10.7907 40.1066 12.9693 39.5298L12.9752 39.5279C12.9752 39.5279 12.9906 39.5238 13.0289 39.5181C13.0659 39.5126 13.1156 39.5068 13.1802 39.5005C13.3098 39.4879 13.4867 39.4755 13.7173 39.4634C14.1783 39.4393 14.8384 39.4171 15.7339 39.398C17.524 39.3598 20.241 39.3318 24.1636 39.312C32.0088 39.2726 44.6657 39.2667 64.3482 39.2788L114.627 39.3277L115.861 39.9107L115.865 39.9126C117.706 40.7642 118.713 41.7517 119.559 43.4908L119.56 43.4927L120.31 45.0152V84.3667L119.56 85.8882L119.559 85.8902C118.713 87.6292 117.706 88.6167 115.865 89.4683L115.861 89.4702L114.628 90.0533H100.663L100.547 80.9302C100.487 75.6903 100.469 73.0938 100.265 71.7408C100.162 71.0577 99.9995 70.5822 99.6724 70.2447C99.3667 69.9292 98.9488 69.7859 98.6148 69.6451L98.6129 69.6441C98.5299 69.6095 98.4372 69.5952 98.3912 69.5884C98.3278 69.579 98.2514 69.5715 98.1666 69.564C97.9961 69.5489 97.7678 69.5344 97.4888 69.521C96.9293 69.4942 96.1465 69.4696 95.1754 69.4468C93.232 69.4012 90.5204 69.3629 87.2984 69.3326C80.8533 69.2718 72.3572 69.2417 63.8629 69.2417C55.3686 69.2417 46.8732 69.2718 40.4283 69.3326C37.2063 69.3629 34.4947 69.4012 32.5513 69.4468C31.5802 69.4696 30.7974 69.4942 30.2379 69.521C29.9588 69.5344 29.7306 69.5489 29.5601 69.564C29.4753 69.5715 29.3989 69.579 29.3355 69.5884C29.2895 69.5952 29.1968 69.6095 29.1138 69.6441L29.1119 69.6451C28.7779 69.7859 28.36 69.9292 28.0543 70.2447C27.7272 70.5822 27.5645 71.0577 27.4615 71.7408C27.2575 73.0938 27.2396 75.6903 27.1793 80.9302L27.064 90.0533H13.1031L11.5816 89.3033ZM63.8629 121.137C52.2163 121.137 46.0412 121.131 42.6255 121.074C39.2002 121.016 38.612 120.905 38.0943 120.73L38.0953 120.729C37.3276 120.455 36.4617 119.886 35.69 119.172C34.919 118.46 34.2794 117.639 33.938 116.891L33.939 116.89L33.4 115.702L33.3277 95.4566L33.2798 75.6324H94.4468L94.399 95.4566L94.3257 115.702L93.7877 116.89V116.891C93.4463 117.639 92.8075 118.46 92.0367 119.172C91.265 119.886 90.3991 120.455 89.6314 120.729V120.73C89.1139 120.905 88.5246 121.016 85.1011 121.074C81.6854 121.131 75.5097 121.137 63.8629 121.137Z" fill="#304B73" stroke="#304B73"/>
<path d="M51.0516 91.2025C52.4559 91.198 53.861 91.1605 54.9882 91.0902C55.5509 91.0552 56.0511 91.0113 56.4501 90.9584C56.8234 90.9089 57.1797 90.8437 57.4012 90.7377L57.4003 90.7357C57.8899 90.511 58.345 90.0447 58.6688 89.5736C58.9902 89.1061 59.2635 88.518 59.2635 88.0033C59.2635 87.4886 58.9902 86.9005 58.6688 86.433C58.3458 85.9632 57.8924 85.4982 57.4042 85.2729L57.4052 85.2719C57.4026 85.2706 57.399 85.2702 57.3964 85.269C57.3944 85.268 57.3925 85.2659 57.3905 85.265L57.3895 85.266C57.2689 85.2094 57.1246 85.1685 56.9852 85.1381C56.8322 85.1047 56.6512 85.0747 56.451 85.0482C56.0506 84.9953 55.5473 84.9524 54.9803 84.9174C53.8442 84.8472 52.4259 84.8097 51.0096 84.8051C49.5934 84.8005 48.171 84.8283 47.0262 84.89C46.4544 84.9209 45.9455 84.9602 45.5389 85.0092C45.2518 85.0437 44.9791 85.0874 44.7665 85.1479L44.5751 85.2143C43.406 85.7275 42.7216 86.7276 42.7216 88.0033C42.7216 88.6378 42.8849 89.2134 43.2196 89.6986C43.5534 90.1825 44.0377 90.5476 44.6317 90.7963L44.6337 90.7973C44.8601 90.8905 45.2173 90.951 45.6063 90.9975C46.0154 91.0463 46.5237 91.0858 47.0936 91.1166C48.2353 91.1784 49.6473 91.2071 51.0516 91.2025Z" fill="#304B73" stroke="#304B73"/>
<path d="M61.0467 101.374C66.8263 101.374 70.9701 101.356 73.7244 101.314C75.1009 101.292 76.1349 101.265 76.8543 101.231C77.2133 101.213 77.5003 101.194 77.7147 101.172C77.8215 101.161 77.9169 101.149 77.9969 101.135C78.0313 101.129 78.0726 101.121 78.116 101.11L78.2488 101.064L78.2567 101.061V101.06C79.1781 100.63 79.6865 99.7135 79.7957 98.7834C79.9051 97.8516 79.6267 96.823 78.8738 96.1144L78.8699 96.1115L78.2391 95.5285L78.0955 95.3967L77.9012 95.3957L61.4852 95.3469C53.9843 95.3226 49.8546 95.3168 47.5252 95.3625C46.3636 95.3853 45.6317 95.4211 45.1473 95.4767C44.6616 95.5326 44.3716 95.6138 44.1297 95.759L44.1219 95.7629C42.4929 96.781 42.2004 99.1519 43.5721 100.524L44.4227 101.374H61.0467Z" fill="#304B73" stroke="#304B73"/>
<path d="M47.777 111.765C50.1219 111.811 54.2272 111.804 61.6071 111.768L77.902 111.695H78.0964L78.239 111.563L78.8698 110.98L78.8737 110.977V110.976C79.6264 110.267 79.9049 109.24 79.7956 108.308C79.6864 107.378 79.178 106.461 78.2565 106.031L78.2487 106.027C78.1622 105.988 78.0657 105.969 77.9968 105.956C77.9167 105.942 77.8214 105.93 77.7145 105.919C77.5002 105.897 77.2132 105.878 76.8542 105.861C76.1348 105.826 75.1007 105.799 73.7243 105.778C70.9699 105.735 66.8262 105.717 61.0466 105.717H44.4225L43.572 106.568C42.1446 107.995 42.5199 110.461 44.3005 111.395L44.3093 111.4L44.5065 111.484C44.7184 111.56 44.9805 111.612 45.3581 111.653C45.8601 111.706 46.6071 111.742 47.777 111.765Z" fill="#304B73" stroke="#304B73"/>
</svg>
