<svg width="2447" height="326" viewBox="0 0 2447 326" fill="none" xmlns="http://www.w3.org/2000/svg">
<path d="M98.125 51.0625V100.125H49.0625H0V159V217.875H49.0625H98.125V266.938V316H157H215.875V266.938V217.875H264.938H314V159V100.125H264.938H215.875V51.0625V2H157H98.125V51.0625Z" fill="url(#paint0_radial_270_2)"/>
<path d="M262.487 140.885L234.395 136.294C232.75 130.657 230.502 125.239 227.688 120.11L244.087 96.7401C245.413 94.8532 245.185 92.2819 243.555 90.6469L225.069 72.1723C223.42 70.5277 220.824 70.3139 218.933 71.6779L195.912 88.2229C190.736 85.3616 185.269 83.0897 179.599 81.4405L174.698 53.4647C174.299 51.1928 172.326 49.5293 170.016 49.5293H143.872C141.543 49.5293 139.556 51.2166 139.181 53.517L134.637 81.3407C128.933 82.9804 123.457 85.2285 118.299 88.0518L95.3408 71.6542C93.4443 70.2996 90.8632 70.5182 89.2138 72.158L70.7375 90.6326C69.1071 92.2629 68.879 94.8295 70.2052 96.7164L86.3618 119.83C83.486 125.034 81.1949 130.543 79.5265 136.275L51.8097 140.89C49.5186 141.27 47.8359 143.257 47.8359 145.576V171.718C47.8359 174.023 49.4901 175.995 51.7574 176.399L79.4742 181.314C81.1331 187.032 83.4242 192.54 86.3095 197.759L69.9532 220.635C68.6033 222.522 68.8172 225.112 70.4571 226.761L88.9381 245.255C90.5685 246.885 93.14 247.113 95.0271 245.787L118.176 229.575C123.371 232.432 128.861 234.699 134.551 236.343L139.19 264.2C139.566 266.486 141.548 268.164 143.872 268.164H170.016C172.321 268.164 174.294 266.51 174.693 264.243L179.66 236.248C185.36 234.57 190.821 232.289 195.964 229.428L219.28 245.783C221.171 247.118 223.738 246.885 225.373 245.255L243.854 226.761C245.499 225.112 245.713 222.512 244.349 220.621L227.721 197.536C230.54 192.402 232.779 186.975 234.409 181.338L262.54 176.399C264.817 176 266.471 174.023 266.471 171.718V145.576C266.475 143.248 264.788 141.261 262.487 140.885ZM157.153 192.117C138.777 192.117 123.88 177.222 123.88 158.847C123.88 140.472 138.777 125.576 157.153 125.576C175.53 125.576 190.427 140.472 190.427 158.847C190.427 177.222 175.53 192.117 157.153 192.117Z" fill="#68B5E2"/>
<circle cx="157" cy="151.641" r="63.4746" fill="#F9F9F9"/>
<path d="M127.696 141.408L126.425 146.803C124.77 155.069 124.997 162.179 127.592 169.496C133.422 186.51 154.399 198.854 171.736 195.066L178.702 193.653L197.028 213.063L219.251 189.385L201.25 170.826L203.037 164.932C208.209 148.43 196.194 126.243 178.512 119.703C170.596 116.871 164.847 116.273 156.353 117.831L150.916 118.93L161.249 129.584L171.414 140.236L170.735 151.055L170.056 161.874L159.211 162.211L148.366 162.547L138.029 152.063L127.696 141.408Z" fill="#68B5E2"/>
<g filter="url(#filter0_d_270_2)">
<path d="M569.395 174.145C560.519 174.145 552.557 173.428 545.508 171.993C538.46 170.718 532.325 168.407 527.104 165.06C521.882 161.712 517.575 157.01 514.181 150.953C510.787 144.896 508.177 137.166 506.35 127.762C504.783 118.357 504 106.961 504 93.5716C504 77.9511 505.566 64.7214 508.699 53.8826C511.832 43.0439 516.009 34.2772 521.23 27.5827C526.712 20.7288 532.847 15.4688 539.634 11.8027C546.422 7.97726 553.47 5.42697 560.78 4.15181C568.09 2.71727 575.269 2 582.317 2C593.543 2 601.766 2.71727 606.987 4.15181C612.208 5.42697 615.602 7.1803 617.168 9.41181C618.735 11.4839 619.518 13.7154 619.518 16.1063C619.518 19.2942 618.865 22.3227 617.56 25.1918C616.255 27.9015 614.819 30.2924 613.252 32.3645C611.686 31.5675 609.859 30.9299 607.77 30.4518C605.682 29.8142 603.332 29.336 600.722 29.0172C598.372 28.539 595.762 28.3 592.89 28.3C588.452 28.3 584.145 28.8578 579.968 29.9736C575.791 30.9299 571.875 32.763 568.22 35.4727C564.565 38.1824 561.433 41.9281 558.822 46.7099C556.211 51.4917 554.123 57.5487 552.557 64.8808C550.99 72.2129 550.207 81.0592 550.207 91.4198C550.207 101.78 550.729 110.388 551.773 117.242C553.079 124.096 554.906 129.515 557.256 133.5C559.605 137.325 562.738 140.115 566.654 141.868C570.57 143.462 575.269 144.259 580.751 144.259C586.755 144.259 592.368 143.94 597.589 143.302C603.071 142.665 607.64 141.788 611.294 140.672C612.861 142.745 614.166 145.215 615.21 148.084C616.516 150.794 617.168 153.583 617.168 156.452C617.168 160.118 615.21 163.306 611.294 166.016C607.64 168.726 602.157 170.718 594.848 171.993C587.799 173.428 579.315 174.145 569.395 174.145Z" fill="url(#paint1_linear_270_2)"/>
<path d="M744.118 172.232C739.158 172.232 734.198 172.153 729.238 171.993C724.278 171.834 719.057 171.675 713.575 171.515L709.659 128.001C708.876 118.915 707.309 112.221 704.96 107.917C702.61 103.454 699.608 100.585 695.953 99.3098C692.56 98.0347 688.644 97.3971 684.206 97.3971H680.29V166.972C680.29 168.566 679.637 169.682 678.332 170.32C677.288 170.957 673.633 171.356 667.368 171.515C661.102 171.675 650.529 171.754 635.649 171.754V9.17272C635.649 7.57878 636.302 6.46302 637.607 5.82545C638.912 5.18788 642.567 4.78939 648.572 4.62999C654.837 4.4706 665.41 4.3909 680.29 4.3909V71.8144H686.164C690.08 71.8144 693.995 70.5393 697.911 67.989C701.827 65.2793 704.438 60.9756 705.743 55.0781L717.882 6.06454C723.103 5.26757 728.194 4.78939 733.154 4.62999C738.114 4.31121 742.422 4.15181 746.076 4.15181C753.908 4.15181 758.999 4.62999 761.348 5.58635C763.959 6.38332 764.872 8.13665 764.089 10.8463L748.817 59.3817C746.99 65.1199 744.118 69.822 740.203 73.488C736.287 77.1541 732.11 79.8638 727.672 81.6171C736.809 84.805 743.857 90.1447 748.817 97.6362C753.778 105.128 756.78 114.133 757.824 124.653L762.523 166.733C762.784 168.805 761.74 170.24 759.39 171.037C757.041 171.834 751.95 172.232 744.118 172.232Z" fill="url(#paint2_linear_270_2)"/>
<path d="M844.848 174.145C832.056 174.145 821.091 172.95 811.954 170.559C803.079 168.008 795.899 163.545 790.417 157.17C784.935 150.794 780.889 141.948 778.278 130.631C775.668 119.314 774.362 104.809 774.362 87.1162C774.362 65.4387 777.103 48.4632 782.586 36.1899C788.068 23.7572 796.291 14.9906 807.255 9.88998C818.481 4.62999 832.447 2 849.155 2C861.947 2 872.781 3.35485 881.657 6.06454C890.533 8.61484 897.712 13.0779 903.194 19.4536C908.676 25.67 912.592 34.1975 914.941 45.0363C917.552 55.875 918.857 69.5829 918.857 86.1598C918.857 108.634 916.247 126.247 911.026 138.999C905.804 151.75 897.712 160.836 886.747 166.255C876.044 171.515 862.077 174.145 844.848 174.145ZM847.197 146.411C853.724 146.411 858.553 144.418 861.686 140.433C865.08 136.449 867.429 130.073 868.734 121.306C870.04 112.539 870.692 101.143 870.692 87.1162C870.692 73.249 870.17 62.0914 869.126 53.6435C868.343 45.1957 866.385 39.1387 863.252 35.4727C860.12 31.6472 855.159 29.7345 848.372 29.7345C842.107 29.7345 837.277 31.8066 833.883 35.9508C830.49 39.9357 828.01 46.5505 826.443 55.7954C825.138 65.0402 824.485 77.4729 824.485 93.0935C824.485 105.526 825.007 115.648 826.052 123.458C827.096 131.268 829.184 137.086 832.317 140.912C835.711 144.578 840.671 146.411 847.197 146.411Z" fill="url(#paint3_linear_270_2)"/>
<path d="M951.429 107.2C946.991 107.2 944.381 106.722 943.598 105.765C942.814 104.809 942.423 103.056 942.423 100.505V9.17272C942.423 9.17272 942.553 8.37575 942.814 6.7818C943.075 5.18787 945.294 4.3909 949.471 4.3909H983.148C999.594 4.3909 1013.43 5.82544 1024.66 8.69453C1036.14 11.4042 1044.76 16.3454 1050.5 23.5181C1056.5 30.5315 1059.51 40.5733 1059.51 53.6435C1059.51 64.4823 1057.29 73.4083 1052.85 80.4217C1048.67 87.2756 1042.93 92.695 1035.62 96.6798C1028.57 100.505 1020.61 103.215 1011.73 104.809C1003.12 106.403 994.243 107.2 985.106 107.2H951.429ZM938.507 171.754V9.17272C938.507 7.41938 938.899 6.22393 939.682 5.58635C940.726 4.78939 942.945 4.3909 946.339 4.3909H974.533C978.449 4.3909 980.668 5.18787 981.19 6.7818C981.973 8.37575 982.365 9.17272 982.365 9.17272V166.972C982.365 168.566 981.712 169.682 980.407 170.32C979.101 170.957 975.447 171.356 969.442 171.515C963.438 171.675 953.126 171.754 938.507 171.754ZM982.365 82.5735H990.196C994.373 82.5735 997.897 81.7765 1000.77 80.1826C1003.64 78.4292 1005.86 75.2414 1007.43 70.619C1009.25 65.9965 1010.17 59.2223 1010.17 50.2963C1010.17 45.1957 1009.51 40.9717 1008.21 37.6245C1007.16 34.2772 1005.34 31.8066 1002.73 30.2127C1000.38 28.4593 997.114 27.5827 992.937 27.5827H982.365V82.5735Z" fill="url(#paint4_linear_270_2)"/>
<path d="M1078.1 172.232C1075.23 172.232 1071.18 172.153 1065.96 171.993C1060.74 171.834 1055.52 171.595 1050.3 171.276L1115.69 8.93362C1116.73 5.58636 1122.61 3.91273 1133.31 3.91273C1136.97 3.91273 1140.62 3.99242 1144.28 4.15181C1148.19 4.31121 1151.46 4.5503 1154.07 4.86909L1219.46 167.451C1219.98 169.045 1219.07 170.24 1216.72 171.037C1214.37 171.834 1208.76 172.232 1199.88 172.232C1197.01 172.232 1193.49 172.153 1189.31 171.993C1185.13 171.993 1180.17 171.914 1174.43 171.754L1145.84 87.3553C1144.54 83.0517 1143.23 78.4292 1141.93 73.488C1140.62 68.3874 1139.45 63.1275 1138.4 57.7081C1137.36 52.2887 1136.44 47.1084 1135.66 42.1672C1134.88 47.1084 1133.83 52.2887 1132.53 57.7081C1131.48 63.1275 1130.31 68.3874 1129 73.488C1127.96 78.4292 1126.65 83.0517 1125.09 87.3553L1098.07 167.211C1097.55 168.805 1096.24 170.081 1094.15 171.037C1092.33 171.834 1086.97 172.232 1078.1 172.232ZM1094.94 133.739V109.591H1183.43V133.739H1094.94Z" fill="url(#paint5_linear_270_2)"/>
<path d="M1232.1 171.754L1245.03 119.632C1246.33 114.213 1249.07 109.83 1253.25 106.483C1257.69 102.976 1263.56 99.9474 1270.87 97.3971C1263.3 94.6874 1256.77 91.2604 1251.29 87.1162C1245.81 82.8126 1241.63 77.8714 1238.76 72.2926C1236.15 66.5544 1234.85 60.3381 1234.85 53.6435C1234.85 40.5733 1237.85 30.5315 1243.85 23.5181C1250.12 16.3454 1258.99 11.4042 1270.48 8.69453C1281.97 5.82544 1295.67 4.3909 1311.6 4.3909H1348.41C1352.32 4.3909 1354.54 5.18787 1355.06 6.7818C1355.85 8.37575 1356.24 9.17272 1356.24 9.17272V171.754C1341.36 171.754 1330.91 171.675 1324.91 171.515C1318.91 171.356 1315.25 170.957 1313.95 170.32C1312.9 169.682 1312.38 168.566 1312.38 166.972V104.331H1307.68C1303.5 104.331 1299.98 105.606 1297.11 108.156C1294.24 110.706 1292.15 114.93 1290.84 120.828L1280.66 166.494C1280.14 168.726 1278.96 170.32 1277.14 171.276C1275.31 172.073 1269.83 172.471 1260.69 172.471C1257.3 172.471 1252.86 172.392 1247.38 172.232C1242.16 172.073 1237.06 171.914 1232.1 171.754ZM1304.55 79.7044C1305.85 79.7044 1307.16 79.6247 1308.46 79.4653C1309.77 79.3059 1311.07 79.0668 1312.38 78.748V28.3C1310.55 27.9812 1308.72 27.8218 1306.9 27.8218C1305.33 27.6624 1303.63 27.5827 1301.81 27.5827C1298.15 27.5827 1295.02 28.4593 1292.41 30.2127C1289.8 31.8066 1287.71 34.2772 1286.14 37.6245C1284.84 40.9717 1284.19 45.1957 1284.19 50.2963C1284.19 56.9908 1284.84 62.4899 1286.14 66.7935C1287.71 71.0971 1289.93 74.3647 1292.8 76.5962C1295.93 78.6683 1299.85 79.7044 1304.55 79.7044Z" fill="url(#paint6_linear_270_2)"/>
<path d="M1435.26 171.754V9.17272C1435.26 7.57878 1435.92 6.46302 1437.22 5.82545C1438.53 5.18788 1442.18 4.78939 1448.19 4.62999C1454.45 4.4706 1464.76 4.3909 1479.12 4.3909H1557.05V166.972C1557.05 168.566 1556.39 169.682 1555.09 170.32C1553.78 170.957 1550.13 171.356 1544.12 171.515C1538.12 171.675 1527.81 171.754 1513.19 171.754V29.4954H1479.12V166.972C1479.12 168.566 1478.47 169.682 1477.16 170.32C1475.86 170.957 1472.2 171.356 1466.2 171.515C1460.19 171.675 1449.88 171.754 1435.26 171.754Z" fill="url(#paint7_linear_270_2)"/>
<path d="M1647.52 174.145C1634.73 174.145 1623.77 172.95 1614.63 170.559C1605.75 168.008 1598.57 163.545 1593.09 157.17C1587.61 150.794 1583.56 141.948 1580.95 130.631C1578.34 119.314 1577.04 104.809 1577.04 87.1162C1577.04 65.4387 1579.78 48.4632 1585.26 36.1899C1590.74 23.7572 1598.96 14.9906 1609.93 9.88998C1621.15 4.62999 1635.12 2 1651.83 2C1664.62 2 1675.45 3.35485 1684.33 6.06454C1693.21 8.61484 1700.39 13.0779 1705.87 19.4536C1711.35 25.67 1715.27 34.1975 1717.62 45.0363C1720.23 55.875 1721.53 69.5829 1721.53 86.1598C1721.53 108.634 1718.92 126.247 1713.7 138.999C1708.48 151.75 1700.39 160.836 1689.42 166.255C1678.72 171.515 1664.75 174.145 1647.52 174.145ZM1649.87 146.411C1656.4 146.411 1661.23 144.418 1664.36 140.433C1667.75 136.449 1670.1 130.073 1671.41 121.306C1672.71 112.539 1673.37 101.143 1673.37 87.1162C1673.37 73.249 1672.84 62.0914 1671.8 53.6435C1671.02 45.1957 1669.06 39.1387 1665.93 35.4727C1662.79 31.6472 1657.83 29.7345 1651.05 29.7345C1644.78 29.7345 1639.95 31.8066 1636.56 35.9508C1633.16 39.9357 1630.68 46.5505 1629.12 55.7954C1627.81 65.0402 1627.16 77.4729 1627.16 93.0935C1627.16 105.526 1627.68 115.648 1628.73 123.458C1629.77 131.268 1631.86 137.086 1634.99 140.912C1638.38 144.578 1643.34 146.411 1649.87 146.411Z" fill="url(#paint8_linear_270_2)"/>
<path d="M1810.88 131.826L1792.48 98.3535C1791.43 96.4407 1790 93.5716 1788.17 89.7462C1786.6 85.7614 1784.78 81.2983 1782.69 76.3571C1780.6 71.4159 1778.51 66.4747 1776.42 61.5335C1774.34 56.4329 1772.38 51.7308 1770.55 47.4272C1768.98 43.1236 1767.68 39.6966 1766.63 37.1463C1765.59 34.4366 1765.07 33.0818 1765.07 33.0818L1782.3 4.3909L1813.23 63.2072C1815.32 66.8732 1817.02 70.2205 1818.32 73.2489C1819.63 76.2774 1820.67 78.8277 1821.46 80.8998C1822.24 82.972 1822.76 84.5659 1823.02 85.6817C1823.54 86.7974 1823.81 87.3553 1823.81 87.3553C1823.81 87.3553 1823.94 86.7974 1824.2 85.6817C1824.46 84.5659 1824.98 82.972 1825.76 80.8998C1826.55 78.6683 1827.46 76.118 1828.5 73.2489C1829.81 70.3799 1831.38 67.192 1833.2 63.6853L1859.83 9.17272L1880.19 33.5599C1880.19 33.5599 1879.67 34.8351 1878.63 37.3854C1877.58 39.9357 1876.15 43.3626 1874.32 47.6663C1872.75 51.8105 1870.93 56.4329 1868.84 61.5335C1866.75 66.4747 1864.53 71.4159 1862.18 76.3571C1860.09 81.1389 1858.13 85.5223 1856.31 89.5071C1854.74 93.3326 1853.3 96.2813 1852 98.3535L1833.2 130.152C1832.68 131.268 1831.25 131.826 1828.9 131.826H1810.88ZM1741.18 171.754V9.17272C1741.18 6.78181 1741.96 5.42696 1743.53 5.10818C1745.1 4.62999 1746.92 4.3909 1749.01 4.3909H1782.3L1784.65 49.8181L1772.12 54.839C1772.12 54.839 1772.38 55.7157 1772.9 57.469C1773.42 59.0629 1774.07 61.4538 1774.86 64.6417C1775.64 67.6702 1776.42 71.4159 1777.21 75.8789C1778.25 80.1826 1779.16 84.9644 1779.95 90.2244C1780.99 95.4844 1781.78 101.143 1782.3 107.2C1783.08 113.257 1783.47 119.553 1783.47 126.088L1784.65 166.972C1784.65 168.566 1783.86 169.682 1782.3 170.32C1780.73 170.957 1776.82 171.356 1770.55 171.515C1764.55 171.675 1754.76 171.754 1741.18 171.754ZM1859.44 171.754L1861.4 126.327C1861.66 119.792 1862.05 113.576 1862.57 107.678C1863.36 101.621 1864.14 95.9625 1864.92 90.7026C1865.97 85.2832 1866.88 80.4217 1867.66 76.118C1868.45 71.655 1869.23 67.9093 1870.01 64.8808C1870.8 61.6929 1871.45 59.2223 1871.97 57.469C1872.49 55.7157 1872.75 54.839 1872.75 54.839L1859.83 49.3399V9.17272C1860.88 7.41938 1861.79 6.22393 1862.57 5.58635C1863.62 4.78939 1865.31 4.3909 1867.66 4.3909C1879.93 4.3909 1888.55 4.3909 1893.51 4.3909C1898.73 4.3909 1901.86 4.3909 1902.91 4.3909C1903.95 4.3909 1904.47 4.3909 1904.47 4.3909V166.972C1904.47 168.566 1903.82 169.682 1902.51 170.32C1901.21 170.957 1897.42 171.356 1891.16 171.515C1885.15 171.675 1874.58 171.754 1859.44 171.754Z" fill="url(#paint9_linear_270_2)"/>
<path d="M1994.37 174.145C1981.57 174.145 1970.61 172.95 1961.47 170.559C1952.6 168.008 1945.42 163.545 1939.93 157.17C1934.45 150.794 1930.41 141.948 1927.8 130.631C1925.19 119.314 1923.88 104.809 1923.88 87.1162C1923.88 65.4387 1926.62 48.4632 1932.1 36.1899C1937.59 23.7572 1945.81 14.9906 1956.77 9.88998C1968 4.62999 1981.97 2 1998.67 2C2011.46 2 2022.3 3.35485 2031.17 6.06454C2040.05 8.61484 2047.23 13.0779 2052.71 19.4536C2058.19 25.67 2062.11 34.1975 2064.46 45.0363C2067.07 55.875 2068.38 69.5829 2068.38 86.1598C2068.38 108.634 2065.76 126.247 2060.54 138.999C2055.32 151.75 2047.23 160.836 2036.26 166.255C2025.56 171.515 2011.6 174.145 1994.37 174.145ZM1996.71 146.411C2003.24 146.411 2008.07 144.418 2011.2 140.433C2014.6 136.449 2016.95 130.073 2018.25 121.306C2019.56 112.539 2020.21 101.143 2020.21 87.1162C2020.21 73.249 2019.69 62.0914 2018.64 53.6435C2017.86 45.1957 2015.9 39.1387 2012.77 35.4727C2009.64 31.6472 2004.68 29.7345 1997.89 29.7345C1991.62 29.7345 1986.79 31.8066 1983.4 35.9508C1980.01 39.9357 1977.53 46.5505 1975.96 55.7954C1974.66 65.0402 1974 77.4729 1974 93.0935C1974 105.526 1974.53 115.648 1975.57 123.458C1976.61 131.268 1978.7 137.086 1981.83 140.912C1985.23 144.578 1990.19 146.411 1996.71 146.411Z" fill="url(#paint10_linear_270_2)"/>
<path d="M2271.29 209.291C2268.68 202.916 2266.2 196.779 2263.85 190.881C2261.5 185.143 2259.93 178.768 2259.15 171.754H2088.42V9.17272C2088.42 7.57878 2088.94 6.46302 2089.98 5.82545C2091.03 5.18788 2094.55 4.78939 2100.56 4.62999C2106.82 4.4706 2117.39 4.3909 2132.27 4.3909V146.65H2161.25V9.17272C2161.25 7.57878 2161.77 6.46302 2162.82 5.82545C2164.12 5.18788 2167.78 4.78939 2173.78 4.62999C2179.79 4.4706 2190.23 4.3909 2205.11 4.3909V146.65H2234.09V9.17272C2234.09 7.57878 2234.61 6.46302 2235.65 5.82545C2236.96 5.18788 2240.61 4.78939 2246.62 4.62999C2252.62 4.4706 2263.06 4.3909 2277.94 4.3909V146.65H2297.52V201.641C2297.52 204.988 2295.83 207.06 2292.43 207.857C2289.3 208.813 2282.25 209.291 2271.29 209.291Z" fill="url(#paint11_linear_270_2)"/>
<path d="M2315.57 171.754V9.17272C2315.57 7.57878 2316.09 6.46302 2317.13 5.82545C2318.18 5.18788 2321.7 4.78939 2327.71 4.62999C2333.97 4.4706 2344.54 4.3909 2359.42 4.3909V70.1408H2370.78C2394.28 70.1408 2410.85 73.6474 2420.51 80.6608C2430.17 87.6741 2435 98.6722 2435 113.655C2435 132.782 2428.6 147.287 2415.81 157.17C2403.28 166.893 2387.36 171.754 2368.04 171.754H2315.57ZM2367.65 148.323C2371.56 148.323 2374.57 147.447 2376.65 145.693C2379 143.94 2380.57 140.752 2381.35 136.13C2382.4 131.507 2382.92 124.892 2382.92 116.285C2382.92 107.678 2382.14 102.02 2380.57 99.3098C2379 96.6001 2374.96 95.2453 2368.43 95.2453H2359.42V147.845C2360.21 148.005 2360.86 148.164 2361.38 148.323C2362.17 148.323 2363.08 148.323 2364.12 148.323C2365.17 148.323 2366.34 148.323 2367.65 148.323Z" fill="url(#paint12_linear_270_2)"/>
<path d="M547.074 292.198C538.661 292.198 531.202 290.998 524.696 288.598C518.302 286.129 513.254 282.769 509.552 278.518C505.851 274.197 504 269.26 504 263.705C504 258.082 505.963 253.145 509.889 248.893C513.927 244.573 519.424 241.213 526.378 238.813C533.333 236.344 541.353 235.11 550.439 235.11C559.413 235.11 567.377 236.344 574.331 238.813C581.286 241.213 586.726 244.573 590.652 248.893C594.691 253.145 596.71 258.082 596.71 263.705H586.782C586.782 269.26 585.044 274.197 581.567 278.518C578.201 282.769 573.546 286.129 567.601 288.598C561.656 290.998 554.814 292.198 547.074 292.198ZM550.102 315.137C542.138 315.137 534.679 314.176 527.724 312.256C520.77 310.336 514.881 307.525 510.057 303.822C508.599 302.656 508.038 301.456 508.375 300.222C508.823 298.987 509.945 297.993 511.74 297.239C513.759 296.416 515.834 296.141 517.965 296.416C520.209 296.69 522.004 297.376 523.35 298.473C526.378 300.804 530.192 302.622 534.791 303.925C539.39 305.227 544.606 305.879 550.439 305.879C555.823 305.879 560.759 305.09 565.246 303.513C569.845 301.936 573.49 299.604 576.182 296.518C578.874 293.433 580.22 289.661 580.22 285.204V270.597L585.773 261.545L596.71 263.705V285.924C596.71 291.341 594.747 296.244 590.821 300.633C586.895 305.09 581.398 308.622 574.331 311.228C567.377 313.834 559.3 315.137 550.102 315.137ZM550.439 282.941C556.272 282.941 561.432 282.118 565.919 280.472C570.405 278.826 573.883 276.563 576.351 273.683C578.93 270.803 580.22 267.477 580.22 263.705C580.22 259.934 578.93 256.608 576.351 253.728C573.883 250.779 570.405 248.482 565.919 246.836C561.432 245.19 556.272 244.367 550.439 244.367C544.606 244.367 539.446 245.19 534.959 246.836C530.472 248.482 526.939 250.779 524.359 253.728C521.779 256.608 520.489 259.934 520.489 263.705C520.489 267.477 521.779 270.803 524.359 273.683C526.939 276.563 530.472 278.826 534.959 280.472C539.446 282.118 544.606 282.941 550.439 282.941Z" fill="url(#paint13_linear_270_2)"/>
<path d="M648.332 235.624C650.014 235.624 651.529 235.898 652.875 236.447C654.221 236.995 655.286 237.853 656.072 239.018L690.733 284.998C691.742 286.369 691.854 287.604 691.069 288.701C690.284 289.73 688.938 290.518 687.031 291.067C684.563 291.753 682.432 291.924 680.637 291.581C678.842 291.238 677.328 290.381 676.094 289.01L644.462 245.087H653.043L620.401 289.01C619.392 290.312 617.877 291.17 615.858 291.581C613.951 291.924 611.82 291.753 609.464 291.067C607.333 290.45 605.819 289.627 604.921 288.598C604.136 287.569 604.304 286.369 605.426 284.998L640.255 239.018C641.938 236.755 644.63 235.624 648.332 235.624Z" fill="url(#paint14_linear_270_2)"/>
<path d="M762.396 291.787C760.04 291.787 758.077 291.307 756.507 290.347C754.936 289.318 754.151 288.049 754.151 286.541V272.963H730.427V271.626C724.482 271.626 719.21 270.906 714.611 269.466C710.012 268.026 706.422 266.037 703.842 263.5C701.262 260.962 699.972 258.014 699.972 254.654C699.972 251.019 701.374 247.762 704.179 244.882C707.095 242.001 711.021 239.738 715.957 238.093C721.004 236.378 726.781 235.521 733.287 235.521H762.396C764.976 235.521 767.051 236.001 768.621 236.961C770.191 237.921 770.977 239.19 770.977 240.767V286.644C770.865 288.152 770.023 289.387 768.453 290.347C766.995 291.307 764.976 291.787 762.396 291.787ZM702.664 290.552C700.87 289.592 700.028 288.529 700.14 287.364C700.253 286.198 700.926 285.135 702.16 284.175L722.687 267.82H745.065L716.293 289.73C714.386 291.238 712.031 291.958 709.226 291.89C706.422 291.821 704.235 291.375 702.664 290.552ZM733.287 264.323H754.151V245.293H733.287C728.8 245.293 724.874 246.185 721.509 247.967C718.144 249.682 716.461 251.911 716.461 254.654C716.461 257.534 718.144 259.865 721.509 261.648C724.874 263.431 728.8 264.323 733.287 264.323Z" fill="url(#paint15_linear_270_2)"/>
<path d="M842.337 291.787C839.87 291.787 837.794 291.307 836.112 290.347C834.542 289.318 833.756 288.049 833.756 286.541V240.664C833.981 239.156 834.878 237.921 836.448 236.961C838.019 236.001 839.982 235.521 842.337 235.521C844.917 235.521 846.993 236.001 848.563 236.961C850.133 237.921 850.919 239.19 850.919 240.767V258.459H883.56V260.517C889.73 260.517 895.17 261.168 899.881 262.471C904.705 263.774 908.462 265.591 911.155 267.923C913.847 270.186 915.193 272.826 915.193 275.843C915.193 278.929 913.847 281.672 911.155 284.072C908.462 286.472 904.705 288.358 899.881 289.73C895.17 291.101 889.73 291.787 883.56 291.787H842.337ZM850.919 282.015H883.56C888.047 282.015 891.693 281.363 894.497 280.061C897.301 278.689 898.704 276.94 898.704 274.815C898.704 272.552 897.301 270.7 894.497 269.26C891.693 267.82 888.047 267.1 883.56 267.1H850.919V282.015ZM870.268 264.014V258.459H886.253C889.057 258.459 891.356 257.808 893.151 256.505C894.946 255.134 895.843 253.419 895.843 251.362C895.843 249.579 894.778 248.105 892.646 246.939C890.515 245.773 887.823 245.19 884.57 245.19H842.506V235.521H884.57C889.842 235.521 894.497 236.173 898.535 237.476C902.686 238.71 905.939 240.459 908.294 242.721C910.65 244.916 911.828 247.453 911.828 250.333C911.828 254.311 909.36 257.602 904.424 260.208C899.601 262.745 893.544 264.014 886.253 264.014H870.268Z" fill="url(#paint16_linear_270_2)"/>
<path d="M966.238 292.198C958.049 292.198 950.702 290.964 944.196 288.495C937.69 285.958 932.53 282.563 928.716 278.312C925.015 273.992 923.164 269.123 923.164 263.705C923.164 258.288 925.183 253.419 929.221 249.099C933.372 244.779 938.924 241.384 945.879 238.916C952.945 236.378 960.854 235.11 969.603 235.11C978.352 235.11 986.204 236.378 993.159 238.916C1000.11 241.384 1005.61 244.779 1009.65 249.099C1013.8 253.419 1015.87 258.288 1015.87 263.705H1009.31C1009.31 269.123 1007.4 273.992 1003.59 278.312C999.889 282.563 994.785 285.958 988.279 288.495C981.773 290.964 974.426 292.198 966.238 292.198ZM969.603 282.941C975.324 282.941 980.427 282.118 984.914 280.472C989.401 278.758 992.935 276.46 995.514 273.58C998.094 270.631 999.384 267.34 999.384 263.705C999.384 260.002 998.094 256.711 995.514 253.831C992.935 250.882 989.401 248.585 984.914 246.939C980.427 245.224 975.324 244.367 969.603 244.367C963.994 244.367 958.891 245.224 954.291 246.939C949.805 248.585 946.215 250.882 943.523 253.831C940.943 256.711 939.653 260.002 939.653 263.705C939.653 267.34 940.943 270.631 943.523 273.58C946.215 276.46 949.805 278.758 954.291 280.472C958.891 282.118 963.994 282.941 969.603 282.941ZM1007.29 291.89C1004.82 291.89 1002.75 291.41 1001.07 290.45C999.497 289.421 998.711 288.152 998.711 286.644V270.906L1001.91 260.002L1015.87 263.705V286.644C1015.87 288.152 1015.03 289.421 1013.35 290.45C1011.78 291.41 1009.76 291.89 1007.29 291.89Z" fill="url(#paint17_linear_270_2)"/>
<path d="M1119.82 292.404C1113.43 292.404 1107.77 291.547 1102.83 289.832C1097.89 288.118 1094.02 285.615 1091.22 282.323C1088.53 278.963 1087.18 274.917 1087.18 270.186V240.767C1087.18 239.19 1087.97 237.921 1089.54 236.961C1091.22 236.001 1093.3 235.521 1095.76 235.521C1098.34 235.521 1100.42 236.001 1101.99 236.961C1103.56 237.921 1104.34 239.19 1104.34 240.767V270.186C1104.34 273.066 1105.13 275.466 1106.7 277.386C1108.27 279.238 1110.46 280.643 1113.26 281.603C1116.18 282.495 1119.49 282.941 1123.19 282.941C1129.13 282.941 1133.96 281.706 1137.66 279.238C1141.47 276.769 1143.38 273.649 1143.38 269.877H1150.61C1150.61 274.266 1149.27 278.175 1146.58 281.603C1144 284.964 1140.41 287.604 1135.81 289.524C1131.21 291.444 1125.88 292.404 1119.82 292.404ZM1063.79 292.404C1057.4 292.404 1051.74 291.547 1046.8 289.832C1041.98 288.118 1038.16 285.615 1035.36 282.323C1032.55 278.963 1031.15 274.917 1031.15 270.186V240.767C1031.15 239.19 1031.94 237.921 1033.51 236.961C1035.19 236.001 1037.27 235.521 1039.73 235.521C1042.31 235.521 1044.39 236.001 1045.96 236.961C1047.53 237.921 1048.31 239.19 1048.31 240.767V270.186C1048.31 273.066 1049.1 275.466 1050.67 277.386C1052.35 279.238 1054.6 280.643 1057.4 281.603C1060.2 282.495 1063.46 282.941 1067.16 282.941C1073.1 282.941 1077.93 281.706 1081.63 279.238C1085.33 276.769 1087.18 273.649 1087.18 269.877H1094.42C1094.42 274.266 1093.13 278.175 1090.55 281.603C1087.97 284.964 1084.38 287.604 1079.78 289.524C1075.18 291.444 1069.85 292.404 1063.79 292.404ZM1151.96 291.787C1149.49 291.787 1147.42 291.307 1145.74 290.347C1144.16 289.318 1143.38 288.049 1143.38 286.541V240.767C1143.38 239.19 1144.16 237.921 1145.74 236.961C1147.42 236.001 1149.49 235.521 1151.96 235.521C1154.54 235.521 1156.62 236.001 1158.19 236.961C1159.76 237.921 1160.54 239.19 1160.54 240.767V286.541C1160.54 288.049 1159.76 289.318 1158.19 290.347C1156.62 291.307 1154.54 291.787 1151.96 291.787Z" fill="url(#paint18_linear_270_2)"/>
<path d="M1225.74 292.198C1216.43 292.198 1208.13 290.998 1200.84 288.598C1193.66 286.129 1187.99 282.769 1183.84 278.518C1179.8 274.197 1177.78 269.26 1177.78 263.705C1177.78 258.082 1179.69 253.145 1183.5 248.893C1187.43 244.573 1192.82 241.213 1199.66 238.813C1206.5 236.344 1214.35 235.11 1223.21 235.11C1231.96 235.11 1239.48 236.31 1245.76 238.71C1252.04 241.041 1256.81 244.299 1260.06 248.482C1263.43 252.596 1265.11 257.362 1265.11 262.78C1265.11 264.083 1264.38 265.18 1262.92 266.071C1261.46 266.894 1259.61 267.306 1257.37 267.306H1189.56V259.077H1256.87L1249.97 261.957C1249.85 258.528 1248.73 255.476 1246.6 252.802C1244.47 250.059 1241.44 247.899 1237.52 246.322C1233.59 244.744 1228.82 243.956 1223.21 243.956C1216.82 243.956 1211.32 244.813 1206.72 246.527C1202.24 248.242 1198.82 250.608 1196.46 253.625C1194.11 256.574 1192.93 259.934 1192.93 263.705C1192.93 267.477 1194.33 270.837 1197.13 273.786C1199.94 276.735 1203.81 279.066 1208.74 280.781C1213.68 282.495 1219.34 283.352 1225.74 283.352C1229.21 283.352 1232.75 282.975 1236.34 282.221C1240.04 281.398 1243.01 280.472 1245.26 279.443C1246.94 278.689 1248.73 278.312 1250.64 278.312C1252.66 278.243 1254.4 278.586 1255.86 279.34C1257.76 280.369 1258.77 281.501 1258.88 282.735C1259 283.969 1258.1 285.032 1256.19 285.924C1252.38 287.775 1247.61 289.284 1241.89 290.45C1236.28 291.615 1230.9 292.198 1225.74 292.198Z" fill="url(#paint19_linear_270_2)"/>
<path d="M1317.29 292.301C1309.55 292.301 1302.59 291.307 1296.42 289.318C1290.36 287.261 1285.54 284.278 1281.95 280.369C1278.47 276.46 1276.74 271.66 1276.74 265.968V240.664C1276.74 239.156 1277.52 237.921 1279.09 236.961C1280.77 235.933 1282.85 235.418 1285.32 235.418C1287.78 235.418 1289.8 235.933 1291.37 236.961C1293.06 237.921 1293.9 239.156 1293.9 240.664V265.968C1293.9 269.809 1295.08 272.997 1297.43 275.535C1299.79 278.003 1302.98 279.855 1307.02 281.089C1311.06 282.255 1315.6 282.838 1320.65 282.838C1325.47 282.838 1329.74 282.255 1333.44 281.089C1337.25 279.923 1340.28 278.346 1342.52 276.357C1344.77 274.369 1345.89 272.14 1345.89 269.671H1356.49C1356.49 273.923 1354.75 277.763 1351.27 281.192C1347.91 284.621 1343.25 287.329 1337.31 289.318C1331.47 291.307 1324.8 292.301 1317.29 292.301ZM1354.47 291.787C1352 291.787 1349.93 291.307 1348.24 290.347C1346.67 289.318 1345.89 288.049 1345.89 286.541V240.664C1345.89 239.087 1346.67 237.818 1348.24 236.858C1349.93 235.898 1352 235.418 1354.47 235.418C1357.05 235.418 1359.12 235.898 1360.7 236.858C1362.27 237.818 1363.05 239.087 1363.05 240.664V286.541C1363.05 288.049 1362.27 289.318 1360.7 290.347C1359.12 291.307 1357.05 291.787 1354.47 291.787ZM1320.82 228.115C1315.1 228.115 1309.94 227.532 1305.34 226.366C1300.74 225.132 1297.09 223.486 1294.4 221.429C1291.71 219.303 1290.36 216.937 1290.36 214.332C1290.36 212.891 1291.09 211.691 1292.55 210.731C1294.01 209.771 1295.8 209.291 1297.94 209.291C1300.18 209.291 1301.97 209.771 1303.32 210.731C1304.78 211.691 1305.51 212.891 1305.51 214.332C1305.51 216.046 1306.97 217.52 1309.88 218.755C1312.8 219.92 1316.44 220.503 1320.82 220.503C1325.19 220.503 1328.84 219.92 1331.76 218.755C1334.67 217.52 1336.13 216.046 1336.13 214.332C1336.13 212.891 1336.86 211.691 1338.32 210.731C1339.78 209.771 1341.57 209.291 1343.7 209.291C1345.94 209.291 1347.74 209.771 1349.09 210.731C1350.54 211.691 1351.27 212.891 1351.27 214.332C1351.27 216.937 1349.93 219.303 1347.23 221.429C1344.54 223.486 1340.9 225.132 1336.3 226.366C1331.81 227.532 1326.65 228.115 1320.82 228.115Z" fill="url(#paint20_linear_270_2)"/>
<path d="M1467.47 292.198C1458.39 292.198 1450.37 290.998 1443.41 288.598C1436.46 286.129 1430.96 282.769 1426.92 278.518C1423 274.197 1421.03 269.26 1421.03 263.705C1421.03 258.082 1423 253.145 1426.92 248.893C1430.96 244.573 1436.46 241.213 1443.41 238.813C1450.37 236.344 1458.39 235.11 1467.47 235.11C1476.45 235.11 1484.41 236.344 1491.37 238.813C1498.32 241.213 1503.76 244.573 1507.69 248.893C1511.72 253.145 1513.74 258.082 1513.74 263.705C1513.74 269.26 1511.78 274.197 1507.85 278.518C1503.93 282.769 1498.49 286.129 1491.53 288.598C1484.58 290.998 1476.56 292.198 1467.47 292.198ZM1467.47 282.941C1473.31 282.941 1478.47 282.118 1482.95 280.472C1487.44 278.826 1490.92 276.563 1493.38 273.683C1495.96 270.803 1497.25 267.477 1497.25 263.705C1497.25 259.934 1495.96 256.608 1493.38 253.728C1490.92 250.779 1487.44 248.482 1482.95 246.836C1478.47 245.19 1473.31 244.367 1467.47 244.367C1461.64 244.367 1456.48 245.19 1451.99 246.836C1447.51 248.482 1443.97 250.779 1441.39 253.728C1438.81 256.608 1437.52 259.934 1437.52 263.705C1437.52 267.477 1438.81 270.803 1441.39 273.683C1443.97 276.563 1447.51 278.826 1451.99 280.472C1456.48 282.118 1461.64 282.941 1467.47 282.941Z" fill="url(#paint21_linear_270_2)"/>
<path d="M1539.45 315.857C1536.99 315.857 1534.91 315.342 1533.23 314.314C1531.66 313.354 1530.87 312.119 1530.87 310.611V263.705C1530.99 258.288 1533.06 253.419 1537.1 249.099C1541.14 244.779 1546.63 241.384 1553.59 238.916C1560.54 236.378 1568.39 235.11 1577.14 235.11C1586.01 235.11 1593.91 236.378 1600.87 238.916C1607.82 241.384 1613.32 244.779 1617.36 249.099C1621.51 253.419 1623.58 258.288 1623.58 263.705C1623.58 269.123 1621.68 273.992 1617.86 278.312C1614.16 282.563 1609.06 285.958 1602.55 288.495C1596.04 290.964 1588.7 292.198 1580.51 292.198C1573.89 292.198 1567.78 291.375 1562.17 289.73C1556.67 288.015 1551.96 285.718 1548.04 282.838V310.611C1548.04 312.119 1547.25 313.354 1545.68 314.314C1544.11 315.342 1542.03 315.857 1539.45 315.857ZM1577.14 282.941C1582.86 282.941 1587.97 282.118 1592.46 280.472C1596.94 278.758 1600.48 276.46 1603.06 273.58C1605.75 270.631 1607.09 267.34 1607.09 263.705C1607.09 260.002 1605.75 256.711 1603.06 253.831C1600.48 250.882 1596.94 248.585 1592.46 246.939C1587.97 245.224 1582.86 244.367 1577.14 244.367C1571.54 244.367 1566.43 245.224 1561.83 246.939C1557.35 248.585 1553.81 250.882 1551.23 253.831C1548.65 256.711 1547.36 260.002 1547.36 263.705C1547.36 267.34 1548.65 270.631 1551.23 273.58C1553.81 276.46 1557.35 278.758 1561.83 280.472C1566.43 282.118 1571.54 282.941 1577.14 282.941Z" fill="url(#paint22_linear_270_2)"/>
<path d="M1669.2 292.198C1662.13 292.198 1655.8 291.547 1650.19 290.244C1644.69 288.872 1640.32 286.987 1637.06 284.586C1633.92 282.186 1632.35 279.443 1632.35 276.357C1632.35 273.272 1633.76 270.631 1636.56 268.437C1639.48 266.243 1643.63 264.391 1649.01 262.883C1654.51 261.374 1661.07 260.174 1668.7 259.282C1676.32 258.322 1681.48 257.191 1684.18 255.888C1686.87 254.516 1688.21 252.768 1688.21 250.642C1688.21 248.447 1686.42 246.836 1682.83 245.807C1679.24 244.71 1675.09 244.162 1670.38 244.162C1666.45 244.162 1662.53 244.539 1658.6 245.293C1654.79 246.047 1651.59 247.145 1649.01 248.585C1647.33 249.545 1645.48 250.196 1643.46 250.539C1641.44 250.882 1639.81 250.813 1638.58 250.333C1636.45 249.51 1635.1 248.447 1634.54 247.145C1634.09 245.842 1634.6 244.642 1636.05 243.544C1639.42 241.007 1644.13 238.984 1650.19 237.476C1656.36 235.898 1663.14 235.11 1670.55 235.11C1676.83 235.11 1682.55 235.727 1687.71 236.961C1692.87 238.127 1696.96 239.876 1699.99 242.207C1703.13 244.539 1704.7 247.419 1704.7 250.848C1704.7 254.825 1702.07 258.185 1696.8 260.928C1691.52 263.603 1683.5 265.66 1672.73 267.1C1663.87 268.197 1657.76 269.5 1654.39 271.009C1651.03 272.449 1649.4 274.197 1649.52 276.255C1649.63 278.38 1651.31 280.026 1654.56 281.192C1657.82 282.358 1662.7 282.941 1669.2 282.941C1675.03 282.941 1679.97 282.598 1684.01 281.912C1688.16 281.158 1691.41 280.026 1693.77 278.518C1695.34 277.489 1697.13 276.803 1699.15 276.46C1701.17 276.117 1703.25 276.495 1705.38 277.592C1707.28 278.552 1708.24 279.649 1708.24 280.883C1708.24 282.118 1707.4 283.284 1705.71 284.381C1702.01 286.644 1696.85 288.529 1690.23 290.038C1683.62 291.478 1676.6 292.198 1669.2 292.198Z" fill="url(#paint23_linear_270_2)"/>
<path d="M1841.73 291.89C1839.26 291.89 1837.18 291.41 1835.5 290.45C1833.93 289.421 1833.15 288.152 1833.15 286.644V257.225C1833.15 252.905 1831.41 249.716 1827.93 247.659C1824.45 245.533 1819.91 244.47 1814.3 244.47C1808.47 244.47 1803.64 245.705 1799.83 248.173C1796.13 250.642 1794.28 253.796 1794.28 257.637H1780.31C1780.31 253.179 1781.88 249.27 1785.02 245.91C1788.16 242.481 1792.54 239.807 1798.15 237.887C1803.87 235.967 1810.37 235.007 1817.67 235.007C1824.06 235.007 1829.72 235.864 1834.66 237.578C1839.6 239.293 1843.41 241.83 1846.1 245.19C1848.91 248.482 1850.31 252.493 1850.31 257.225V286.644C1850.31 288.152 1849.52 289.421 1847.95 290.45C1846.38 291.41 1844.31 291.89 1841.73 291.89ZM1729.5 291.89C1727.03 291.89 1724.96 291.41 1723.27 290.45C1721.7 289.421 1720.92 288.152 1720.92 286.644V240.87C1720.92 239.293 1721.7 238.024 1723.27 237.064C1724.96 236.104 1727.03 235.624 1729.5 235.624C1732.08 235.624 1734.15 236.104 1735.72 237.064C1737.3 238.024 1738.08 239.293 1738.08 240.87V286.644C1738.08 288.152 1737.3 289.421 1735.72 290.45C1734.15 291.41 1732.08 291.89 1729.5 291.89ZM1785.7 291.89C1783.23 291.89 1781.15 291.41 1779.47 290.45C1777.9 289.421 1777.12 288.152 1777.12 286.644V257.225C1777.12 252.905 1775.38 249.716 1771.9 247.659C1768.42 245.533 1763.88 244.47 1758.27 244.47C1752.44 244.47 1747.61 245.705 1743.8 248.173C1739.99 250.642 1738.08 253.796 1738.08 257.637H1727.48C1727.48 253.179 1728.94 249.27 1731.85 245.91C1734.77 242.481 1738.81 239.807 1743.97 237.887C1749.13 235.967 1755.02 235.007 1761.64 235.007C1768.03 235.007 1773.69 235.864 1778.63 237.578C1783.57 239.293 1787.38 241.83 1790.07 245.19C1792.88 248.482 1794.28 252.493 1794.28 257.225V286.644C1794.28 288.152 1793.49 289.421 1791.92 290.45C1790.35 291.41 1788.28 291.89 1785.7 291.89Z" fill="url(#paint24_linear_270_2)"/>
<path d="M1913.65 292.198C1904.34 292.198 1896.04 290.998 1888.75 288.598C1881.57 286.129 1875.91 282.769 1871.76 278.518C1867.72 274.197 1865.7 269.26 1865.7 263.705C1865.7 258.082 1867.61 253.145 1871.42 248.893C1875.35 244.573 1880.73 241.213 1887.57 238.813C1894.42 236.344 1902.27 235.11 1911.13 235.11C1919.88 235.11 1927.39 236.31 1933.68 238.71C1939.96 241.041 1944.72 244.299 1947.98 248.482C1951.34 252.596 1953.02 257.362 1953.02 262.78C1953.02 264.083 1952.3 265.18 1950.84 266.071C1949.38 266.894 1947.53 267.306 1945.29 267.306H1877.48V259.077H1944.78L1937.88 261.957C1937.77 258.528 1936.65 255.476 1934.52 252.802C1932.39 250.059 1929.36 247.899 1925.43 246.322C1921.5 244.744 1916.74 243.956 1911.13 243.956C1904.74 243.956 1899.24 244.813 1894.64 246.527C1890.15 248.242 1886.73 250.608 1884.38 253.625C1882.02 256.574 1880.84 259.934 1880.84 263.705C1880.84 267.477 1882.24 270.837 1885.05 273.786C1887.85 276.735 1891.72 279.066 1896.66 280.781C1901.59 282.495 1907.26 283.352 1913.65 283.352C1917.13 283.352 1920.66 282.975 1924.25 282.221C1927.95 281.398 1930.93 280.472 1933.17 279.443C1934.85 278.689 1936.65 278.312 1938.55 278.312C1940.57 278.243 1942.31 278.586 1943.77 279.34C1945.68 280.369 1946.69 281.501 1946.8 282.735C1946.91 283.969 1946.01 285.032 1944.11 285.924C1940.29 287.775 1935.53 289.284 1929.81 290.45C1924.2 291.615 1918.81 292.198 1913.65 292.198Z" fill="url(#paint25_linear_270_2)"/>
<path d="M2026.02 291.787C2024.9 291.787 2023.83 291.684 2022.82 291.478C2021.81 291.272 2020.86 290.827 2019.96 290.141L1990.52 268.54L1984.46 264.837L1955.18 243.647C1953.72 242.55 1952.94 241.384 1952.83 240.15C1952.71 238.847 1953.28 237.75 1954.51 236.858C1955.74 235.967 1957.59 235.521 1960.06 235.521C1962.75 235.521 1964.88 236.104 1966.46 237.27L1995.23 258.254L1999.6 260.722L2031.23 283.866C2032.92 285.101 2033.7 286.335 2033.59 287.569C2033.59 288.735 2032.86 289.73 2031.4 290.552C2030.06 291.375 2028.26 291.787 2026.02 291.787ZM1961.74 291.787C1959.5 291.787 1957.71 291.375 1956.36 290.552C1955.13 289.661 1954.51 288.598 1954.51 287.364C1954.51 286.129 1955.29 284.895 1956.86 283.661L1985.47 261.751L1994.55 269.569L1967.8 290.141C1966.12 291.238 1964.1 291.787 1961.74 291.787ZM2003.3 265.351L1991.69 259.282L2018.78 237.27C2019.68 236.584 2020.63 236.138 2021.64 235.933C2022.65 235.658 2023.77 235.521 2025.01 235.521C2027.48 235.521 2029.33 236.001 2030.56 236.961C2031.8 237.853 2032.36 238.95 2032.24 240.253C2032.24 241.556 2031.46 242.824 2029.89 244.059L2003.3 265.351Z" fill="url(#paint26_linear_270_2)"/>
<path d="M2124.05 291.787C2121.58 291.787 2119.51 291.307 2117.83 290.347C2116.26 289.318 2115.47 288.049 2115.47 286.541V240.767C2115.47 239.19 2116.26 237.921 2117.83 236.961C2119.51 236.001 2121.58 235.521 2124.05 235.521C2126.63 235.521 2128.65 236.001 2130.11 236.961C2131.57 237.921 2132.3 239.19 2132.3 240.767V286.541C2132.3 288.049 2131.57 289.318 2130.11 290.347C2128.65 291.307 2126.63 291.787 2124.05 291.787ZM2054.9 291.787C2052.43 291.787 2050.41 291.307 2048.84 290.347C2047.38 289.318 2046.65 288.049 2046.65 286.541V240.767C2046.65 239.19 2047.38 237.921 2048.84 236.961C2050.41 236.001 2052.43 235.521 2054.9 235.521C2057.48 235.521 2059.55 236.001 2061.12 236.961C2062.69 237.921 2063.48 239.19 2063.48 240.767V286.541C2063.48 288.049 2062.69 289.318 2061.12 290.347C2059.55 291.307 2057.48 291.787 2054.9 291.787ZM2061.29 267.203V257.945H2120.35V267.203H2061.29Z" fill="url(#paint27_linear_270_2)"/>
<path d="M2192.94 292.301C2185.21 292.301 2178.25 291.307 2172.08 289.318C2166.02 287.261 2161.2 284.278 2157.61 280.369C2154.13 276.46 2152.4 271.66 2152.4 265.968V240.664C2152.4 239.156 2153.18 237.921 2154.75 236.961C2156.43 235.933 2158.51 235.418 2160.98 235.418C2163.44 235.418 2165.46 235.933 2167.03 236.961C2168.72 237.921 2169.56 239.156 2169.56 240.664V265.968C2169.56 269.809 2170.74 272.997 2173.09 275.535C2175.45 278.003 2178.64 279.855 2182.68 281.089C2186.72 282.255 2191.26 282.838 2196.31 282.838C2201.13 282.838 2205.4 282.255 2209.1 281.089C2212.91 279.923 2215.94 278.346 2218.18 276.357C2220.43 274.369 2221.55 272.14 2221.55 269.671H2232.15C2232.15 273.923 2230.41 277.763 2226.93 281.192C2223.57 284.621 2218.91 287.329 2212.97 289.318C2207.13 291.307 2200.46 292.301 2192.94 292.301ZM2230.13 291.787C2227.66 291.787 2225.59 291.307 2223.9 290.347C2222.33 289.318 2221.55 288.049 2221.55 286.541V240.664C2221.55 239.087 2222.33 237.818 2223.9 236.858C2225.59 235.898 2227.66 235.418 2230.13 235.418C2232.71 235.418 2234.78 235.898 2236.36 236.858C2237.93 237.818 2238.71 239.087 2238.71 240.664V286.541C2238.71 288.049 2237.93 289.318 2236.36 290.347C2234.78 291.307 2232.71 291.787 2230.13 291.787Z" fill="url(#paint28_linear_270_2)"/>
<path d="M2335.23 290.552C2333.77 291.375 2331.7 291.787 2329 291.787C2326.42 291.718 2324.41 291.238 2322.95 290.347L2282.06 263.5L2320.59 237.167C2322.05 236.207 2324.07 235.658 2326.65 235.521C2329.34 235.384 2331.42 235.727 2332.87 236.55C2334.56 237.51 2335.51 238.607 2335.73 239.841C2335.96 241.007 2335.34 242.07 2333.88 243.03L2303.43 262.985L2335.73 284.175C2337.19 285.066 2337.92 286.129 2337.92 287.364C2337.92 288.529 2337.02 289.592 2335.23 290.552ZM2268.6 291.89C2266.13 291.89 2264.17 291.41 2262.71 290.45C2261.25 289.421 2260.52 288.152 2260.52 286.644V240.767C2260.52 239.19 2261.25 237.921 2262.71 236.961C2264.17 236.001 2266.13 235.521 2268.6 235.521C2271.18 235.521 2273.26 236.001 2274.83 236.961C2276.51 237.921 2277.35 239.19 2277.35 240.767V257.945H2298.89V267.614H2277.35V286.644C2277.35 288.152 2276.51 289.421 2274.83 290.45C2273.26 291.41 2271.18 291.89 2268.6 291.89Z" fill="url(#paint29_linear_270_2)"/>
<path d="M2389.23 292.301C2381.49 292.301 2374.54 291.307 2368.37 289.318C2362.31 287.261 2357.49 284.278 2353.9 280.369C2350.42 276.46 2348.68 271.66 2348.68 265.968V240.664C2348.68 239.156 2349.47 237.921 2351.04 236.961C2352.72 235.933 2354.8 235.418 2357.27 235.418C2359.73 235.418 2361.75 235.933 2363.32 236.961C2365.01 237.921 2365.85 239.156 2365.85 240.664V265.968C2365.85 269.809 2367.02 272.997 2369.38 275.535C2371.74 278.003 2374.93 279.855 2378.97 281.089C2383.01 282.255 2387.55 282.838 2392.6 282.838C2397.42 282.838 2401.69 282.255 2405.39 281.089C2409.2 279.923 2412.23 278.346 2414.47 276.357C2416.72 274.369 2417.84 272.14 2417.84 269.671H2428.44C2428.44 273.923 2426.7 277.763 2423.22 281.192C2419.86 284.621 2415.2 287.329 2409.26 289.318C2403.42 291.307 2396.75 292.301 2389.23 292.301ZM2426.42 291.787C2423.95 291.787 2421.88 291.307 2420.19 290.347C2418.62 289.318 2417.84 288.049 2417.84 286.541V240.664C2417.84 239.087 2418.62 237.818 2420.19 236.858C2421.88 235.898 2423.95 235.418 2426.42 235.418C2429 235.418 2431.07 235.898 2432.64 236.858C2434.21 237.818 2435 239.087 2435 240.664V286.541C2435 288.049 2434.21 289.318 2432.64 290.347C2431.07 291.307 2429 291.787 2426.42 291.787Z" fill="url(#paint30_linear_270_2)"/>
</g>
<defs>
<filter id="filter0_d_270_2" x="504" y="0" width="1943" height="325.856" filterUnits="userSpaceOnUse" color-interpolation-filters="sRGB">
<feFlood flood-opacity="0" result="BackgroundImageFix"/>
<feColorMatrix in="SourceAlpha" type="matrix" values="0 0 0 0 0 0 0 0 0 0 0 0 0 0 0 0 0 0 127 0" result="hardAlpha"/>
<feOffset dx="6" dy="4"/>
<feGaussianBlur stdDeviation="3"/>
<feComposite in2="hardAlpha" operator="out"/>
<feColorMatrix type="matrix" values="0 0 0 0 0.294933 0 0 0 0 0.473507 0 0 0 0 0.557692 0 0 0 1 0"/>
<feBlend mode="normal" in2="BackgroundImageFix" result="effect1_dropShadow_270_2"/>
<feBlend mode="normal" in="SourceGraphic" in2="effect1_dropShadow_270_2" result="shape"/>
</filter>
<radialGradient id="paint0_radial_270_2" cx="0" cy="0" r="1" gradientUnits="userSpaceOnUse" gradientTransform="translate(157 159) rotate(-90) scale(157)">
<stop stop-color="#D9D9D9"/>
<stop offset="1" stop-color="#D9ECF0"/>
</radialGradient>
<linearGradient id="paint1_linear_270_2" x1="797.673" y1="2.00001" x2="857.975" y2="411.239" gradientUnits="userSpaceOnUse">
<stop stop-color="#D9D9D9"/>
<stop offset="1" stop-color="#DFEFF3"/>
</linearGradient>
<linearGradient id="paint2_linear_270_2" x1="797.673" y1="2.00001" x2="857.975" y2="411.239" gradientUnits="userSpaceOnUse">
<stop stop-color="#D9D9D9"/>
<stop offset="1" stop-color="#DFEFF3"/>
</linearGradient>
<linearGradient id="paint3_linear_270_2" x1="797.673" y1="2.00001" x2="857.975" y2="411.239" gradientUnits="userSpaceOnUse">
<stop stop-color="#D9D9D9"/>
<stop offset="1" stop-color="#DFEFF3"/>
</linearGradient>
<linearGradient id="paint4_linear_270_2" x1="797.673" y1="2.00001" x2="857.975" y2="411.239" gradientUnits="userSpaceOnUse">
<stop stop-color="#D9D9D9"/>
<stop offset="1" stop-color="#DFEFF3"/>
</linearGradient>
<linearGradient id="paint5_linear_270_2" x1="797.673" y1="2.00001" x2="857.975" y2="411.239" gradientUnits="userSpaceOnUse">
<stop stop-color="#D9D9D9"/>
<stop offset="1" stop-color="#DFEFF3"/>
</linearGradient>
<linearGradient id="paint6_linear_270_2" x1="797.673" y1="2.00001" x2="857.975" y2="411.239" gradientUnits="userSpaceOnUse">
<stop stop-color="#D9D9D9"/>
<stop offset="1" stop-color="#DFEFF3"/>
</linearGradient>
<linearGradient id="paint7_linear_270_2" x1="797.673" y1="2.00001" x2="857.975" y2="411.239" gradientUnits="userSpaceOnUse">
<stop stop-color="#D9D9D9"/>
<stop offset="1" stop-color="#DFEFF3"/>
</linearGradient>
<linearGradient id="paint8_linear_270_2" x1="797.673" y1="2.00001" x2="857.975" y2="411.239" gradientUnits="userSpaceOnUse">
<stop stop-color="#D9D9D9"/>
<stop offset="1" stop-color="#DFEFF3"/>
</linearGradient>
<linearGradient id="paint9_linear_270_2" x1="797.673" y1="2.00001" x2="857.975" y2="411.239" gradientUnits="userSpaceOnUse">
<stop stop-color="#D9D9D9"/>
<stop offset="1" stop-color="#DFEFF3"/>
</linearGradient>
<linearGradient id="paint10_linear_270_2" x1="797.673" y1="2.00001" x2="857.975" y2="411.239" gradientUnits="userSpaceOnUse">
<stop stop-color="#D9D9D9"/>
<stop offset="1" stop-color="#DFEFF3"/>
</linearGradient>
<linearGradient id="paint11_linear_270_2" x1="797.673" y1="2.00001" x2="857.975" y2="411.239" gradientUnits="userSpaceOnUse">
<stop stop-color="#D9D9D9"/>
<stop offset="1" stop-color="#DFEFF3"/>
</linearGradient>
<linearGradient id="paint12_linear_270_2" x1="797.673" y1="2.00001" x2="857.975" y2="411.239" gradientUnits="userSpaceOnUse">
<stop stop-color="#D9D9D9"/>
<stop offset="1" stop-color="#DFEFF3"/>
</linearGradient>
<linearGradient id="paint13_linear_270_2" x1="797.673" y1="209.291" x2="813.863" y2="423.016" gradientUnits="userSpaceOnUse">
<stop stop-color="#D9D9D9"/>
<stop offset="1" stop-color="#DFEFF3"/>
</linearGradient>
<linearGradient id="paint14_linear_270_2" x1="797.673" y1="209.291" x2="813.863" y2="423.016" gradientUnits="userSpaceOnUse">
<stop stop-color="#D9D9D9"/>
<stop offset="1" stop-color="#DFEFF3"/>
</linearGradient>
<linearGradient id="paint15_linear_270_2" x1="797.673" y1="209.291" x2="813.863" y2="423.016" gradientUnits="userSpaceOnUse">
<stop stop-color="#D9D9D9"/>
<stop offset="1" stop-color="#DFEFF3"/>
</linearGradient>
<linearGradient id="paint16_linear_270_2" x1="797.673" y1="209.291" x2="813.863" y2="423.016" gradientUnits="userSpaceOnUse">
<stop stop-color="#D9D9D9"/>
<stop offset="1" stop-color="#DFEFF3"/>
</linearGradient>
<linearGradient id="paint17_linear_270_2" x1="797.673" y1="209.291" x2="813.863" y2="423.016" gradientUnits="userSpaceOnUse">
<stop stop-color="#D9D9D9"/>
<stop offset="1" stop-color="#DFEFF3"/>
</linearGradient>
<linearGradient id="paint18_linear_270_2" x1="797.673" y1="209.291" x2="813.863" y2="423.016" gradientUnits="userSpaceOnUse">
<stop stop-color="#D9D9D9"/>
<stop offset="1" stop-color="#DFEFF3"/>
</linearGradient>
<linearGradient id="paint19_linear_270_2" x1="797.673" y1="209.291" x2="813.863" y2="423.016" gradientUnits="userSpaceOnUse">
<stop stop-color="#D9D9D9"/>
<stop offset="1" stop-color="#DFEFF3"/>
</linearGradient>
<linearGradient id="paint20_linear_270_2" x1="797.673" y1="209.291" x2="813.863" y2="423.016" gradientUnits="userSpaceOnUse">
<stop stop-color="#D9D9D9"/>
<stop offset="1" stop-color="#DFEFF3"/>
</linearGradient>
<linearGradient id="paint21_linear_270_2" x1="797.673" y1="209.291" x2="813.863" y2="423.016" gradientUnits="userSpaceOnUse">
<stop stop-color="#D9D9D9"/>
<stop offset="1" stop-color="#DFEFF3"/>
</linearGradient>
<linearGradient id="paint22_linear_270_2" x1="797.673" y1="209.291" x2="813.863" y2="423.016" gradientUnits="userSpaceOnUse">
<stop stop-color="#D9D9D9"/>
<stop offset="1" stop-color="#DFEFF3"/>
</linearGradient>
<linearGradient id="paint23_linear_270_2" x1="797.673" y1="209.291" x2="813.863" y2="423.016" gradientUnits="userSpaceOnUse">
<stop stop-color="#D9D9D9"/>
<stop offset="1" stop-color="#DFEFF3"/>
</linearGradient>
<linearGradient id="paint24_linear_270_2" x1="797.673" y1="209.291" x2="813.863" y2="423.016" gradientUnits="userSpaceOnUse">
<stop stop-color="#D9D9D9"/>
<stop offset="1" stop-color="#DFEFF3"/>
</linearGradient>
<linearGradient id="paint25_linear_270_2" x1="797.673" y1="209.291" x2="813.863" y2="423.016" gradientUnits="userSpaceOnUse">
<stop stop-color="#D9D9D9"/>
<stop offset="1" stop-color="#DFEFF3"/>
</linearGradient>
<linearGradient id="paint26_linear_270_2" x1="797.673" y1="209.291" x2="813.863" y2="423.016" gradientUnits="userSpaceOnUse">
<stop stop-color="#D9D9D9"/>
<stop offset="1" stop-color="#DFEFF3"/>
</linearGradient>
<linearGradient id="paint27_linear_270_2" x1="797.673" y1="209.291" x2="813.863" y2="423.016" gradientUnits="userSpaceOnUse">
<stop stop-color="#D9D9D9"/>
<stop offset="1" stop-color="#DFEFF3"/>
</linearGradient>
<linearGradient id="paint28_linear_270_2" x1="797.673" y1="209.291" x2="813.863" y2="423.016" gradientUnits="userSpaceOnUse">
<stop stop-color="#D9D9D9"/>
<stop offset="1" stop-color="#DFEFF3"/>
</linearGradient>
<linearGradient id="paint29_linear_270_2" x1="797.673" y1="209.291" x2="813.863" y2="423.016" gradientUnits="userSpaceOnUse">
<stop stop-color="#D9D9D9"/>
<stop offset="1" stop-color="#DFEFF3"/>
</linearGradient>
<linearGradient id="paint30_linear_270_2" x1="797.673" y1="209.291" x2="813.863" y2="423.016" gradientUnits="userSpaceOnUse">
<stop stop-color="#D9D9D9"/>
<stop offset="1" stop-color="#DFEFF3"/>
</linearGradient>
</defs>
</svg>
