<svg width="2451" height="328" viewBox="0 0 2451 328" fill="none" xmlns="http://www.w3.org/2000/svg">
<path d="M127.091 311.453C132.983 311.849 143.089 311.797 161.924 311.716H161.927L197.078 311.551L199.383 311.54L201.451 310.521L205.136 308.706L205.135 308.704C211.4 305.644 215.43 301.468 218.394 295.094L219.825 292.067L220.774 290.059L220.783 287.836L220.948 248.054V248.04L221.031 218.284H248.465C261.997 218.284 271.587 218.243 278.03 218.139C281.242 218.087 283.76 218.016 285.632 217.923C286.964 217.856 289.134 217.746 290.859 217.287L290.86 217.288L291 217.25L290.999 217.249C294.238 216.363 297.295 214.662 299.722 212.919C302.042 211.253 304.475 209.056 306.327 206.492L306.689 205.975L306.712 205.94L306.735 205.906C307.467 204.808 308.833 202.874 309.8 200.3C310.771 197.711 311.186 194.987 311.418 191.909C311.862 186.015 311.795 175.86 311.714 156.738V156.733L311.549 121.573L311.538 119.27L310.52 117.202L308.722 113.553C305.559 107.061 300.253 101.921 293.508 99.3467L293.413 99.3105L293.317 99.2754C290.343 98.209 288.036 97.9029 282.46 97.75C277.018 97.6008 267.332 97.5889 249.015 97.5889H221.028L220.948 70.8018V70.7871L220.783 34.085L220.773 31.7803L219.755 29.7129L217.959 26.0684L217.96 26.0674C214.887 19.7537 210.686 15.7036 204.256 12.7285L201.305 11.334L199.291 10.3809L197.062 10.374L161.586 10.2646C146.465 10.2097 137.376 10.2077 131.773 10.3135C126.684 10.4095 123.189 10.5682 120.416 11.4268L120.374 11.4395L120.332 11.4531C112.625 13.9135 106.227 19.2887 102.738 26.8652L102.739 26.8662C102.21 28.0043 101.643 29.4018 101.287 31.5264C101.003 33.2168 100.874 35.2508 100.783 37.8057C100.598 43.0209 100.528 52.4525 100.391 70.3701V70.3721L100.189 97.3848L71.8123 97.5889L33.5808 97.8643L31.2947 97.8799L29.2429 98.8887L26.1072 100.429L26.0984 100.434C20.1417 103.368 15.6653 108.3 12.8435 114.259L12.8269 114.293L12.8103 114.328L11.3806 117.409L10.4607 119.39L10.4509 121.573L10.2859 156.733V156.738C10.2047 175.86 10.1373 186.015 10.5818 191.909C10.8139 194.987 11.2281 197.711 12.2 200.3C13.1663 202.874 14.5337 204.808 15.2654 205.906L15.3103 205.975C17.2003 208.761 19.8027 211.142 22.2771 212.919C24.7038 214.662 27.761 216.363 30.9998 217.249V217.25C32.7434 217.741 34.9889 217.854 36.3533 217.923C38.2167 218.017 40.7223 218.087 43.9138 218.139C50.3162 218.243 59.837 218.284 73.2595 218.284H100.391V247.627C100.391 266.557 100.404 276.583 100.552 282.206C100.703 287.892 100.996 290.299 102.098 293.317L102.107 293.34L102.115 293.363C104.14 298.824 108.514 304.182 113.242 307.216L113.258 307.226L113.273 307.236C114.452 307.987 116.315 309.204 118.923 310.069C121.406 310.893 124.06 311.25 127.091 311.453Z" fill="url(#paint0_radial_265_44)" stroke="url(#paint1_radial_265_44)" stroke-width="20"/>
<g filter="url(#filter0_d_265_44)">
<circle cx="160.936" cy="160.936" r="87.5795" stroke="#76BCDD" stroke-width="5" shape-rendering="crispEdges"/>
</g>
<path d="M121.716 106.94C67.108 159 107.343 224.109 161.087 224.976C218.435 225.899 252.381 155.986 202.182 107.725" stroke="#76BCDD" stroke-width="20" stroke-linecap="round"/>
<path d="M160.782 95.7083L161.36 156.057" stroke="#76BCDD" stroke-width="20" stroke-linecap="round"/>
<g filter="url(#filter1_d_265_44)">
<path d="M573.395 176.145C564.519 176.145 556.557 175.428 549.508 173.993C542.46 172.718 536.325 170.407 531.104 167.06C525.882 163.712 521.575 159.01 518.181 152.953C514.787 146.896 512.177 139.166 510.35 129.762C508.783 120.357 508 108.961 508 95.5716C508 79.9511 509.566 66.7214 512.699 55.8826C515.832 45.0439 520.009 36.2772 525.23 29.5827C530.712 22.7288 536.847 17.4688 543.634 13.8027C550.422 9.97726 557.47 7.42697 564.78 6.15181C572.09 4.71727 579.269 4 586.317 4C597.543 4 605.766 4.71727 610.987 6.15181C616.208 7.42697 619.602 9.1803 621.168 11.4118C622.735 13.4839 623.518 15.7154 623.518 18.1063C623.518 21.2942 622.865 24.3227 621.56 27.1918C620.255 29.9015 618.819 32.2924 617.252 34.3645C615.686 33.5675 613.859 32.9299 611.77 32.4518C609.682 31.8142 607.332 31.336 604.722 31.0172C602.372 30.539 599.762 30.3 596.89 30.3C592.452 30.3 588.145 30.8578 583.968 31.9736C579.791 32.9299 575.875 34.763 572.22 37.4727C568.565 40.1824 565.433 43.9281 562.822 48.7099C560.211 53.4917 558.123 59.5487 556.557 66.8808C554.99 74.2129 554.207 83.0592 554.207 93.4198C554.207 103.78 554.729 112.388 555.773 119.242C557.079 126.096 558.906 131.515 561.256 135.5C563.605 139.325 566.738 142.115 570.654 143.868C574.57 145.462 579.269 146.259 584.751 146.259C590.755 146.259 596.368 145.94 601.589 145.302C607.071 144.665 611.64 143.788 615.294 142.672C616.861 144.745 618.166 147.215 619.21 150.084C620.516 152.794 621.168 155.583 621.168 158.452C621.168 162.118 619.21 165.306 615.294 168.016C611.64 170.726 606.157 172.718 598.848 173.993C591.799 175.428 583.315 176.145 573.395 176.145Z" fill="url(#paint2_linear_265_44)"/>
<path d="M748.118 174.232C743.158 174.232 738.198 174.153 733.238 173.993C728.278 173.834 723.057 173.675 717.575 173.515L713.659 130.001C712.876 120.915 711.309 114.221 708.96 109.917C706.61 105.454 703.608 102.585 699.953 101.31C696.56 100.035 692.644 99.3971 688.206 99.3971H684.29V168.972C684.29 170.566 683.637 171.682 682.332 172.32C681.288 172.957 677.633 173.356 671.368 173.515C665.102 173.675 654.529 173.754 639.649 173.754V11.1727C639.649 9.57878 640.302 8.46302 641.607 7.82545C642.912 7.18788 646.567 6.78939 652.572 6.62999C658.837 6.4706 669.41 6.3909 684.29 6.3909V73.8144H690.164C694.08 73.8144 697.995 72.5393 701.911 69.989C705.827 67.2793 708.438 62.9756 709.743 57.0781L721.882 8.06454C727.103 7.26757 732.194 6.78939 737.154 6.62999C742.114 6.31121 746.422 6.15181 750.076 6.15181C757.908 6.15181 762.999 6.62999 765.348 7.58635C767.959 8.38332 768.872 10.1367 768.089 12.8463L752.817 61.3817C750.99 67.1199 748.118 71.822 744.203 75.488C740.287 79.1541 736.11 81.8638 731.672 83.6171C740.809 86.805 747.857 92.1447 752.817 99.6362C757.778 107.128 760.78 116.133 761.824 126.653L766.523 168.733C766.784 170.805 765.74 172.24 763.39 173.037C761.041 173.834 755.95 174.232 748.118 174.232Z" fill="url(#paint3_linear_265_44)"/>
<path d="M848.848 176.145C836.056 176.145 825.092 174.95 815.955 172.559C807.079 170.008 799.899 165.545 794.417 159.17C788.935 152.794 784.889 143.948 782.278 132.631C779.668 121.314 778.362 106.809 778.362 89.1162C778.362 67.4387 781.103 50.4632 786.586 38.1899C792.068 25.7572 800.291 16.9906 811.255 11.89C822.481 6.62999 836.447 4 853.155 4C865.947 4 876.781 5.35485 885.657 8.06454C894.533 10.6148 901.712 15.0779 907.194 21.4536C912.676 27.67 916.592 36.1975 918.941 47.0363C921.552 57.875 922.857 71.5829 922.857 88.1598C922.857 110.634 920.247 128.247 915.026 140.999C909.804 153.75 901.712 162.836 890.747 168.255C880.044 173.515 866.077 176.145 848.848 176.145ZM851.197 148.411C857.724 148.411 862.553 146.418 865.686 142.433C869.08 138.449 871.429 132.073 872.734 123.306C874.04 114.539 874.692 103.143 874.692 89.1162C874.692 75.249 874.17 64.0914 873.126 55.6435C872.343 47.1957 870.385 41.1387 867.252 37.4727C864.12 33.6472 859.159 31.7345 852.372 31.7345C846.107 31.7345 841.277 33.8066 837.883 37.9508C834.49 41.9357 832.01 48.5505 830.443 57.7954C829.138 67.0402 828.485 79.4729 828.485 95.0935C828.485 107.526 829.007 117.648 830.052 125.458C831.096 133.268 833.184 139.086 836.317 142.912C839.711 146.578 844.671 148.411 851.197 148.411Z" fill="url(#paint4_linear_265_44)"/>
<path d="M955.429 109.2C950.991 109.2 948.381 108.722 947.598 107.765C946.814 106.809 946.423 105.056 946.423 102.505V11.1727C946.423 11.1727 946.553 10.3757 946.814 8.7818C947.075 7.18787 949.294 6.3909 953.471 6.3909H987.148C1003.59 6.3909 1017.43 7.82544 1028.66 10.6945C1040.14 13.4042 1048.76 18.3454 1054.5 25.5181C1060.5 32.5315 1063.51 42.5733 1063.51 55.6435C1063.51 66.4823 1061.29 75.4083 1056.85 82.4217C1052.67 89.2756 1046.93 94.695 1039.62 98.6798C1032.57 102.505 1024.61 105.215 1015.73 106.809C1007.12 108.403 998.243 109.2 989.106 109.2H955.429ZM942.507 173.754V11.1727C942.507 9.41938 942.899 8.22393 943.682 7.58635C944.726 6.78939 946.945 6.3909 950.339 6.3909H978.533C982.449 6.3909 984.668 7.18787 985.19 8.7818C985.973 10.3757 986.365 11.1727 986.365 11.1727V168.972C986.365 170.566 985.712 171.682 984.407 172.32C983.101 172.957 979.447 173.356 973.442 173.515C967.438 173.675 957.126 173.754 942.507 173.754ZM986.365 84.5735H994.196C998.373 84.5735 1001.9 83.7765 1004.77 82.1826C1007.64 80.4292 1009.86 77.2414 1011.43 72.619C1013.25 67.9965 1014.17 61.2223 1014.17 52.2963C1014.17 47.1957 1013.51 42.9717 1012.21 39.6245C1011.16 36.2772 1009.34 33.8066 1006.73 32.2127C1004.38 30.4593 1001.11 29.5827 996.937 29.5827H986.365V84.5735Z" fill="url(#paint5_linear_265_44)"/>
<path d="M1082.1 174.232C1079.23 174.232 1075.18 174.153 1069.96 173.993C1064.74 173.834 1059.52 173.595 1054.3 173.276L1119.69 10.9336C1120.73 7.58636 1126.61 5.91273 1137.31 5.91273C1140.97 5.91273 1144.62 5.99242 1148.28 6.15181C1152.19 6.31121 1155.46 6.5503 1158.07 6.86909L1223.46 169.451C1223.98 171.045 1223.07 172.24 1220.72 173.037C1218.37 173.834 1212.76 174.232 1203.88 174.232C1201.01 174.232 1197.49 174.153 1193.31 173.993C1189.13 173.993 1184.17 173.914 1178.43 173.754L1149.84 89.3553C1148.54 85.0517 1147.23 80.4292 1145.93 75.488C1144.62 70.3874 1143.45 65.1275 1142.4 59.7081C1141.36 54.2887 1140.44 49.1084 1139.66 44.1672C1138.88 49.1084 1137.83 54.2887 1136.53 59.7081C1135.48 65.1275 1134.31 70.3874 1133 75.488C1131.96 80.4292 1130.65 85.0517 1129.09 89.3553L1102.07 169.211C1101.55 170.805 1100.24 172.081 1098.15 173.037C1096.33 173.834 1090.97 174.232 1082.1 174.232ZM1098.94 135.739V111.591H1187.43V135.739H1098.94Z" fill="url(#paint6_linear_265_44)"/>
<path d="M1236.1 173.754L1249.03 121.632C1250.33 116.213 1253.07 111.83 1257.25 108.483C1261.69 104.976 1267.56 101.947 1274.87 99.3971C1267.3 96.6874 1260.77 93.2604 1255.29 89.1162C1249.81 84.8126 1245.63 79.8714 1242.76 74.2926C1240.15 68.5544 1238.85 62.3381 1238.85 55.6435C1238.85 42.5733 1241.85 32.5315 1247.85 25.5181C1254.12 18.3454 1262.99 13.4042 1274.48 10.6945C1285.97 7.82544 1299.67 6.3909 1315.6 6.3909H1352.41C1356.32 6.3909 1358.54 7.18787 1359.06 8.7818C1359.85 10.3757 1360.24 11.1727 1360.24 11.1727V173.754C1345.36 173.754 1334.91 173.675 1328.91 173.515C1322.91 173.356 1319.25 172.957 1317.95 172.32C1316.9 171.682 1316.38 170.566 1316.38 168.972V106.331H1311.68C1307.5 106.331 1303.98 107.606 1301.11 110.156C1298.24 112.706 1296.15 116.93 1294.84 122.828L1284.66 168.494C1284.14 170.726 1282.96 172.32 1281.14 173.276C1279.31 174.073 1273.83 174.471 1264.69 174.471C1261.3 174.471 1256.86 174.392 1251.38 174.232C1246.16 174.073 1241.06 173.914 1236.1 173.754ZM1308.55 81.7044C1309.85 81.7044 1311.16 81.6247 1312.46 81.4653C1313.77 81.3059 1315.07 81.0668 1316.38 80.748V30.3C1314.55 29.9812 1312.72 29.8218 1310.9 29.8218C1309.33 29.6624 1307.63 29.5827 1305.81 29.5827C1302.15 29.5827 1299.02 30.4593 1296.41 32.2127C1293.8 33.8066 1291.71 36.2772 1290.14 39.6245C1288.84 42.9717 1288.19 47.1957 1288.19 52.2963C1288.19 58.9908 1288.84 64.4899 1290.14 68.7935C1291.71 73.0971 1293.93 76.3647 1296.8 78.5962C1299.93 80.6683 1303.85 81.7044 1308.55 81.7044Z" fill="url(#paint7_linear_265_44)"/>
<path d="M1439.26 173.754V11.1727C1439.26 9.57878 1439.92 8.46302 1441.22 7.82545C1442.53 7.18788 1446.18 6.78939 1452.19 6.62999C1458.45 6.4706 1468.76 6.3909 1483.12 6.3909H1561.05V168.972C1561.05 170.566 1560.39 171.682 1559.09 172.32C1557.78 172.957 1554.13 173.356 1548.12 173.515C1542.12 173.675 1531.81 173.754 1517.19 173.754V31.4954H1483.12V168.972C1483.12 170.566 1482.47 171.682 1481.16 172.32C1479.86 172.957 1476.2 173.356 1470.2 173.515C1464.19 173.675 1453.88 173.754 1439.26 173.754Z" fill="url(#paint8_linear_265_44)"/>
<path d="M1651.52 176.145C1638.73 176.145 1627.77 174.95 1618.63 172.559C1609.75 170.008 1602.57 165.545 1597.09 159.17C1591.61 152.794 1587.56 143.948 1584.95 132.631C1582.34 121.314 1581.04 106.809 1581.04 89.1162C1581.04 67.4387 1583.78 50.4632 1589.26 38.1899C1594.74 25.7572 1602.96 16.9906 1613.93 11.89C1625.15 6.62999 1639.12 4 1655.83 4C1668.62 4 1679.45 5.35485 1688.33 8.06454C1697.21 10.6148 1704.39 15.0779 1709.87 21.4536C1715.35 27.67 1719.27 36.1975 1721.62 47.0363C1724.23 57.875 1725.53 71.5829 1725.53 88.1598C1725.53 110.634 1722.92 128.247 1717.7 140.999C1712.48 153.75 1704.39 162.836 1693.42 168.255C1682.72 173.515 1668.75 176.145 1651.52 176.145ZM1653.87 148.411C1660.4 148.411 1665.23 146.418 1668.36 142.433C1671.75 138.449 1674.1 132.073 1675.41 123.306C1676.71 114.539 1677.37 103.143 1677.37 89.1162C1677.37 75.249 1676.84 64.0914 1675.8 55.6435C1675.02 47.1957 1673.06 41.1387 1669.93 37.4727C1666.79 33.6472 1661.83 31.7345 1655.05 31.7345C1648.78 31.7345 1643.95 33.8066 1640.56 37.9508C1637.16 41.9357 1634.68 48.5505 1633.12 57.7954C1631.81 67.0402 1631.16 79.4729 1631.16 95.0935C1631.16 107.526 1631.68 117.648 1632.73 125.458C1633.77 133.268 1635.86 139.086 1638.99 142.912C1642.38 146.578 1647.34 148.411 1653.87 148.411Z" fill="url(#paint9_linear_265_44)"/>
<path d="M1814.88 133.826L1796.48 100.353C1795.43 98.4407 1794 95.5716 1792.17 91.7462C1790.6 87.7614 1788.78 83.2983 1786.69 78.3571C1784.6 73.4159 1782.51 68.4747 1780.42 63.5335C1778.34 58.4329 1776.38 53.7308 1774.55 49.4272C1772.98 45.1236 1771.68 41.6966 1770.63 39.1463C1769.59 36.4366 1769.07 35.0818 1769.07 35.0818L1786.3 6.3909L1817.23 65.2072C1819.32 68.8732 1821.02 72.2205 1822.32 75.2489C1823.63 78.2774 1824.67 80.8277 1825.46 82.8998C1826.24 84.972 1826.76 86.5659 1827.02 87.6817C1827.54 88.7974 1827.81 89.3553 1827.81 89.3553C1827.81 89.3553 1827.94 88.7974 1828.2 87.6817C1828.46 86.5659 1828.98 84.972 1829.76 82.8998C1830.55 80.6683 1831.46 78.118 1832.5 75.2489C1833.81 72.3799 1835.38 69.192 1837.2 65.6853L1863.83 11.1727L1884.19 35.5599C1884.19 35.5599 1883.67 36.8351 1882.63 39.3854C1881.58 41.9357 1880.15 45.3626 1878.32 49.6663C1876.75 53.8105 1874.93 58.4329 1872.84 63.5335C1870.75 68.4747 1868.53 73.4159 1866.18 78.3571C1864.09 83.1389 1862.13 87.5223 1860.31 91.5071C1858.74 95.3326 1857.3 98.2813 1856 100.353L1837.2 132.152C1836.68 133.268 1835.25 133.826 1832.9 133.826H1814.88ZM1745.18 173.754V11.1727C1745.18 8.78181 1745.96 7.42696 1747.53 7.10818C1749.1 6.62999 1750.92 6.3909 1753.01 6.3909H1786.3L1788.65 51.8181L1776.12 56.839C1776.12 56.839 1776.38 57.7157 1776.9 59.469C1777.42 61.0629 1778.07 63.4538 1778.86 66.6417C1779.64 69.6702 1780.42 73.4159 1781.21 77.8789C1782.25 82.1826 1783.16 86.9644 1783.95 92.2244C1784.99 97.4844 1785.78 103.143 1786.3 109.2C1787.08 115.257 1787.47 121.553 1787.47 128.088L1788.65 168.972C1788.65 170.566 1787.86 171.682 1786.3 172.32C1784.73 172.957 1780.82 173.356 1774.55 173.515C1768.55 173.675 1758.76 173.754 1745.18 173.754ZM1863.44 173.754L1865.4 128.327C1865.66 121.792 1866.05 115.576 1866.57 109.678C1867.36 103.621 1868.14 97.9625 1868.92 92.7026C1869.97 87.2832 1870.88 82.4217 1871.66 78.118C1872.45 73.655 1873.23 69.9093 1874.01 66.8808C1874.8 63.6929 1875.45 61.2223 1875.97 59.469C1876.49 57.7157 1876.75 56.839 1876.75 56.839L1863.83 51.3399V11.1727C1864.88 9.41938 1865.79 8.22393 1866.57 7.58635C1867.62 6.78939 1869.31 6.3909 1871.66 6.3909C1883.93 6.3909 1892.55 6.3909 1897.51 6.3909C1902.73 6.3909 1905.86 6.3909 1906.91 6.3909C1907.95 6.3909 1908.47 6.3909 1908.47 6.3909V168.972C1908.47 170.566 1907.82 171.682 1906.51 172.32C1905.21 172.957 1901.42 173.356 1895.16 173.515C1889.15 173.675 1878.58 173.754 1863.44 173.754Z" fill="url(#paint10_linear_265_44)"/>
<path d="M1998.37 176.145C1985.57 176.145 1974.61 174.95 1965.47 172.559C1956.6 170.008 1949.42 165.545 1943.93 159.17C1938.45 152.794 1934.41 143.948 1931.8 132.631C1929.19 121.314 1927.88 106.809 1927.88 89.1162C1927.88 67.4387 1930.62 50.4632 1936.1 38.1899C1941.59 25.7572 1949.81 16.9906 1960.77 11.89C1972 6.62999 1985.97 4 2002.67 4C2015.46 4 2026.3 5.35485 2035.17 8.06454C2044.05 10.6148 2051.23 15.0779 2056.71 21.4536C2062.19 27.67 2066.11 36.1975 2068.46 47.0363C2071.07 57.875 2072.37 71.5829 2072.37 88.1598C2072.37 110.634 2069.76 128.247 2064.54 140.999C2059.32 153.75 2051.23 162.836 2040.26 168.255C2029.56 173.515 2015.6 176.145 1998.37 176.145ZM2000.71 148.411C2007.24 148.411 2012.07 146.418 2015.2 142.433C2018.6 138.449 2020.95 132.073 2022.25 123.306C2023.56 114.539 2024.21 103.143 2024.21 89.1162C2024.21 75.249 2023.69 64.0914 2022.64 55.6435C2021.86 47.1957 2019.9 41.1387 2016.77 37.4727C2013.64 33.6472 2008.68 31.7345 2001.89 31.7345C1995.62 31.7345 1990.79 33.8066 1987.4 37.9508C1984.01 41.9357 1981.53 48.5505 1979.96 57.7954C1978.66 67.0402 1978 79.4729 1978 95.0935C1978 107.526 1978.53 117.648 1979.57 125.458C1980.61 133.268 1982.7 139.086 1985.83 142.912C1989.23 146.578 1994.19 148.411 2000.71 148.411Z" fill="url(#paint11_linear_265_44)"/>
<path d="M2275.29 211.291C2272.68 204.916 2270.2 198.779 2267.85 192.881C2265.5 187.143 2263.93 180.768 2263.15 173.754H2092.42V11.1727C2092.42 9.57878 2092.94 8.46302 2093.98 7.82545C2095.03 7.18788 2098.55 6.78939 2104.56 6.62999C2110.82 6.4706 2121.39 6.3909 2136.27 6.3909V148.65H2165.25V11.1727C2165.25 9.57878 2165.77 8.46302 2166.82 7.82545C2168.12 7.18788 2171.78 6.78939 2177.78 6.62999C2183.79 6.4706 2194.23 6.3909 2209.11 6.3909V148.65H2238.09V11.1727C2238.09 9.57878 2238.61 8.46302 2239.65 7.82545C2240.96 7.18788 2244.61 6.78939 2250.62 6.62999C2256.62 6.4706 2267.06 6.3909 2281.94 6.3909V148.65H2301.52V203.641C2301.52 206.988 2299.83 209.06 2296.43 209.857C2293.3 210.813 2286.25 211.291 2275.29 211.291Z" fill="url(#paint12_linear_265_44)"/>
<path d="M2319.57 173.754V11.1727C2319.57 9.57878 2320.09 8.46302 2321.13 7.82545C2322.18 7.18788 2325.7 6.78939 2331.71 6.62999C2337.97 6.4706 2348.54 6.3909 2363.42 6.3909V72.1408H2374.78C2398.28 72.1408 2414.85 75.6474 2424.51 82.6608C2434.17 89.6741 2439 100.672 2439 115.655C2439 134.782 2432.6 149.287 2419.81 159.17C2407.28 168.893 2391.36 173.754 2372.04 173.754H2319.57ZM2371.65 150.323C2375.56 150.323 2378.57 149.447 2380.65 147.693C2383 145.94 2384.57 142.752 2385.35 138.13C2386.4 133.507 2386.92 126.892 2386.92 118.285C2386.92 109.678 2386.14 104.02 2384.57 101.31C2383 98.6001 2378.96 97.2453 2372.43 97.2453H2363.42V149.845C2364.21 150.005 2364.86 150.164 2365.38 150.323C2366.16 150.323 2367.08 150.323 2368.12 150.323C2369.17 150.323 2370.34 150.323 2371.65 150.323Z" fill="url(#paint13_linear_265_44)"/>
<path d="M551.074 294.198C542.661 294.198 535.202 292.998 528.696 290.598C522.302 288.129 517.254 284.769 513.552 280.518C509.851 276.197 508 271.26 508 265.705C508 260.082 509.963 255.145 513.889 250.893C517.927 246.573 523.424 243.213 530.378 240.813C537.333 238.344 545.353 237.11 554.439 237.11C563.413 237.11 571.377 238.344 578.331 240.813C585.286 243.213 590.726 246.573 594.652 250.893C598.691 255.145 600.71 260.082 600.71 265.705H590.782C590.782 271.26 589.044 276.197 585.567 280.518C582.201 284.769 577.546 288.129 571.601 290.598C565.656 292.998 558.814 294.198 551.074 294.198ZM554.102 317.137C546.138 317.137 538.679 316.176 531.724 314.256C524.77 312.336 518.881 309.525 514.057 305.822C512.599 304.656 512.038 303.456 512.375 302.222C512.823 300.987 513.945 299.993 515.74 299.238C517.759 298.416 519.834 298.141 521.965 298.416C524.209 298.69 526.004 299.376 527.35 300.473C530.378 302.804 534.192 304.622 538.791 305.925C543.39 307.227 548.606 307.879 554.439 307.879C559.823 307.879 564.759 307.09 569.246 305.513C573.845 303.936 577.49 301.604 580.182 298.518C582.874 295.433 584.22 291.661 584.22 287.204V272.597L589.773 263.545L600.71 265.705V287.924C600.71 293.341 598.747 298.244 594.821 302.633C590.895 307.09 585.398 310.622 578.331 313.228C571.377 315.834 563.301 317.137 554.102 317.137ZM554.439 284.941C560.272 284.941 565.432 284.118 569.919 282.472C574.405 280.826 577.883 278.563 580.351 275.683C582.93 272.803 584.22 269.477 584.22 265.705C584.22 261.934 582.93 258.608 580.351 255.728C577.883 252.779 574.405 250.482 569.919 248.836C565.432 247.19 560.272 246.367 554.439 246.367C548.606 246.367 543.446 247.19 538.959 248.836C534.472 250.482 530.939 252.779 528.359 255.728C525.779 258.608 524.489 261.934 524.489 265.705C524.489 269.477 525.779 272.803 528.359 275.683C530.939 278.563 534.472 280.826 538.959 282.472C543.446 284.118 548.606 284.941 554.439 284.941Z" fill="url(#paint14_linear_265_44)"/>
<path d="M652.332 237.624C654.014 237.624 655.529 237.898 656.875 238.447C658.221 238.995 659.286 239.853 660.072 241.018L694.733 286.998C695.742 288.369 695.854 289.604 695.069 290.701C694.284 291.73 692.938 292.518 691.031 293.067C688.563 293.753 686.432 293.924 684.637 293.581C682.842 293.238 681.328 292.381 680.094 291.01L648.462 247.087H657.043L624.401 291.01C623.392 292.312 621.877 293.17 619.858 293.581C617.951 293.924 615.82 293.753 613.464 293.067C611.333 292.45 609.819 291.627 608.921 290.598C608.136 289.569 608.304 288.369 609.426 286.998L644.255 241.018C645.938 238.755 648.63 237.624 652.332 237.624Z" fill="url(#paint15_linear_265_44)"/>
<path d="M766.396 293.787C764.04 293.787 762.077 293.307 760.507 292.347C758.936 291.318 758.151 290.049 758.151 288.541V274.963H734.427V273.626C728.482 273.626 723.21 272.906 718.611 271.466C714.012 270.026 710.422 268.037 707.842 265.5C705.262 262.962 703.972 260.014 703.972 256.654C703.972 253.019 705.374 249.762 708.179 246.882C711.095 244.001 715.021 241.738 719.957 240.093C725.004 238.378 730.781 237.521 737.287 237.521H766.396C768.976 237.521 771.051 238.001 772.621 238.961C774.191 239.921 774.977 241.19 774.977 242.767V288.644C774.865 290.152 774.023 291.387 772.453 292.347C770.995 293.307 768.976 293.787 766.396 293.787ZM706.664 292.552C704.87 291.592 704.028 290.529 704.14 289.364C704.253 288.198 704.926 287.135 706.16 286.175L726.687 269.82H749.065L720.293 291.73C718.386 293.238 716.031 293.958 713.226 293.89C710.422 293.821 708.235 293.375 706.664 292.552ZM737.287 266.323H758.151V247.293H737.287C732.8 247.293 728.874 248.185 725.509 249.967C722.144 251.682 720.461 253.911 720.461 256.654C720.461 259.534 722.144 261.865 725.509 263.648C728.874 265.431 732.8 266.323 737.287 266.323Z" fill="url(#paint16_linear_265_44)"/>
<path d="M846.337 293.787C843.87 293.787 841.794 293.307 840.112 292.347C838.542 291.318 837.756 290.049 837.756 288.541V242.664C837.981 241.156 838.878 239.921 840.448 238.961C842.019 238.001 843.982 237.521 846.337 237.521C848.917 237.521 850.993 238.001 852.563 238.961C854.133 239.921 854.919 241.19 854.919 242.767V260.459H887.56V262.517C893.73 262.517 899.17 263.168 903.881 264.471C908.705 265.774 912.462 267.591 915.155 269.923C917.847 272.186 919.193 274.826 919.193 277.843C919.193 280.929 917.847 283.672 915.155 286.072C912.462 288.472 908.705 290.358 903.881 291.73C899.17 293.101 893.73 293.787 887.56 293.787H846.337ZM854.919 284.015H887.56C892.047 284.015 895.693 283.363 898.497 282.061C901.301 280.689 902.704 278.94 902.704 276.815C902.704 274.552 901.301 272.7 898.497 271.26C895.693 269.82 892.047 269.1 887.56 269.1H854.919V284.015ZM874.268 266.014V260.459H890.252C893.057 260.459 895.356 259.808 897.151 258.505C898.946 257.134 899.843 255.419 899.843 253.362C899.843 251.579 898.778 250.105 896.646 248.939C894.515 247.773 891.823 247.19 888.57 247.19H846.506V237.521H888.57C893.842 237.521 898.497 238.173 902.535 239.476C906.686 240.71 909.939 242.459 912.294 244.721C914.65 246.916 915.828 249.453 915.828 252.333C915.828 256.311 913.36 259.602 908.424 262.208C903.601 264.745 897.544 266.014 890.252 266.014H874.268Z" fill="url(#paint17_linear_265_44)"/>
<path d="M970.238 294.198C962.049 294.198 954.702 292.964 948.196 290.495C941.69 287.958 936.53 284.563 932.716 280.312C929.015 275.992 927.164 271.123 927.164 265.705C927.164 260.288 929.183 255.419 933.221 251.099C937.372 246.779 942.924 243.384 949.879 240.916C956.945 238.378 964.854 237.11 973.603 237.11C982.352 237.11 990.204 238.378 997.159 240.916C1004.11 243.384 1009.61 246.779 1013.65 251.099C1017.8 255.419 1019.87 260.288 1019.87 265.705H1013.31C1013.31 271.123 1011.4 275.992 1007.59 280.312C1003.89 284.563 998.785 287.958 992.279 290.495C985.773 292.964 978.426 294.198 970.238 294.198ZM973.603 284.941C979.324 284.941 984.427 284.118 988.914 282.472C993.401 280.758 996.935 278.46 999.514 275.58C1002.09 272.631 1003.38 269.34 1003.38 265.705C1003.38 262.002 1002.09 258.711 999.514 255.831C996.935 252.882 993.401 250.585 988.914 248.939C984.427 247.224 979.324 246.367 973.603 246.367C967.994 246.367 962.89 247.224 958.291 248.939C953.805 250.585 950.215 252.882 947.523 255.831C944.943 258.711 943.653 262.002 943.653 265.705C943.653 269.34 944.943 272.631 947.523 275.58C950.215 278.46 953.805 280.758 958.291 282.472C962.89 284.118 967.994 284.941 973.603 284.941ZM1011.29 293.89C1008.82 293.89 1006.75 293.41 1005.07 292.45C1003.5 291.421 1002.71 290.152 1002.71 288.644V272.906L1005.91 262.002L1019.87 265.705V288.644C1019.87 290.152 1019.03 291.421 1017.35 292.45C1015.78 293.41 1013.76 293.89 1011.29 293.89Z" fill="url(#paint18_linear_265_44)"/>
<path d="M1123.82 294.404C1117.43 294.404 1111.77 293.547 1106.83 291.832C1101.89 290.118 1098.02 287.615 1095.22 284.323C1092.53 280.963 1091.18 276.917 1091.18 272.186V242.767C1091.18 241.19 1091.97 239.921 1093.54 238.961C1095.22 238.001 1097.3 237.521 1099.76 237.521C1102.34 237.521 1104.42 238.001 1105.99 238.961C1107.56 239.921 1108.34 241.19 1108.34 242.767V272.186C1108.34 275.066 1109.13 277.466 1110.7 279.386C1112.27 281.238 1114.46 282.643 1117.26 283.603C1120.18 284.495 1123.49 284.941 1127.19 284.941C1133.13 284.941 1137.96 283.706 1141.66 281.238C1145.47 278.769 1147.38 275.649 1147.38 271.877H1154.61C1154.61 276.266 1153.27 280.175 1150.58 283.603C1148 286.964 1144.41 289.604 1139.81 291.524C1135.21 293.444 1129.88 294.404 1123.82 294.404ZM1067.79 294.404C1061.4 294.404 1055.74 293.547 1050.8 291.832C1045.98 290.118 1042.16 287.615 1039.36 284.323C1036.55 280.963 1035.15 276.917 1035.15 272.186V242.767C1035.15 241.19 1035.94 239.921 1037.51 238.961C1039.19 238.001 1041.27 237.521 1043.73 237.521C1046.31 237.521 1048.39 238.001 1049.96 238.961C1051.53 239.921 1052.31 241.19 1052.31 242.767V272.186C1052.31 275.066 1053.1 277.466 1054.67 279.386C1056.35 281.238 1058.6 282.643 1061.4 283.603C1064.2 284.495 1067.46 284.941 1071.16 284.941C1077.1 284.941 1081.93 283.706 1085.63 281.238C1089.33 278.769 1091.18 275.649 1091.18 271.877H1098.42C1098.42 276.266 1097.13 280.175 1094.55 283.603C1091.97 286.964 1088.38 289.604 1083.78 291.524C1079.18 293.444 1073.85 294.404 1067.79 294.404ZM1155.96 293.787C1153.49 293.787 1151.42 293.307 1149.74 292.347C1148.16 291.318 1147.38 290.049 1147.38 288.541V242.767C1147.38 241.19 1148.16 239.921 1149.74 238.961C1151.42 238.001 1153.49 237.521 1155.96 237.521C1158.54 237.521 1160.62 238.001 1162.19 238.961C1163.76 239.921 1164.54 241.19 1164.54 242.767V288.541C1164.54 290.049 1163.76 291.318 1162.19 292.347C1160.62 293.307 1158.54 293.787 1155.96 293.787Z" fill="url(#paint19_linear_265_44)"/>
<path d="M1229.74 294.198C1220.43 294.198 1212.13 292.998 1204.84 290.598C1197.66 288.129 1191.99 284.769 1187.84 280.518C1183.8 276.197 1181.78 271.26 1181.78 265.705C1181.78 260.082 1183.69 255.145 1187.5 250.893C1191.43 246.573 1196.82 243.213 1203.66 240.813C1210.5 238.344 1218.35 237.11 1227.21 237.11C1235.96 237.11 1243.48 238.31 1249.76 240.71C1256.04 243.041 1260.81 246.299 1264.06 250.482C1267.43 254.596 1269.11 259.362 1269.11 264.78C1269.11 266.083 1268.38 267.18 1266.92 268.071C1265.46 268.894 1263.61 269.306 1261.37 269.306H1193.56V261.077H1260.87L1253.97 263.957C1253.85 260.528 1252.73 257.476 1250.6 254.802C1248.47 252.059 1245.44 249.899 1241.52 248.322C1237.59 246.744 1232.82 245.956 1227.21 245.956C1220.82 245.956 1215.32 246.813 1210.72 248.527C1206.24 250.242 1202.82 252.608 1200.46 255.625C1198.11 258.574 1196.93 261.934 1196.93 265.705C1196.93 269.477 1198.33 272.837 1201.13 275.786C1203.94 278.735 1207.81 281.066 1212.74 282.781C1217.68 284.495 1223.34 285.352 1229.74 285.352C1233.21 285.352 1236.75 284.975 1240.34 284.221C1244.04 283.398 1247.01 282.472 1249.26 281.443C1250.94 280.689 1252.73 280.312 1254.64 280.312C1256.66 280.243 1258.4 280.586 1259.86 281.34C1261.76 282.369 1262.77 283.501 1262.88 284.735C1263 285.969 1262.1 287.032 1260.19 287.924C1256.38 289.775 1251.61 291.284 1245.89 292.45C1240.28 293.615 1234.9 294.198 1229.74 294.198Z" fill="url(#paint20_linear_265_44)"/>
<path d="M1321.29 294.301C1313.55 294.301 1306.59 293.307 1300.42 291.318C1294.36 289.261 1289.54 286.278 1285.95 282.369C1282.47 278.46 1280.74 273.66 1280.74 267.968V242.664C1280.74 241.156 1281.52 239.921 1283.09 238.961C1284.77 237.933 1286.85 237.418 1289.32 237.418C1291.78 237.418 1293.8 237.933 1295.37 238.961C1297.06 239.921 1297.9 241.156 1297.9 242.664V267.968C1297.9 271.809 1299.08 274.997 1301.43 277.535C1303.79 280.003 1306.98 281.855 1311.02 283.089C1315.06 284.255 1319.6 284.838 1324.65 284.838C1329.47 284.838 1333.74 284.255 1337.44 283.089C1341.25 281.923 1344.28 280.346 1346.52 278.357C1348.77 276.369 1349.89 274.14 1349.89 271.671H1360.49C1360.49 275.923 1358.75 279.763 1355.27 283.192C1351.91 286.621 1347.25 289.329 1341.31 291.318C1335.47 293.307 1328.8 294.301 1321.29 294.301ZM1358.47 293.787C1356 293.787 1353.93 293.307 1352.24 292.347C1350.67 291.318 1349.89 290.049 1349.89 288.541V242.664C1349.89 241.087 1350.67 239.818 1352.24 238.858C1353.93 237.898 1356 237.418 1358.47 237.418C1361.05 237.418 1363.13 237.898 1364.7 238.858C1366.27 239.818 1367.05 241.087 1367.05 242.664V288.541C1367.05 290.049 1366.27 291.318 1364.7 292.347C1363.13 293.307 1361.05 293.787 1358.47 293.787ZM1324.82 230.115C1319.1 230.115 1313.94 229.532 1309.34 228.366C1304.74 227.132 1301.09 225.486 1298.4 223.429C1295.71 221.303 1294.36 218.937 1294.36 216.332C1294.36 214.891 1295.09 213.691 1296.55 212.731C1298.01 211.771 1299.8 211.291 1301.94 211.291C1304.18 211.291 1305.97 211.771 1307.32 212.731C1308.78 213.691 1309.51 214.891 1309.51 216.332C1309.51 218.046 1310.97 219.52 1313.88 220.755C1316.8 221.92 1320.44 222.503 1324.82 222.503C1329.19 222.503 1332.84 221.92 1335.76 220.755C1338.67 219.52 1340.13 218.046 1340.13 216.332C1340.13 214.891 1340.86 213.691 1342.32 212.731C1343.78 211.771 1345.57 211.291 1347.7 211.291C1349.94 211.291 1351.74 211.771 1353.09 212.731C1354.54 213.691 1355.27 214.891 1355.27 216.332C1355.27 218.937 1353.93 221.303 1351.23 223.429C1348.54 225.486 1344.9 227.132 1340.3 228.366C1335.81 229.532 1330.65 230.115 1324.82 230.115Z" fill="url(#paint21_linear_265_44)"/>
<path d="M1471.47 294.198C1462.39 294.198 1454.37 292.998 1447.41 290.598C1440.46 288.129 1434.96 284.769 1430.92 280.518C1427 276.197 1425.03 271.26 1425.03 265.705C1425.03 260.082 1427 255.145 1430.92 250.893C1434.96 246.573 1440.46 243.213 1447.41 240.813C1454.37 238.344 1462.39 237.11 1471.47 237.11C1480.45 237.11 1488.41 238.344 1495.37 240.813C1502.32 243.213 1507.76 246.573 1511.69 250.893C1515.72 255.145 1517.74 260.082 1517.74 265.705C1517.74 271.26 1515.78 276.197 1511.85 280.518C1507.93 284.769 1502.49 288.129 1495.53 290.598C1488.58 292.998 1480.56 294.198 1471.47 294.198ZM1471.47 284.941C1477.31 284.941 1482.47 284.118 1486.95 282.472C1491.44 280.826 1494.92 278.563 1497.38 275.683C1499.96 272.803 1501.25 269.477 1501.25 265.705C1501.25 261.934 1499.96 258.608 1497.38 255.728C1494.92 252.779 1491.44 250.482 1486.95 248.836C1482.47 247.19 1477.31 246.367 1471.47 246.367C1465.64 246.367 1460.48 247.19 1455.99 248.836C1451.51 250.482 1447.97 252.779 1445.39 255.728C1442.81 258.608 1441.52 261.934 1441.52 265.705C1441.52 269.477 1442.81 272.803 1445.39 275.683C1447.97 278.563 1451.51 280.826 1455.99 282.472C1460.48 284.118 1465.64 284.941 1471.47 284.941Z" fill="url(#paint22_linear_265_44)"/>
<path d="M1543.45 317.857C1540.99 317.857 1538.91 317.342 1537.23 316.314C1535.66 315.354 1534.87 314.119 1534.87 312.611V265.705C1534.99 260.288 1537.06 255.419 1541.1 251.099C1545.14 246.779 1550.63 243.384 1557.59 240.916C1564.54 238.378 1572.39 237.11 1581.14 237.11C1590.01 237.11 1597.91 238.378 1604.87 240.916C1611.82 243.384 1617.32 246.779 1621.36 251.099C1625.51 255.419 1627.58 260.288 1627.58 265.705C1627.58 271.123 1625.68 275.992 1621.86 280.312C1618.16 284.563 1613.06 287.958 1606.55 290.495C1600.04 292.964 1592.7 294.198 1584.51 294.198C1577.89 294.198 1571.78 293.375 1566.17 291.73C1560.67 290.015 1555.96 287.718 1552.04 284.838V312.611C1552.04 314.119 1551.25 315.354 1549.68 316.314C1548.11 317.342 1546.03 317.857 1543.45 317.857ZM1581.14 284.941C1586.86 284.941 1591.97 284.118 1596.46 282.472C1600.94 280.758 1604.48 278.46 1607.06 275.58C1609.75 272.631 1611.09 269.34 1611.09 265.705C1611.09 262.002 1609.75 258.711 1607.06 255.831C1604.48 252.882 1600.94 250.585 1596.46 248.939C1591.97 247.224 1586.86 246.367 1581.14 246.367C1575.54 246.367 1570.43 247.224 1565.83 248.939C1561.35 250.585 1557.81 252.882 1555.23 255.831C1552.65 258.711 1551.36 262.002 1551.36 265.705C1551.36 269.34 1552.65 272.631 1555.23 275.58C1557.81 278.46 1561.35 280.758 1565.83 282.472C1570.43 284.118 1575.54 284.941 1581.14 284.941Z" fill="url(#paint23_linear_265_44)"/>
<path d="M1673.2 294.198C1666.13 294.198 1659.8 293.547 1654.19 292.244C1648.69 290.872 1644.32 288.987 1641.06 286.586C1637.92 284.186 1636.35 281.443 1636.35 278.357C1636.35 275.272 1637.76 272.631 1640.56 270.437C1643.48 268.243 1647.63 266.391 1653.01 264.883C1658.51 263.374 1665.07 262.174 1672.7 261.282C1680.32 260.322 1685.48 259.191 1688.18 257.888C1690.87 256.516 1692.21 254.768 1692.21 252.642C1692.21 250.447 1690.42 248.836 1686.83 247.807C1683.24 246.71 1679.09 246.162 1674.38 246.162C1670.45 246.162 1666.53 246.539 1662.6 247.293C1658.79 248.047 1655.59 249.145 1653.01 250.585C1651.33 251.545 1649.48 252.196 1647.46 252.539C1645.44 252.882 1643.81 252.813 1642.58 252.333C1640.45 251.51 1639.1 250.447 1638.54 249.145C1638.09 247.842 1638.6 246.642 1640.05 245.544C1643.42 243.007 1648.13 240.984 1654.19 239.476C1660.36 237.898 1667.14 237.11 1674.55 237.11C1680.83 237.11 1686.55 237.727 1691.71 238.961C1696.87 240.127 1700.96 241.876 1703.99 244.207C1707.13 246.539 1708.7 249.419 1708.7 252.848C1708.7 256.825 1706.07 260.185 1700.8 262.928C1695.52 265.603 1687.5 267.66 1676.73 269.1C1667.87 270.197 1661.76 271.5 1658.39 273.009C1655.03 274.449 1653.4 276.197 1653.52 278.255C1653.63 280.38 1655.31 282.026 1658.56 283.192C1661.82 284.358 1666.7 284.941 1673.2 284.941C1679.03 284.941 1683.97 284.598 1688.01 283.912C1692.16 283.158 1695.41 282.026 1697.77 280.518C1699.34 279.489 1701.13 278.803 1703.15 278.46C1705.17 278.117 1707.25 278.495 1709.38 279.592C1711.28 280.552 1712.24 281.649 1712.24 282.883C1712.24 284.118 1711.4 285.284 1709.71 286.381C1706.01 288.644 1700.85 290.529 1694.23 292.038C1687.62 293.478 1680.6 294.198 1673.2 294.198Z" fill="url(#paint24_linear_265_44)"/>
<path d="M1845.73 293.89C1843.26 293.89 1841.18 293.41 1839.5 292.45C1837.93 291.421 1837.15 290.152 1837.15 288.644V259.225C1837.15 254.905 1835.41 251.716 1831.93 249.659C1828.45 247.533 1823.91 246.47 1818.3 246.47C1812.47 246.47 1807.64 247.705 1803.83 250.173C1800.13 252.642 1798.28 255.796 1798.28 259.637H1784.31C1784.31 255.179 1785.88 251.27 1789.02 247.91C1792.16 244.481 1796.54 241.807 1802.15 239.887C1807.87 237.967 1814.37 237.007 1821.67 237.007C1828.06 237.007 1833.72 237.864 1838.66 239.578C1843.6 241.293 1847.41 243.83 1850.1 247.19C1852.91 250.482 1854.31 254.493 1854.31 259.225V288.644C1854.31 290.152 1853.52 291.421 1851.95 292.45C1850.38 293.41 1848.31 293.89 1845.73 293.89ZM1733.5 293.89C1731.03 293.89 1728.96 293.41 1727.27 292.45C1725.7 291.421 1724.92 290.152 1724.92 288.644V242.87C1724.92 241.293 1725.7 240.024 1727.27 239.064C1728.96 238.104 1731.03 237.624 1733.5 237.624C1736.08 237.624 1738.15 238.104 1739.72 239.064C1741.3 240.024 1742.08 241.293 1742.08 242.87V288.644C1742.08 290.152 1741.3 291.421 1739.72 292.45C1738.15 293.41 1736.08 293.89 1733.5 293.89ZM1789.7 293.89C1787.23 293.89 1785.15 293.41 1783.47 292.45C1781.9 291.421 1781.12 290.152 1781.12 288.644V259.225C1781.12 254.905 1779.38 251.716 1775.9 249.659C1772.42 247.533 1767.88 246.47 1762.27 246.47C1756.44 246.47 1751.61 247.705 1747.8 250.173C1743.99 252.642 1742.08 255.796 1742.08 259.637H1731.48C1731.48 255.179 1732.94 251.27 1735.85 247.91C1738.77 244.481 1742.81 241.807 1747.97 239.887C1753.13 237.967 1759.02 237.007 1765.64 237.007C1772.03 237.007 1777.69 237.864 1782.63 239.578C1787.57 241.293 1791.38 243.83 1794.07 247.19C1796.88 250.482 1798.28 254.493 1798.28 259.225V288.644C1798.28 290.152 1797.49 291.421 1795.92 292.45C1794.35 293.41 1792.28 293.89 1789.7 293.89Z" fill="url(#paint25_linear_265_44)"/>
<path d="M1917.65 294.198C1908.34 294.198 1900.04 292.998 1892.75 290.598C1885.57 288.129 1879.91 284.769 1875.76 280.518C1871.72 276.197 1869.7 271.26 1869.7 265.705C1869.7 260.082 1871.61 255.145 1875.42 250.893C1879.35 246.573 1884.73 243.213 1891.57 240.813C1898.42 238.344 1906.27 237.11 1915.13 237.11C1923.88 237.11 1931.39 238.31 1937.68 240.71C1943.96 243.041 1948.72 246.299 1951.98 250.482C1955.34 254.596 1957.02 259.362 1957.02 264.78C1957.02 266.083 1956.3 267.18 1954.84 268.071C1953.38 268.894 1951.53 269.306 1949.28 269.306H1881.48V261.077H1948.78L1941.88 263.957C1941.77 260.528 1940.65 257.476 1938.52 254.802C1936.39 252.059 1933.36 249.899 1929.43 248.322C1925.5 246.744 1920.74 245.956 1915.13 245.956C1908.74 245.956 1903.24 246.813 1898.64 248.527C1894.15 250.242 1890.73 252.608 1888.38 255.625C1886.02 258.574 1884.84 261.934 1884.84 265.705C1884.84 269.477 1886.24 272.837 1889.05 275.786C1891.85 278.735 1895.72 281.066 1900.66 282.781C1905.59 284.495 1911.26 285.352 1917.65 285.352C1921.13 285.352 1924.66 284.975 1928.25 284.221C1931.95 283.398 1934.93 282.472 1937.17 281.443C1938.85 280.689 1940.65 280.312 1942.55 280.312C1944.57 280.243 1946.31 280.586 1947.77 281.34C1949.68 282.369 1950.69 283.501 1950.8 284.735C1950.91 285.969 1950.01 287.032 1948.11 287.924C1944.29 289.775 1939.53 291.284 1933.81 292.45C1928.2 293.615 1922.81 294.198 1917.65 294.198Z" fill="url(#paint26_linear_265_44)"/>
<path d="M2030.02 293.787C2028.9 293.787 2027.83 293.684 2026.82 293.478C2025.81 293.272 2024.86 292.827 2023.96 292.141L1994.52 270.54L1988.46 266.837L1959.18 245.647C1957.72 244.55 1956.94 243.384 1956.83 242.15C1956.71 240.847 1957.28 239.75 1958.51 238.858C1959.74 237.967 1961.59 237.521 1964.06 237.521C1966.75 237.521 1968.88 238.104 1970.46 239.27L1999.23 260.254L2003.6 262.722L2035.23 285.866C2036.92 287.101 2037.7 288.335 2037.59 289.569C2037.59 290.735 2036.86 291.73 2035.4 292.552C2034.06 293.375 2032.26 293.787 2030.02 293.787ZM1965.74 293.787C1963.5 293.787 1961.71 293.375 1960.36 292.552C1959.13 291.661 1958.51 290.598 1958.51 289.364C1958.51 288.129 1959.29 286.895 1960.86 285.661L1989.47 263.751L1998.55 271.569L1971.8 292.141C1970.12 293.238 1968.1 293.787 1965.74 293.787ZM2007.3 267.351L1995.69 261.282L2022.78 239.27C2023.68 238.584 2024.63 238.138 2025.64 237.933C2026.65 237.658 2027.77 237.521 2029.01 237.521C2031.48 237.521 2033.33 238.001 2034.56 238.961C2035.8 239.853 2036.36 240.95 2036.24 242.253C2036.24 243.556 2035.46 244.824 2033.89 246.059L2007.3 267.351Z" fill="url(#paint27_linear_265_44)"/>
<path d="M2128.05 293.787C2125.58 293.787 2123.51 293.307 2121.83 292.347C2120.26 291.318 2119.47 290.049 2119.47 288.541V242.767C2119.47 241.19 2120.26 239.921 2121.83 238.961C2123.51 238.001 2125.58 237.521 2128.05 237.521C2130.63 237.521 2132.65 238.001 2134.11 238.961C2135.57 239.921 2136.3 241.19 2136.3 242.767V288.541C2136.3 290.049 2135.57 291.318 2134.11 292.347C2132.65 293.307 2130.63 293.787 2128.05 293.787ZM2058.9 293.787C2056.43 293.787 2054.41 293.307 2052.84 292.347C2051.38 291.318 2050.65 290.049 2050.65 288.541V242.767C2050.65 241.19 2051.38 239.921 2052.84 238.961C2054.41 238.001 2056.43 237.521 2058.9 237.521C2061.48 237.521 2063.55 238.001 2065.12 238.961C2066.69 239.921 2067.48 241.19 2067.48 242.767V288.541C2067.48 290.049 2066.69 291.318 2065.12 292.347C2063.55 293.307 2061.48 293.787 2058.9 293.787ZM2065.29 269.203V259.945H2124.35V269.203H2065.29Z" fill="url(#paint28_linear_265_44)"/>
<path d="M2196.95 294.301C2189.21 294.301 2182.25 293.307 2176.08 291.318C2170.02 289.261 2165.2 286.278 2161.61 282.369C2158.13 278.46 2156.4 273.66 2156.4 267.968V242.664C2156.4 241.156 2157.18 239.921 2158.75 238.961C2160.43 237.933 2162.51 237.418 2164.98 237.418C2167.44 237.418 2169.46 237.933 2171.03 238.961C2172.72 239.921 2173.56 241.156 2173.56 242.664V267.968C2173.56 271.809 2174.74 274.997 2177.09 277.535C2179.45 280.003 2182.64 281.855 2186.68 283.089C2190.72 284.255 2195.26 284.838 2200.31 284.838C2205.13 284.838 2209.4 284.255 2213.1 283.089C2216.91 281.923 2219.94 280.346 2222.18 278.357C2224.43 276.369 2225.55 274.14 2225.55 271.671H2236.15C2236.15 275.923 2234.41 279.763 2230.93 283.192C2227.57 286.621 2222.91 289.329 2216.97 291.318C2211.13 293.307 2204.46 294.301 2196.95 294.301ZM2234.13 293.787C2231.66 293.787 2229.59 293.307 2227.9 292.347C2226.33 291.318 2225.55 290.049 2225.55 288.541V242.664C2225.55 241.087 2226.33 239.818 2227.9 238.858C2229.59 237.898 2231.66 237.418 2234.13 237.418C2236.71 237.418 2238.78 237.898 2240.36 238.858C2241.93 239.818 2242.71 241.087 2242.71 242.664V288.541C2242.71 290.049 2241.93 291.318 2240.36 292.347C2238.78 293.307 2236.71 293.787 2234.13 293.787Z" fill="url(#paint29_linear_265_44)"/>
<path d="M2339.23 292.552C2337.77 293.375 2335.7 293.787 2333 293.787C2330.42 293.718 2328.41 293.238 2326.95 292.347L2286.06 265.5L2324.59 239.167C2326.05 238.207 2328.07 237.658 2330.65 237.521C2333.34 237.384 2335.42 237.727 2336.87 238.55C2338.56 239.51 2339.51 240.607 2339.73 241.841C2339.96 243.007 2339.34 244.07 2337.88 245.03L2307.43 264.985L2339.73 286.175C2341.19 287.066 2341.92 288.129 2341.92 289.364C2341.92 290.529 2341.02 291.592 2339.23 292.552ZM2272.6 293.89C2270.13 293.89 2268.17 293.41 2266.71 292.45C2265.25 291.421 2264.52 290.152 2264.52 288.644V242.767C2264.52 241.19 2265.25 239.921 2266.71 238.961C2268.17 238.001 2270.13 237.521 2272.6 237.521C2275.18 237.521 2277.26 238.001 2278.83 238.961C2280.51 239.921 2281.35 241.19 2281.35 242.767V259.945H2302.89V269.614H2281.35V288.644C2281.35 290.152 2280.51 291.421 2278.83 292.45C2277.26 293.41 2275.18 293.89 2272.6 293.89Z" fill="url(#paint30_linear_265_44)"/>
<path d="M2393.23 294.301C2385.49 294.301 2378.54 293.307 2372.37 291.318C2366.31 289.261 2361.49 286.278 2357.9 282.369C2354.42 278.46 2352.68 273.66 2352.68 267.968V242.664C2352.68 241.156 2353.47 239.921 2355.04 238.961C2356.72 237.933 2358.8 237.418 2361.27 237.418C2363.73 237.418 2365.75 237.933 2367.32 238.961C2369.01 239.921 2369.85 241.156 2369.85 242.664V267.968C2369.85 271.809 2371.02 274.997 2373.38 277.535C2375.74 280.003 2378.93 281.855 2382.97 283.089C2387.01 284.255 2391.55 284.838 2396.6 284.838C2401.42 284.838 2405.69 284.255 2409.39 283.089C2413.2 281.923 2416.23 280.346 2418.47 278.357C2420.72 276.369 2421.84 274.14 2421.84 271.671H2432.44C2432.44 275.923 2430.7 279.763 2427.22 283.192C2423.86 286.621 2419.2 289.329 2413.26 291.318C2407.42 293.307 2400.75 294.301 2393.23 294.301ZM2430.42 293.787C2427.95 293.787 2425.88 293.307 2424.19 292.347C2422.62 291.318 2421.84 290.049 2421.84 288.541V242.664C2421.84 241.087 2422.62 239.818 2424.19 238.858C2425.88 237.898 2427.95 237.418 2430.42 237.418C2433 237.418 2435.07 237.898 2436.64 238.858C2438.21 239.818 2439 241.087 2439 242.664V288.541C2439 290.049 2438.21 291.318 2436.64 292.347C2435.07 293.307 2433 293.787 2430.42 293.787Z" fill="url(#paint31_linear_265_44)"/>
</g>
<defs>
<filter id="filter0_d_265_44" x="47.8562" y="47.8562" width="226.159" height="226.159" filterUnits="userSpaceOnUse" color-interpolation-filters="sRGB">
<feFlood flood-opacity="0" result="BackgroundImageFix"/>
<feColorMatrix in="SourceAlpha" type="matrix" values="0 0 0 0 0 0 0 0 0 0 0 0 0 0 0 0 0 0 127 0" result="hardAlpha"/>
<feMorphology radius="3" operator="dilate" in="SourceAlpha" result="effect1_dropShadow_265_44"/>
<feOffset/>
<feGaussianBlur stdDeviation="10"/>
<feComposite in2="hardAlpha" operator="out"/>
<feColorMatrix type="matrix" values="0 0 0 0 0.462745 0 0 0 0 0.737255 0 0 0 0 0.866667 0 0 0 1 0"/>
<feBlend mode="normal" in2="BackgroundImageFix" result="effect1_dropShadow_265_44"/>
<feBlend mode="normal" in="SourceGraphic" in2="effect1_dropShadow_265_44" result="shape"/>
</filter>
<filter id="filter1_d_265_44" x="508" y="2" width="1943" height="325.857" filterUnits="userSpaceOnUse" color-interpolation-filters="sRGB">
<feFlood flood-opacity="0" result="BackgroundImageFix"/>
<feColorMatrix in="SourceAlpha" type="matrix" values="0 0 0 0 0 0 0 0 0 0 0 0 0 0 0 0 0 0 127 0" result="hardAlpha"/>
<feOffset dx="6" dy="4"/>
<feGaussianBlur stdDeviation="3"/>
<feComposite in2="hardAlpha" operator="out"/>
<feColorMatrix type="matrix" values="0 0 0 0 0.294933 0 0 0 0 0.473507 0 0 0 0 0.557692 0 0 0 1 0"/>
<feBlend mode="normal" in2="BackgroundImageFix" result="effect1_dropShadow_265_44"/>
<feBlend mode="normal" in="SourceGraphic" in2="effect1_dropShadow_265_44" result="shape"/>
</filter>
<radialGradient id="paint0_radial_265_44" cx="0" cy="0" r="1" gradientTransform="matrix(122.68 -0.0373778 49.9347 -159.821 167.354 161)" gradientUnits="userSpaceOnUse">
<stop stop-color="#D9D9D9"/>
<stop offset="1" stop-color="#D9ECF0"/>
</radialGradient>
<radialGradient id="paint1_radial_265_44" cx="0" cy="0" r="1" gradientUnits="userSpaceOnUse" gradientTransform="translate(161 161) rotate(90) scale(140.773)">
<stop stop-color="#D9D9D9"/>
<stop offset="1" stop-color="#D9ECF0"/>
</radialGradient>
<linearGradient id="paint2_linear_265_44" x1="801.673" y1="4.00001" x2="861.975" y2="413.239" gradientUnits="userSpaceOnUse">
<stop stop-color="#D9D9D9"/>
<stop offset="1" stop-color="#DFEFF3"/>
</linearGradient>
<linearGradient id="paint3_linear_265_44" x1="801.673" y1="4.00001" x2="861.975" y2="413.239" gradientUnits="userSpaceOnUse">
<stop stop-color="#D9D9D9"/>
<stop offset="1" stop-color="#DFEFF3"/>
</linearGradient>
<linearGradient id="paint4_linear_265_44" x1="801.673" y1="4.00001" x2="861.975" y2="413.239" gradientUnits="userSpaceOnUse">
<stop stop-color="#D9D9D9"/>
<stop offset="1" stop-color="#DFEFF3"/>
</linearGradient>
<linearGradient id="paint5_linear_265_44" x1="801.673" y1="4.00001" x2="861.975" y2="413.239" gradientUnits="userSpaceOnUse">
<stop stop-color="#D9D9D9"/>
<stop offset="1" stop-color="#DFEFF3"/>
</linearGradient>
<linearGradient id="paint6_linear_265_44" x1="801.673" y1="4.00001" x2="861.975" y2="413.239" gradientUnits="userSpaceOnUse">
<stop stop-color="#D9D9D9"/>
<stop offset="1" stop-color="#DFEFF3"/>
</linearGradient>
<linearGradient id="paint7_linear_265_44" x1="801.673" y1="4.00001" x2="861.975" y2="413.239" gradientUnits="userSpaceOnUse">
<stop stop-color="#D9D9D9"/>
<stop offset="1" stop-color="#DFEFF3"/>
</linearGradient>
<linearGradient id="paint8_linear_265_44" x1="801.673" y1="4.00001" x2="861.975" y2="413.239" gradientUnits="userSpaceOnUse">
<stop stop-color="#D9D9D9"/>
<stop offset="1" stop-color="#DFEFF3"/>
</linearGradient>
<linearGradient id="paint9_linear_265_44" x1="801.673" y1="4.00001" x2="861.975" y2="413.239" gradientUnits="userSpaceOnUse">
<stop stop-color="#D9D9D9"/>
<stop offset="1" stop-color="#DFEFF3"/>
</linearGradient>
<linearGradient id="paint10_linear_265_44" x1="801.673" y1="4.00001" x2="861.975" y2="413.239" gradientUnits="userSpaceOnUse">
<stop stop-color="#D9D9D9"/>
<stop offset="1" stop-color="#DFEFF3"/>
</linearGradient>
<linearGradient id="paint11_linear_265_44" x1="801.673" y1="4.00001" x2="861.975" y2="413.239" gradientUnits="userSpaceOnUse">
<stop stop-color="#D9D9D9"/>
<stop offset="1" stop-color="#DFEFF3"/>
</linearGradient>
<linearGradient id="paint12_linear_265_44" x1="801.673" y1="4.00001" x2="861.975" y2="413.239" gradientUnits="userSpaceOnUse">
<stop stop-color="#D9D9D9"/>
<stop offset="1" stop-color="#DFEFF3"/>
</linearGradient>
<linearGradient id="paint13_linear_265_44" x1="801.673" y1="4.00001" x2="861.975" y2="413.239" gradientUnits="userSpaceOnUse">
<stop stop-color="#D9D9D9"/>
<stop offset="1" stop-color="#DFEFF3"/>
</linearGradient>
<linearGradient id="paint14_linear_265_44" x1="801.673" y1="211.291" x2="817.863" y2="425.016" gradientUnits="userSpaceOnUse">
<stop stop-color="#D9D9D9"/>
<stop offset="1" stop-color="#DFEFF3"/>
</linearGradient>
<linearGradient id="paint15_linear_265_44" x1="801.673" y1="211.291" x2="817.863" y2="425.016" gradientUnits="userSpaceOnUse">
<stop stop-color="#D9D9D9"/>
<stop offset="1" stop-color="#DFEFF3"/>
</linearGradient>
<linearGradient id="paint16_linear_265_44" x1="801.673" y1="211.291" x2="817.863" y2="425.016" gradientUnits="userSpaceOnUse">
<stop stop-color="#D9D9D9"/>
<stop offset="1" stop-color="#DFEFF3"/>
</linearGradient>
<linearGradient id="paint17_linear_265_44" x1="801.673" y1="211.291" x2="817.863" y2="425.016" gradientUnits="userSpaceOnUse">
<stop stop-color="#D9D9D9"/>
<stop offset="1" stop-color="#DFEFF3"/>
</linearGradient>
<linearGradient id="paint18_linear_265_44" x1="801.673" y1="211.291" x2="817.863" y2="425.016" gradientUnits="userSpaceOnUse">
<stop stop-color="#D9D9D9"/>
<stop offset="1" stop-color="#DFEFF3"/>
</linearGradient>
<linearGradient id="paint19_linear_265_44" x1="801.673" y1="211.291" x2="817.863" y2="425.016" gradientUnits="userSpaceOnUse">
<stop stop-color="#D9D9D9"/>
<stop offset="1" stop-color="#DFEFF3"/>
</linearGradient>
<linearGradient id="paint20_linear_265_44" x1="801.673" y1="211.291" x2="817.863" y2="425.016" gradientUnits="userSpaceOnUse">
<stop stop-color="#D9D9D9"/>
<stop offset="1" stop-color="#DFEFF3"/>
</linearGradient>
<linearGradient id="paint21_linear_265_44" x1="801.673" y1="211.291" x2="817.863" y2="425.016" gradientUnits="userSpaceOnUse">
<stop stop-color="#D9D9D9"/>
<stop offset="1" stop-color="#DFEFF3"/>
</linearGradient>
<linearGradient id="paint22_linear_265_44" x1="801.673" y1="211.291" x2="817.863" y2="425.016" gradientUnits="userSpaceOnUse">
<stop stop-color="#D9D9D9"/>
<stop offset="1" stop-color="#DFEFF3"/>
</linearGradient>
<linearGradient id="paint23_linear_265_44" x1="801.673" y1="211.291" x2="817.863" y2="425.016" gradientUnits="userSpaceOnUse">
<stop stop-color="#D9D9D9"/>
<stop offset="1" stop-color="#DFEFF3"/>
</linearGradient>
<linearGradient id="paint24_linear_265_44" x1="801.673" y1="211.291" x2="817.863" y2="425.016" gradientUnits="userSpaceOnUse">
<stop stop-color="#D9D9D9"/>
<stop offset="1" stop-color="#DFEFF3"/>
</linearGradient>
<linearGradient id="paint25_linear_265_44" x1="801.673" y1="211.291" x2="817.863" y2="425.016" gradientUnits="userSpaceOnUse">
<stop stop-color="#D9D9D9"/>
<stop offset="1" stop-color="#DFEFF3"/>
</linearGradient>
<linearGradient id="paint26_linear_265_44" x1="801.673" y1="211.291" x2="817.863" y2="425.016" gradientUnits="userSpaceOnUse">
<stop stop-color="#D9D9D9"/>
<stop offset="1" stop-color="#DFEFF3"/>
</linearGradient>
<linearGradient id="paint27_linear_265_44" x1="801.673" y1="211.291" x2="817.863" y2="425.016" gradientUnits="userSpaceOnUse">
<stop stop-color="#D9D9D9"/>
<stop offset="1" stop-color="#DFEFF3"/>
</linearGradient>
<linearGradient id="paint28_linear_265_44" x1="801.673" y1="211.291" x2="817.863" y2="425.016" gradientUnits="userSpaceOnUse">
<stop stop-color="#D9D9D9"/>
<stop offset="1" stop-color="#DFEFF3"/>
</linearGradient>
<linearGradient id="paint29_linear_265_44" x1="801.673" y1="211.291" x2="817.863" y2="425.016" gradientUnits="userSpaceOnUse">
<stop stop-color="#D9D9D9"/>
<stop offset="1" stop-color="#DFEFF3"/>
</linearGradient>
<linearGradient id="paint30_linear_265_44" x1="801.673" y1="211.291" x2="817.863" y2="425.016" gradientUnits="userSpaceOnUse">
<stop stop-color="#D9D9D9"/>
<stop offset="1" stop-color="#DFEFF3"/>
</linearGradient>
<linearGradient id="paint31_linear_265_44" x1="801.673" y1="211.291" x2="817.863" y2="425.016" gradientUnits="userSpaceOnUse">
<stop stop-color="#D9D9D9"/>
<stop offset="1" stop-color="#DFEFF3"/>
</linearGradient>
</defs>
</svg>
