<svg width="32" height="32" viewBox="0 0 32 32" fill="none" xmlns="http://www.w3.org/2000/svg">
<g clip-path="url(#clip0_85_6)">
<path d="M6.32808 1.06488C5.85129 1.18806 5.36273 1.4579 4.8624 1.88611C4.30909 2.36126 2.32543 4.37328 2.00168 4.78976C0.689047 6.46156 0.665502 9.06018 1.93693 12.4155C3.48502 16.5158 6.38694 20.6689 10.06 24.0418C15.1221 28.6935 21.9031 31.7028 25.3937 30.8581C25.9117 30.7349 26.771 30.336 27.1654 30.0369C27.5657 29.7377 30.2263 27.0159 30.4735 26.6581C30.9326 25.9952 31.1092 25.1094 30.9326 24.3586C30.7325 23.5198 30.6677 23.4435 28.1072 20.886C25.5232 18.3108 25.4408 18.2463 24.5872 18.0703C23.9103 17.9295 23.2216 18.0527 22.5565 18.434C22.4034 18.5278 21.6736 19.1907 20.9378 19.9181L19.6016 21.232L19.1719 21.0091C18.1183 20.4636 17.3413 19.9415 16.1817 18.9913C14.9926 18.0175 13.3327 16.3105 12.4145 15.1139C11.7493 14.2457 10.7722 12.6443 10.7663 12.4272C10.7663 12.3862 11.2254 11.9052 11.7846 11.3596C12.9619 10.2158 13.4269 9.68197 13.6918 9.1775C14.0214 8.53811 14.0862 7.72861 13.8566 7.05989C13.627 6.37944 13.4034 6.12134 11.1548 3.87467C8.92981 1.65734 8.5884 1.36404 7.95269 1.147C7.51122 0.988621 6.78132 0.953425 6.32808 1.06488ZM7.69369 2.71321C7.85851 2.80707 8.80031 3.69283 10.0659 4.95988C12.3556 7.2476 12.4439 7.35319 12.438 7.95738C12.438 8.49118 12.2967 8.67889 10.7604 10.2099C9.98345 10.9784 9.30653 11.6881 9.25944 11.7879C9.1888 11.911 9.17114 12.0812 9.1888 12.3686C9.20646 12.7205 9.25355 12.8555 9.61261 13.5652C10.4249 15.1725 11.4962 16.5862 13.268 18.3929C15.028 20.1879 16.7821 21.5253 18.5892 22.4522C19.2308 22.7807 19.3544 22.8276 19.6487 22.8217C19.8488 22.8217 20.0607 22.7807 20.1843 22.7161C20.2962 22.6575 21.0261 21.977 21.803 21.2086C22.8037 20.2172 23.2923 19.7773 23.4806 19.6952C23.8338 19.5368 24.2929 19.5368 24.6167 19.6952C24.9699 19.8711 29.1314 24.0125 29.3139 24.3762C29.414 24.5698 29.4552 24.7458 29.4552 24.998C29.4552 25.6022 29.3316 25.7664 27.6599 27.4382C26.0058 29.0924 25.8528 29.2039 24.9699 29.4033C24.1163 29.591 22.686 29.4385 21.238 29.0103C19.0306 28.3592 16.0639 26.7988 13.6212 25.0039C8.91803 21.5547 4.88006 16.2812 3.20248 11.4066C2.40195 9.08951 2.31365 7.42944 2.92582 6.19759C3.11418 5.80457 3.29077 5.60513 4.51511 4.36741C5.26855 3.60484 5.99256 2.91266 6.11618 2.82467C6.64594 2.46098 7.18747 2.41991 7.69369 2.71321Z" fill="#75BCDD" stroke="#75BCDD"/>
</g>
<defs>
<clipPath id="clip0_85_6">
<rect width="32" height="32" fill="white"/>
</clipPath>
</defs>
</svg>
