<svg width="20" height="20" viewBox="0 0 20 20" fill="none" xmlns="http://www.w3.org/2000/svg">
<path d="M13.6564 0.679408C15.324 1.67377 16.3658 3.05241 16.8783 4.93097C17.3568 10.3616 14.4909 14.9481 11.158 18.9989C11.0657 19.1085 10.9734 19.2181 10.8783 19.331C10.266 19.2666 9.95018 19.198 9.49392 18.7724C6.42053 14.7468 3.47892 10.1993 4.0783 4.93097C4.46015 3.21477 5.41869 1.92668 6.8783 0.96847C8.83 -0.222884 11.5942 -0.310167 13.6564 0.679408ZM8.4783 5.73097C8.15544 6.37669 8.15915 7.03296 8.2783 7.73097C8.6255 8.33599 9.04546 8.81455 9.6783 9.13097C10.703 9.25243 10.703 9.25243 11.6431 8.9216C12.4038 8.29538 12.6556 7.9577 12.7533 6.98097C12.7484 6.31085 12.6295 5.96118 12.2033 5.44347C11.4973 4.75431 11.0926 4.65186 10.0994 4.6591C9.35511 4.78613 8.99767 5.19893 8.4783 5.73097Z" fill="#F9F9F9"/>
</svg>
