<svg width="20" height="20" viewBox="0 0 20 20" fill="none" xmlns="http://www.w3.org/2000/svg">
<path d="M0 4.80005C0.973709 5.53033 1.94397 6.26005 2.9 7.01255C3.0175 7.10493 3.135 7.1973 3.25605 7.29248C4.19418 8.03251 5.12311 8.78352 6.05 9.53755C6.18492 9.64678 6.31983 9.75601 6.45884 9.86855C7.0497 10.3477 7.63712 10.8288 8.21172 11.3274C8.38523 11.4751 8.55873 11.6228 8.7375 11.775C8.88265 11.9024 9.0278 12.0298 9.17734 12.161C9.58589 12.4355 9.58589 12.4355 10.0602 12.4133C10.8642 12.0957 11.4469 11.5702 12.1 11.0125C12.3867 10.7735 12.6737 10.5347 12.9609 10.2961C13.1029 10.1776 13.2449 10.0591 13.3912 9.93706C14.1611 9.30238 14.9571 8.70294 15.7508 8.09849C16.2231 7.73791 16.6903 7.37142 17.1555 7.00161C17.2818 6.90135 17.4081 6.8011 17.5382 6.6978C17.7814 6.50431 18.0242 6.31027 18.2665 6.11558C18.8343 5.66458 19.346 5.32703 20 5.00005C20 9.02605 20 13.052 20 17.2C13.4 17.2 6.8 17.2 0 17.2C0 13.108 0 9.01605 0 4.80005Z" fill="#F9F9F9"/>
<path d="M0 2.80005C6.6 2.80005 13.2 2.80005 20 2.80005C20 4.20005 20 4.20005 19.6977 4.61646C19.5541 4.73067 19.4105 4.84488 19.2625 4.96255C19.0135 5.1648 19.0135 5.1648 18.7594 5.37114C18.5748 5.51268 18.3902 5.65422 18.2 5.80005C18.0113 5.94778 17.8226 6.0955 17.6281 6.24771C17.2028 6.57752 16.7764 6.9052 16.3477 7.23052C15.4762 7.89236 14.6132 8.56502 13.75 9.23755C13.4573 9.46541 13.1646 9.69328 12.8719 9.92114C12.7307 10.0311 12.5896 10.141 12.4441 10.2542C11.6963 10.8365 10.9482 11.4183 10.2 12C9.47682 11.653 8.88539 11.2302 8.25 10.7375C8.13785 10.6507 8.0257 10.5638 7.91016 10.4743C6.85828 9.65486 5.82587 8.81182 4.7937 7.96782C3.72906 7.09922 2.64715 6.25648 1.55391 5.42427C1.37112 5.28428 1.18833 5.14428 1 5.00005C0.811023 4.87862 0.622047 4.75719 0.427344 4.63208C0 4.20005 0 4.20005 0 2.80005Z" fill="#F9F9F9"/>
</svg>
