<svg width="20" height="20" viewBox="0 0 20 20" fill="none" xmlns="http://www.w3.org/2000/svg">
<path d="M4.99763 1.03917C5.906 1.40252 6.31921 2.39884 6.79998 3.20011C7.02878 3.50872 7.25792 3.81707 7.48748 4.12511C8.0755 5.02212 8.16879 5.53658 7.99998 6.60011C7.77492 7.16084 7.50903 7.68134 7.19998 8.20011C8.65893 9.83706 10.1522 11.3534 11.8 12.8001C11.8969 12.7424 11.9939 12.6846 12.0937 12.6251C12.2278 12.5509 12.3619 12.4766 12.5 12.4001C12.6299 12.3259 12.7599 12.2516 12.8937 12.1751C13.8185 11.8554 14.5817 11.7983 15.4628 12.2235C15.9522 12.5277 16.4202 12.8504 16.8875 13.1876C17.0503 13.3004 17.2131 13.4132 17.3808 13.5294C18.7828 14.5058 18.7828 14.5058 18.925 15.2876C18.921 16.3965 18.2023 17 17.4719 17.7603C16.2628 18.8873 16.2628 18.8873 15.3 18.9001C11.7686 18.7659 8.783 15.7282 6.39998 13.4001C6.2296 13.2367 6.2296 13.2367 6.05579 13.0701C5.219 12.2551 4.48513 11.3988 3.78748 10.4626C3.63228 10.2553 3.63228 10.2553 3.47395 10.0437C2.22532 8.33829 1.08567 6.49818 1.10467 4.32667C1.27771 3.3707 1.90567 2.83527 2.59998 2.20011C2.70027 2.09415 2.80056 1.98819 2.90388 1.87902C3.53455 1.25877 4.12514 0.982671 4.99763 1.03917Z" fill="#F9F9F9"/>
</svg>
