<svg width="20" height="20" viewBox="0 0 20 20" fill="none" xmlns="http://www.w3.org/2000/svg">
<g clip-path="url(#clip0_101_137)">
<path d="M15.1375 2.14997C17.1513 3.60015 18.683 5.50853 19.2 7.99997C19.4789 11.3326 18.9749 13.7814 16.8657 16.4179C15.5823 17.8466 13.5177 19.073 11.5769 19.2354C8.16439 19.3278 5.77927 18.8393 3.17503 16.5C1.1231 14.3781 0.703262 11.8248 0.744559 9.00154C0.836522 6.53914 2.16263 4.46831 3.90315 2.78513C7.17807 0.246551 11.6223 -0.0233101 15.1375 2.14997ZM12.5261 6.67551C12.2699 6.78076 12.2699 6.78076 12.0084 6.88814C11.8257 6.96707 11.643 7.046 11.4547 7.12732C11.2659 7.20637 11.0771 7.28542 10.8826 7.36686C10.4835 7.53473 10.0851 7.70412 9.68733 7.87493C9.07747 8.13643 8.46557 8.39257 7.85315 8.64802C7.46604 8.81164 7.07906 8.97556 6.69222 9.13982C6.50868 9.21672 6.32513 9.29362 6.13603 9.37286C5.96647 9.44618 5.7969 9.5195 5.6222 9.59504C5.47272 9.65887 5.32324 9.7227 5.16924 9.78846C4.73508 10.0007 4.73508 10.0007 4.40003 10.6C4.63928 10.699 4.87853 10.798 5.12503 10.9C5.25961 10.9557 5.39418 11.0113 5.53284 11.0687C6.2684 11.2754 6.86347 11.3572 7.5763 11.0242C7.99432 10.7793 8.3974 10.5194 8.80003 10.25C8.93718 10.1613 9.07434 10.0726 9.21565 9.98122C9.61248 9.72374 10.0066 9.46265 10.4 9.19997C10.5212 9.11941 10.6424 9.03884 10.7672 8.95583C11.0451 8.77092 11.3226 8.58551 11.6 8.39997C11.4897 9.14136 11.2236 9.42066 10.65 9.88747C10.4354 10.0685 10.4354 10.0685 10.2164 10.2531C10.079 10.3676 9.94161 10.482 9.80003 10.6C9.42048 10.922 9.12233 11.2153 8.80003 11.6C8.84454 12.0935 8.92721 12.3284 9.28225 12.6776C9.6696 12.9424 10.0574 13.2055 10.45 13.4625C10.5838 13.5559 10.7176 13.6494 10.8555 13.7457C11.6549 14.2898 11.6549 14.2898 12.5969 14.3586C12.7299 14.3062 12.863 14.2539 13 14.2C13.5965 11.7589 13.8996 9.29144 14.2 6.79997C13.5341 6.38112 13.2458 6.37265 12.5261 6.67551Z" fill="#F9F9F9"/>
</g>
<defs>
<clipPath id="clip0_101_137">
<rect width="20" height="20" fill="white"/>
</clipPath>
</defs>
</svg>
