<svg width="20" height="20" viewBox="0 0 20 20" fill="none" xmlns="http://www.w3.org/2000/svg">
<path d="M6.23618 2.00767C6.5089 2.00647 6.78162 2.00528 7.0626 2.00404C7.63837 2.00319 8.21415 2.00549 8.78989 2.01072C9.6707 2.01741 10.5507 2.01078 11.4315 2.00278C11.9914 2.00361 12.5513 2.00521 13.1112 2.00767C13.3742 2.00514 13.6373 2.00261 13.9083 2C15.0272 2.01791 15.7354 2.06423 16.7141 2.63328C17.403 3.81802 17.3527 4.88772 17.3397 6.23618C17.3409 6.5089 17.3421 6.78162 17.3433 7.0626C17.3442 7.63837 17.3419 8.21415 17.3366 8.78989C17.33 9.6707 17.3366 10.5507 17.3446 11.4315C17.3438 11.9914 17.3422 12.5513 17.3397 13.1112C17.3422 13.3742 17.3448 13.6373 17.3474 13.9083C17.3295 15.0272 17.2831 15.7354 16.7141 16.7141C15.5293 17.403 14.4596 17.3527 13.1112 17.3397C12.8385 17.3409 12.5657 17.3421 12.2848 17.3433C11.709 17.3442 11.1332 17.3419 10.5575 17.3366C9.67666 17.33 8.79665 17.3366 7.91587 17.3446C7.35597 17.3438 6.79608 17.3422 6.23618 17.3397C5.97313 17.3422 5.71008 17.3448 5.43906 17.3474C4.32013 17.3295 3.61193 17.2831 2.63328 16.7141C1.94439 15.5293 1.9947 14.4596 2.00767 13.1112C2.00647 12.8385 2.00528 12.5657 2.00404 12.2848C2.00319 11.709 2.00549 11.1332 2.01072 10.5575C2.01741 9.67666 2.01078 8.79665 2.00278 7.91587C2.00361 7.35597 2.00521 6.79608 2.00767 6.23618C2.00514 5.97313 2.00261 5.71008 2 5.43906C2.01791 4.32013 2.06423 3.61193 2.63328 2.63328C3.81802 1.94439 4.88772 1.9947 6.23618 2.00767ZM4.98618 6.86118C4.83334 8.6953 5.12408 10.0485 6.23618 11.5487C7.43259 12.5568 8.75315 12.9604 10.2987 13.1112C10.4018 12.3893 10.5049 11.6674 10.6112 10.9237C11.5096 11.1385 11.5096 11.1385 12.4862 11.5487C12.9159 12.369 12.9159 12.369 13.1112 13.1112C13.5237 13.1112 13.9362 13.1112 14.3612 13.1112C13.953 11.8867 13.4764 11.1342 12.4862 10.2987C12.2799 10.2987 12.0737 10.2987 11.8612 10.2987C11.8612 10.0924 11.8612 9.88618 11.8612 9.67368C12.1416 9.56734 12.1416 9.56734 12.4276 9.45884C13.2966 8.93741 13.6 8.38356 14.0487 7.48618C14.0487 7.27993 14.0487 7.07368 14.0487 6.86118C13.6362 6.86118 13.2237 6.86118 12.7987 6.86118C12.3697 7.47781 11.9536 8.10351 11.5487 8.73618C10.8456 9.16587 10.8456 9.16587 10.2987 9.36118C10.2987 8.53618 10.2987 7.71118 10.2987 6.86118C9.78306 6.86118 9.26743 6.86118 8.73618 6.86118C8.73618 8.30493 8.73618 9.74868 8.73618 11.2362C7.20647 10.4713 7.10706 9.99247 6.54868 8.42368C6.33384 7.50571 6.33384 7.50571 6.23618 6.86118C5.82368 6.86118 5.41118 6.86118 4.98618 6.86118Z" fill="#F9F9F9"/>
</svg>
